font.ufo
<glyph name="exclam" format="1">
  <advance width="355"/>
  <unicode hex="0021"/>
  <outline>
    <contour>
      <point x="177" y="-9" type="curve" smooth="yes"/>
      <point x="209" y="-9"/>
      <point x="236" y="16"/>
      <point x="236" y="49" type="curve" smooth="yes"/>
      <point x="236" y="80"/>
      <point x="209" y="107"/>
      <point x="177" y="107" type="curve" smooth="yes"/>
      <point x="145" y="107"/>
      <point x="119" y="80"/>
      <point x="119" y="49" type="curve" smooth="yes"/>
      <point x="119" y="16"/>
      <point x="145" y="-9"/>
    </contour>
    <contour>
      <point x="115" y="707" type="line"/>
      <point x="144" y="168" type="line"/>
      <point x="211" y="168" type="line"/>
      <point x="231" y="707" type="line"/>
    </contour>
  </outline>
</glyph>
<glyph name="quotedbl" format="1">
  <advance width="294"/>
  <unicode hex="0022"/>
  <outline>
    <contour>
      <point x="46" y="765" type="line"/>
      <point x="70" y="550" type="line"/>
      <point x="105" y="550" type="line"/>
      <point x="128" y="765" type="line"/>
    </contour>
    <contour>
      <point x="165" y="765" type="line"/>
      <point x="189" y="550" type="line"/>
      <point x="224" y="550" type="line"/>
      <point x="248" y="765" type="line"/>
    </contour>
  </outline>
</glyph>
<glyph name="numbersign" format="1">
  <advance width="730"/>
  <unicode hex="0023"/>
  <outline>
    <contour>
      <point x="690" y="429" type="line"/>
      <point x="690" y="494" type="line"/>
      <point x="101" y="494" type="line"/>
      <point x="101" y="429" type="line"/>
    </contour>
    <contour>
      <point x="642" y="178" type="line"/>
      <point x="642" y="243" type="line"/>
      <point x="52" y="243" type="line"/>
      <point x="52" y="178" type="line"/>
    </contour>
    <contour>
      <point x="219" y="0" type="line"/>
      <point x="350" y="668" type="line"/>
      <point x="282" y="668" type="line"/>
      <point x="150" y="0" type="line"/>
    </contour>
    <contour>
      <point x="457" y="0" type="line"/>
      <point x="588" y="668" type="line"/>
      <point x="520" y="668" type="line"/>
      <point x="388" y="0" type="line"/>
    </contour>
  </outline>
</glyph>
<glyph name="dollar" format="1">
  <advance width="496"/>
  <unicode hex="0024"/>
  <outline>
    <contour>
      <point x="278" y="709" type="line"/>
      <point x="278" y="-85" type="line"/>
      <point x="234" y="-85" type="line"/>
      <point x="234" y="709" type="line"/>
    </contour>
    <contour>
      <point x="428" y="604" type="curve"/>
      <point x="427" y="558"/>
      <point x="423" y="509"/>
      <point x="416" y="469" type="curve"/>
      <point x="406" y="469"/>
      <point x="394" y="469"/>
      <point x="385" y="471" type="curve"/>
      <point x="371" y="556"/>
      <point x="324" y="586"/>
      <point x="260" y="586" type="curve" smooth="yes"/>
      <point x="195" y="586"/>
      <point x="152" y="552"/>
      <point x="152" y="495" type="curve" smooth="yes"/>
      <point x="152" y="345"/>
      <point x="452" y="374"/>
      <point x="452" y="168" type="curve" smooth="yes"/>
      <point x="452" y="58"/>
      <point x="357" y="-10"/>
      <point x="238" y="-10" type="curve" smooth="yes"/>
      <point x="178" y="-10"/>
      <point x="121" y="4"/>
      <point x="60" y="28" type="curve"/>
      <point x="58" y="84"/>
      <point x="63" y="150"/>
      <point x="68" y="192" type="curve"/>
      <point x="81" y="192"/>
      <point x="92" y="191"/>
      <point x="106" y="188" type="curve"/>
      <point x="104" y="73"/>
      <point x="163" y="39"/>
      <point x="245" y="39" type="curve" smooth="yes"/>
      <point x="314" y="39"/>
      <point x="363" y="79"/>
      <point x="363" y="139" type="curve" smooth="yes"/>
      <point x="363" y="297"/>
      <point x="67" y="269"/>
      <point x="67" y="473" type="curve" smooth="yes"/>
      <point x="67" y="575"/>
      <point x="152" y="634"/>
      <point x="264" y="634" type="curve" smooth="yes"/>
      <point x="329" y="634"/>
      <point x="380" y="620"/>
    </contour>
  </outline>
</glyph>
<glyph name="ampersand" format="1">
  <advance width="681"/>
  <unicode hex="0026"/>
  <outline>
    <contour>
      <point x="150" y="487" type="curve" smooth="yes"/>
      <point x="150" y="439"/>
      <point x="171" y="406"/>
      <point x="209" y="360" type="curve" smooth="yes"/>
      <point x="498" y="0" type="line"/>
      <point x="652" y="0" type="line"/>
      <point x="656" y="13"/>
      <point x="657" y="26"/>
      <point x="657" y="37" type="curve"/>
      <point x="611" y="40"/>
      <point x="579" y="53"/>
      <point x="542" y="98" type="curve" smooth="yes"/>
      <point x="293" y="408" type="line" smooth="yes"/>
      <point x="262" y="446"/>
      <point x="253" y="467"/>
      <point x="253" y="502" type="curve" smooth="yes"/>
      <point x="253" y="551"/>
      <point x="288" y="586"/>
      <point x="332" y="586" type="curve" smooth="yes"/>
      <point x="376" y="586"/>
      <point x="412" y="551"/>
      <point x="412" y="498" type="curve" smooth="yes"/>
      <point x="412" y="440"/>
      <point x="374" y="399"/>
      <point x="296" y="369" type="curve"/>
      <point x="318" y="342" type="line"/>
      <point x="435" y="380"/>
      <point x="511" y="418"/>
      <point x="511" y="503" type="curve" smooth="yes"/>
      <point x="511" y="577"/>
      <point x="440" y="635"/>
      <point x="333" y="635" type="curve" smooth="yes"/>
      <point x="229" y="635"/>
      <point x="150" y="572"/>
    </contour>
    <contour>
      <point x="44" y="143" type="curve" smooth="yes"/>
      <point x="44" y="47"/>
      <point x="118" y="-13"/>
      <point x="215" y="-13" type="curve" smooth="yes"/>
      <point x="311" y="-13"/>
      <point x="369" y="32"/>
      <point x="455" y="135" type="curve"/>
      <point x="424" y="162" type="line"/>
      <point x="359" y="89"/>
      <point x="316" y="63"/>
      <point x="251" y="63" type="curve" smooth="yes"/>
      <point x="185" y="63"/>
      <point x="146" y="105"/>
      <point x="146" y="164" type="curve" smooth="yes"/>
      <point x="146" y="222"/>
      <point x="179" y="276"/>
      <point x="282" y="317" type="curve"/>
      <point x="262" y="344" type="line"/>
      <point x="130" y="309"/>
      <point x="44" y="245"/>
    </contour>
    <contour>
      <point x="477" y="291" type="curve"/>
      <point x="505" y="289"/>
      <point x="527" y="285"/>
      <point x="555" y="273" type="curve"/>
      <point x="549" y="291" type="line"/>
      <point x="443" y="178" type="line"/>
      <point x="474" y="151" type="line"/>
      <point x="556" y="240" type="line" smooth="yes"/>
      <point x="587" y="271"/>
      <point x="615" y="286"/>
      <point x="656" y="291" type="curve"/>
      <point x="659" y="301"/>
      <point x="660" y="317"/>
      <point x="659" y="329" type="curve"/>
      <point x="480" y="329" type="line"/>
      <point x="478" y="318"/>
      <point x="477" y="302"/>
    </contour>
  </outline>
</glyph>
<glyph name="parenleft" format="1">
  <advance width="423"/>
  <unicode hex="0028"/>
  <outline>
    <contour>
      <point x="397" y="766" type="line"/>
      <point x="263" y="643"/>
      <point x="214" y="482"/>
      <point x="214" y="331" type="curve" smooth="yes"/>
      <point x="214" y="181"/>
      <point x="263" y="10"/>
      <point x="397" y="-112" type="curve"/>
      <point x="353" y="-145" type="line"/>
      <point x="197" y="-23"/>
      <point x="120" y="145"/>
      <point x="120" y="331" type="curve" smooth="yes"/>
      <point x="120" y="519"/>
      <point x="197" y="676"/>
      <point x="353" y="798" type="curve"/>
    </contour>
  </outline>
</glyph>
<glyph name="parenright" format="1">
  <advance width="423"/>
  <unicode hex="0029"/>
  <outline>
    <contour>
      <point x="303" y="331" type="curve" smooth="yes"/>
      <point x="303" y="145"/>
      <point x="226" y="-23"/>
      <point x="69" y="-145" type="curve"/>
      <point x="26" y="-112" type="line"/>
      <point x="160" y="10"/>
      <point x="209" y="181"/>
      <point x="209" y="331" type="curve" smooth="yes"/>
      <point x="209" y="482"/>
      <point x="160" y="643"/>
      <point x="26" y="766" type="curve"/>
      <point x="69" y="798" type="line"/>
      <point x="226" y="676"/>
      <point x="303" y="519"/>
    </contour>
  </outline>
</glyph>
<glyph name="asterisk" format="1">
  <advance width="470"/>
  <unicode hex="002A"/>
  <outline>
    <contour>
      <point x="239" y="544" type="line"/>
      <point x="349" y="595" type="line"/>
      <point x="361" y="581"/>
      <point x="372" y="536"/>
      <point x="372" y="515" type="curve"/>
      <point x="249" y="501" type="line"/>
      <point x="342" y="413" type="line"/>
      <point x="333" y="397"/>
      <point x="299" y="370"/>
      <point x="276" y="363" type="curve"/>
      <point x="215" y="472" type="line"/>
      <point x="160" y="362" type="line"/>
      <point x="141" y="366"/>
      <point x="104" y="390"/>
      <point x="92" y="409" type="curve"/>
      <point x="180" y="500" type="line"/>
      <point x="56" y="516" type="line"/>
      <point x="56" y="538"/>
      <point x="67" y="582"/>
      <point x="80" y="595" type="curve"/>
      <point x="192" y="545" type="line"/>
      <point x="171" y="671" type="line"/>
      <point x="187" y="679"/>
      <point x="231" y="681"/>
      <point x="254" y="674" type="curve"/>
    </contour>
  </outline>
</glyph>
<glyph name="plus" format="1">
  <advance width="573"/>
  <unicode hex="002B"/>
  <outline>
    <contour>
      <point x="319" y="573" type="line"/>
      <point x="319" y="370" type="line"/>
      <point x="523" y="370" type="line"/>
      <point x="523" y="306" type="line"/>
      <point x="319" y="306" type="line"/>
      <point x="319" y="103" type="line"/>
      <point x="255" y="103" type="line"/>
      <point x="255" y="306" type="line"/>
      <point x="51" y="306" type="line"/>
      <point x="51" y="370" type="line"/>
      <point x="255" y="370" type="line"/>
      <point x="255" y="573" type="line"/>
    </contour>
  </outline>
</glyph>
<glyph name="comma" format="1">
  <advance width="190"/>
  <unicode hex="002C"/>
  <outline>
    <contour>
      <point x="145" y="17" type="curve" smooth="yes"/>
      <point x="145" y="-38"/>
      <point x="116" y="-84"/>
      <point x="70" y="-114" type="curve"/>
      <point x="47" y="-97" type="line"/>
      <point x="72" y="-76"/>
      <point x="84" y="-57"/>
      <point x="84" y="-30" type="curve" smooth="yes"/>
      <point x="84" y="8"/>
      <point x="44" y="20"/>
      <point x="44" y="57" type="curve" smooth="yes"/>
      <point x="44" y="81"/>
      <point x="62" y="97"/>
      <point x="86" y="97" type="curve" smooth="yes"/>
      <point x="113" y="97"/>
      <point x="145" y="70"/>
    </contour>
  </outline>
</glyph>
<glyph name="hyphen" format="1">
  <advance width="434"/>
  <unicode hex="002D"/>
  <outline>
    <contour>
      <point x="384" y="275" type="line"/>
      <point x="384" y="339" type="line"/>
      <point x="49" y="339" type="line"/>
      <point x="49" y="275" type="line"/>
    </contour>
  </outline>
</glyph>
<glyph name="period" format="1">
  <advance width="191"/>
  <unicode hex="002E"/>
  <outline>
    <contour>
      <point x="95" y="-8" type="curve" smooth="yes"/>
      <point x="124" y="-8"/>
      <point x="147" y="15"/>
      <point x="147" y="43" type="curve" smooth="yes"/>
      <point x="147" y="71"/>
      <point x="124" y="95"/>
      <point x="95" y="95" type="curve" smooth="yes"/>
      <point x="67" y="95"/>
      <point x="44" y="71"/>
      <point x="44" y="43" type="curve" smooth="yes"/>
      <point x="44" y="15"/>
      <point x="67" y="-8"/>
    </contour>
  </outline>
</glyph>
<glyph name="slash" format="1">
  <advance width="464"/>
  <unicode hex="002F"/>
  <outline>
    <contour>
      <point x="281" y="714" type="line"/>
      <point x="88" y="-50" type="line"/>
      <point x="167" y="-50" type="line"/>
      <point x="360" y="714" type="line"/>
    </contour>
  </outline>
</glyph>
<glyph name="zero" format="1">
  <advance width="527"/>
  <unicode hex="0030"/>
  <outline>
    <contour>
      <point x="303" y="623" type="move" name="top"/>
    </contour>
    <contour>
      <point x="481" y="310" type="curve" smooth="yes"/>
      <point x="481" y="111"/>
      <point x="402" y="-12"/>
      <point x="263" y="-12" type="curve" smooth="yes"/>
      <point x="124" y="-12"/>
      <point x="46" y="111"/>
      <point x="46" y="310" type="curve" smooth="yes"/>
      <point x="46" y="509"/>
      <point x="124" y="636"/>
      <point x="263" y="636" type="curve" smooth="yes"/>
      <point x="402" y="636"/>
      <point x="481" y="509"/>
    </contour>
    <contour>
      <point x="150" y="310" type="curve" smooth="yes"/>
      <point x="153" y="138"/>
      <point x="180" y="38"/>
      <point x="267" y="38" type="curve" smooth="yes"/>
      <point x="353" y="38"/>
      <point x="380" y="137"/>
      <point x="377" y="311" type="curve" smooth="yes"/>
      <point x="374" y="487"/>
      <point x="345" y="585"/>
      <point x="258" y="585" type="curve" smooth="yes"/>
      <point x="173" y="585"/>
      <point x="147" y="486"/>
    </contour>
  </outline>
</glyph>
<glyph name="one" format="1">
  <advance width="331"/>
  <unicode hex="0031"/>
  <outline>
    <contour>
      <point x="217" y="23" type="line"/>
      <point x="199" y="66" type="line"/>
      <point x="233" y="49"/>
      <point x="262" y="39"/>
      <point x="304" y="37" type="curve"/>
      <point x="304" y="25"/>
      <point x="303" y="11"/>
      <point x="300" y="0" type="curve"/>
      <point x="28" y="0" type="line"/>
      <point x="27" y="12"/>
      <point x="28" y="27"/>
      <point x="32" y="37" type="curve"/>
      <point x="90" y="43"/>
      <point x="122" y="52"/>
      <point x="122" y="88" type="curve" smooth="yes"/>
      <point x="122" y="560" type="line"/>
      <point x="154" y="539" type="line"/>
      <point x="31" y="521" type="line"/>
      <point x="31" y="532"/>
      <point x="31" y="540"/>
      <point x="33" y="548" type="curve"/>
      <point x="92" y="583"/>
      <point x="145" y="613"/>
      <point x="196" y="637" type="curve"/>
      <point x="217" y="628" type="line"/>
    </contour>
  </outline>
</glyph>
<glyph name="two" format="1">
  <advance width="469"/>
  <unicode hex="0032"/>
  <outline>
    <contour>
      <point x="73" y="585" type="curve"/>
      <point x="68" y="547"/>
      <point x="67" y="495"/>
      <point x="68" y="456" type="curve"/>
      <point x="76" y="455"/>
      <point x="90" y="454"/>
      <point x="99" y="455" type="curve"/>
      <point x="114" y="521"/>
      <point x="156" y="550"/>
      <point x="208" y="550" type="curve" smooth="yes"/>
      <point x="262" y="550"/>
      <point x="304" y="510"/>
      <point x="304" y="446" type="curve" smooth="yes"/>
      <point x="304" y="373"/>
      <point x="264" y="310"/>
      <point x="39" y="67" type="curve"/>
      <point x="39" y="52"/>
      <point x="42" y="25"/>
      <point x="48" y="0" type="curve"/>
      <point x="399" y="0" type="line"/>
      <point x="413" y="54"/>
      <point x="418" y="118"/>
      <point x="418" y="168" type="curve"/>
      <point x="410" y="172"/>
      <point x="401" y="174"/>
      <point x="393" y="174" type="curve"/>
      <point x="381" y="101"/>
      <point x="359" y="78"/>
      <point x="297" y="78" type="curve" smooth="yes"/>
      <point x="84" y="78" type="line"/>
      <point x="87" y="53" type="line"/>
      <point x="330" y="299"/>
      <point x="408" y="353"/>
      <point x="408" y="464" type="curve" smooth="yes"/>
      <point x="408" y="560"/>
      <point x="337" y="635"/>
      <point x="235" y="635" type="curve" smooth="yes"/>
      <point x="173" y="635"/>
      <point x="118" y="615"/>
    </contour>
  </outline>
</glyph>
<glyph name="three" format="1">
  <advance width="462"/>
  <unicode hex="0033"/>
  <outline>
    <contour>
      <point x="396" y="489" type="curve" smooth="yes"/>
      <point x="396" y="413"/>
      <point x="332" y="343"/>
      <point x="240" y="317" type="curve"/>
      <point x="240" y="334" type="line"/>
      <point x="358" y="312"/>
      <point x="412" y="248"/>
      <point x="412" y="162" type="curve" smooth="yes"/>
      <point x="412" y="59"/>
      <point x="320" y="-13"/>
      <point x="205" y="-13" type="curve" smooth="yes"/>
      <point x="137" y="-13"/>
      <point x="87" y="13"/>
      <point x="37" y="54" type="curve"/>
      <point x="43" y="72"/>
      <point x="52" y="85"/>
      <point x="62" y="92" type="curve"/>
      <point x="95" y="67"/>
      <point x="136" y="52"/>
      <point x="187" y="52" type="curve" smooth="yes"/>
      <point x="264" y="52"/>
      <point x="315" y="93"/>
      <point x="315" y="160" type="curve" smooth="yes"/>
      <point x="315" y="241"/>
      <point x="259" y="283"/>
      <point x="159" y="289" type="curve"/>
      <point x="159" y="330" type="line"/>
      <point x="242" y="336"/>
      <point x="293" y="392"/>
      <point x="293" y="461" type="curve" smooth="yes"/>
      <point x="293" y="522"/>
      <point x="254" y="562"/>
      <point x="204" y="562" type="curve" smooth="yes"/>
      <point x="151" y="562"/>
      <point x="111" y="533"/>
      <point x="94" y="468" type="curve"/>
      <point x="86" y="467"/>
      <point x="71" y="468"/>
      <point x="63" y="469" type="curve"/>
      <point x="62" y="508"/>
      <point x="63" y="550"/>
      <point x="68" y="588" type="curve"/>
      <point x="116" y="616"/>
      <point x="167" y="636"/>
      <point x="235" y="636" type="curve" smooth="yes"/>
      <point x="324" y="636"/>
      <point x="396" y="574"/>
    </contour>
  </outline>
</glyph>
<glyph name="four" format="1">
  <advance width="492"/>
  <unicode hex="0034"/>
  <outline>
    <contour>
      <point x="307" y="508" type="line"/>
      <point x="80" y="194" type="line"/>
      <point x="69" y="219" type="line"/>
      <point x="285" y="219" type="line"/>
      <point x="285" y="513" type="line"/>
    </contour>
    <contour>
      <point x="371" y="219" type="line"/>
      <point x="460" y="219" type="line"/>
      <point x="466" y="196"/>
      <point x="467" y="183"/>
      <point x="464" y="164" type="curve"/>
      <point x="371" y="164" type="line"/>
      <point x="371" y="29" type="line"/>
      <point x="354" y="59" type="line"/>
      <point x="383" y="43"/>
      <point x="408" y="38"/>
      <point x="436" y="36" type="curve"/>
      <point x="436" y="25"/>
      <point x="435" y="10"/>
      <point x="432" y="0" type="curve"/>
      <point x="219" y="0" type="line"/>
      <point x="218" y="11"/>
      <point x="219" y="27"/>
      <point x="222" y="36" type="curve"/>
      <point x="265" y="42"/>
      <point x="285" y="52"/>
      <point x="285" y="88" type="curve"/>
      <point x="285" y="164" type="line"/>
      <point x="51" y="164" type="line"/>
      <point x="40" y="178"/>
      <point x="31" y="193"/>
      <point x="27" y="211" type="curve"/>
      <point x="321" y="628" type="line"/>
      <point x="371" y="628" type="line"/>
    </contour>
  </outline>
</glyph>
<glyph name="five" format="1">
  <advance width="483"/>
  <unicode hex="0035"/>
  <outline>
    <contour>
      <point x="262" y="395" type="curve" smooth="yes"/>
      <point x="215" y="395"/>
      <point x="175" y="380"/>
      <point x="135" y="351" type="curve"/>
      <point x="156" y="534" type="line"/>
      <point x="394" y="534" type="line"/>
      <point x="407" y="575"/>
      <point x="415" y="613"/>
      <point x="418" y="651" type="curve"/>
      <point x="409" y="654"/>
      <point x="400" y="655"/>
      <point x="393" y="655" type="curve"/>
      <point x="382" y="630"/>
      <point x="360" y="613"/>
      <point x="308" y="613" type="curve" smooth="yes"/>
      <point x="108" y="613" type="line"/>
      <point x="76" y="289" type="line"/>
      <point x="94" y="281" type="line"/>
      <point x="138" y="310"/>
      <point x="178" y="330"/>
      <point x="223" y="330" type="curve" smooth="yes"/>
      <point x="287" y="330"/>
      <point x="334" y="284"/>
      <point x="334" y="203" type="curve" smooth="yes"/>
      <point x="334" y="115"/>
      <point x="274" y="52"/>
      <point x="191" y="52" type="curve" smooth="yes"/>
      <point x="137" y="52"/>
      <point x="100" y="66"/>
      <point x="63" y="93" type="curve"/>
      <point x="51" y="83"/>
      <point x="43" y="71"/>
      <point x="37" y="54" type="curve"/>
      <point x="82" y="14"/>
      <point x="137" y="-12"/>
      <point x="203" y="-12" type="curve" smooth="yes"/>
      <point x="332" y="-12"/>
      <point x="432" y="93"/>
      <point x="432" y="216" type="curve" smooth="yes"/>
      <point x="432" y="334"/>
      <point x="344" y="395"/>
    </contour>
  </outline>
</glyph>
<glyph name="six" format="1">
  <advance width="488"/>
  <unicode hex="0036"/>
  <outline>
    <contour>
      <point x="448" y="215" type="curve" smooth="yes"/>
      <point x="453" y="83"/>
      <point x="347" y="-12"/>
      <point x="244" y="-12" type="curve" smooth="yes"/>
      <point x="139" y="-12"/>
      <point x="59" y="74"/>
      <point x="54" y="219" type="curve" smooth="yes"/>
      <point x="48" y="389"/>
      <point x="158" y="555"/>
      <point x="348" y="637" type="curve"/>
      <point x="372" y="622"/>
      <point x="377" y="610"/>
      <point x="377" y="599" type="curve"/>
      <point x="213" y="518"/>
      <point x="145" y="359"/>
      <point x="150" y="207" type="curve" smooth="yes"/>
      <point x="152" y="113"/>
      <point x="189" y="45"/>
      <point x="247" y="45" type="curve" smooth="yes"/>
      <point x="309" y="45"/>
      <point x="359" y="98"/>
      <point x="356" y="198" type="curve" smooth="yes"/>
      <point x="354" y="274"/>
      <point x="307" y="326"/>
      <point x="247" y="326" type="curve" smooth="yes"/>
      <point x="203" y="326"/>
      <point x="163" y="306"/>
      <point x="122" y="260" type="curve"/>
      <point x="142" y="319" type="line"/>
      <point x="177" y="360"/>
      <point x="233" y="387"/>
      <point x="283" y="387" type="curve" smooth="yes"/>
      <point x="373" y="387"/>
      <point x="445" y="320"/>
    </contour>
  </outline>
</glyph>
<glyph name="seven" format="1">
  <advance width="423"/>
  <unicode hex="0037"/>
  <outline>
    <contour>
      <point x="383" y="618" type="line"/>
      <point x="396" y="600"/>
      <point x="405" y="579"/>
      <point x="408" y="556" type="curve"/>
      <point x="183" y="0" type="line"/>
      <point x="155" y="-4"/>
      <point x="127" y="1"/>
      <point x="108" y="7" type="curve"/>
      <point x="293" y="435" type="line"/>
      <point x="352" y="553" type="line"/>
      <point x="362" y="539" type="line"/>
      <point x="152" y="539" type="line" smooth="yes"/>
      <point x="92" y="539"/>
      <point x="71" y="526"/>
      <point x="60" y="464" type="curve"/>
      <point x="53" y="464"/>
      <point x="43" y="466"/>
      <point x="35" y="470" type="curve"/>
      <point x="35" y="512"/>
      <point x="38" y="577"/>
      <point x="45" y="618" type="curve"/>
    </contour>
  </outline>
</glyph>
<glyph name="eight" format="1">
  <advance width="530"/>
  <unicode hex="0038"/>
  <outline>
    <contour>
      <point x="463" y="483" type="curve" smooth="yes"/>
      <point x="463" y="567"/>
      <point x="390" y="634"/>
      <point x="282" y="634" type="curve" smooth="yes"/>
      <point x="174" y="634"/>
      <point x="69" y="570"/>
      <point x="69" y="470" type="curve" smooth="yes"/>
      <point x="69" y="391"/>
      <point x="165" y="330"/>
      <point x="239" y="298" type="curve" smooth="yes"/>
      <point x="307" y="269"/>
      <point x="384" y="231"/>
      <point x="384" y="149" type="curve" smooth="yes"/>
      <point x="384" y="85"/>
      <point x="341" y="41"/>
      <point x="257" y="41" type="curve" smooth="yes"/>
      <point x="206" y="41"/>
      <point x="150" y="72"/>
      <point x="150" y="141" type="curve" smooth="yes"/>
      <point x="150" y="203"/>
      <point x="187" y="247"/>
      <point x="281" y="301" type="curve" smooth="yes"/>
      <point x="386" y="358"/>
      <point x="463" y="401"/>
    </contour>
    <contour>
      <point x="162" y="487" type="curve" smooth="yes"/>
      <point x="162" y="547"/>
      <point x="202" y="582"/>
      <point x="268" y="582" type="curve" smooth="yes"/>
      <point x="348" y="582"/>
      <point x="374" y="528"/>
      <point x="374" y="479" type="curve" smooth="yes"/>
      <point x="374" y="421"/>
      <point x="325" y="377"/>
      <point x="247" y="333" type="curve" smooth="yes"/>
      <point x="150" y="279"/>
      <point x="60" y="229"/>
      <point x="60" y="142" type="curve" smooth="yes"/>
      <point x="60" y="57"/>
      <point x="147" y="-12"/>
      <point x="255" y="-12" type="curve" smooth="yes"/>
      <point x="384" y="-12"/>
      <point x="474" y="73"/>
      <point x="474" y="157" type="curve" smooth="yes"/>
      <point x="474" y="259"/>
      <point x="378" y="314"/>
      <point x="301" y="349" type="curve" smooth="yes"/>
      <point x="238" y="376"/>
      <point x="162" y="419"/>
    </contour>
  </outline>
</glyph>
<glyph name="nine" format="1">
  <advance width="477"/>
  <unicode hex="0039"/>
  <outline>
    <contour>
      <point x="346" y="305" type="curve"/>
      <point x="365" y="364" type="line"/>
      <point x="319" y="310"/>
      <point x="279" y="298"/>
      <point x="234" y="298" type="curve" smooth="yes"/>
      <point x="171" y="298"/>
      <point x="133" y="356"/>
      <point x="130" y="426" type="curve" smooth="yes"/>
      <point x="126" y="526"/>
      <point x="175" y="579"/>
      <point x="237" y="579" type="curve" smooth="yes"/>
      <point x="294" y="579"/>
      <point x="332" y="511"/>
      <point x="336" y="417" type="curve" smooth="yes"/>
      <point x="343" y="265"/>
      <point x="278" y="106"/>
      <point x="115" y="25" type="curve"/>
      <point x="115" y="14"/>
      <point x="121" y="2"/>
      <point x="145" y="-13" type="curve"/>
      <point x="334" y="69"/>
      <point x="441" y="235"/>
      <point x="432" y="405" type="curve" smooth="yes"/>
      <point x="425" y="550"/>
      <point x="344" y="636"/>
      <point x="238" y="636" type="curve" smooth="yes"/>
      <point x="136" y="636"/>
      <point x="31" y="541"/>
      <point x="38" y="409" type="curve" smooth="yes"/>
      <point x="43" y="311"/>
      <point x="108" y="237"/>
      <point x="194" y="237" type="curve" smooth="yes"/>
      <point x="243" y="237"/>
      <point x="298" y="246"/>
    </contour>
  </outline>
</glyph>
<glyph name="colon" format="1">
  <advance width="289"/>
  <unicode hex="003A"/>
  <outline>
    <contour>
      <point x="204" y="87" type="curve" smooth="yes"/>
      <point x="204" y="54"/>
      <point x="177" y="28"/>
      <point x="144" y="28" type="curve" smooth="yes"/>
      <point x="111" y="28"/>
      <point x="85" y="54"/>
      <point x="85" y="87" type="curve" smooth="yes"/>
      <point x="85" y="120"/>
      <point x="111" y="147"/>
      <point x="144" y="147" type="curve" smooth="yes"/>
      <point x="177" y="147"/>
      <point x="204" y="120"/>
    </contour>
    <contour>
      <point x="204" y="461" type="curve" smooth="yes"/>
      <point x="204" y="428"/>
      <point x="177" y="402"/>
      <point x="144" y="402" type="curve" smooth="yes"/>
      <point x="111" y="402"/>
      <point x="85" y="428"/>
      <point x="85" y="461" type="curve" smooth="yes"/>
      <point x="85" y="495"/>
      <point x="111" y="522"/>
      <point x="144" y="522" type="curve" smooth="yes"/>
      <point x="178" y="522"/>
      <point x="204" y="495"/>
    </contour>
  </outline>
</glyph>
<glyph name="less" format="1">
  <advance width="454"/>
  <unicode hex="003C"/>
  <outline>
    <contour>
      <point x="30" y="294" type="line"/>
      <point x="410" y="90" type="line"/>
      <point x="410" y="163" type="line"/>
      <point x="101" y="326" type="line"/>
      <point x="410" y="489" type="line"/>
      <point x="410" y="562" type="line"/>
      <point x="30" y="358" type="line"/>
    </contour>
  </outline>
</glyph>
<glyph name="equal" format="1">
  <advance width="566"/>
  <unicode hex="003D"/>
  <outline>
    <contour>
      <point x="510" y="442" type="line"/>
      <point x="510" y="375" type="line"/>
      <point x="56" y="375" type="line"/>
      <point x="56" y="442" type="line"/>
    </contour>
    <contour>
      <point x="510" y="260" type="line"/>
      <point x="510" y="193" type="line"/>
      <point x="56" y="193" type="line"/>
      <point x="56" y="260" type="line"/>
    </contour>
  </outline>
</glyph>
<glyph name="greater" format="1">
  <advance width="454"/>
  <unicode hex="003E"/>
  <outline>
    <contour>
      <point x="44" y="562" type="line"/>
      <point x="44" y="489" type="line"/>
      <point x="353" y="326" type="line"/>
      <point x="44" y="163" type="line"/>
      <point x="44" y="90" type="line"/>
      <point x="424" y="294" type="line"/>
      <point x="424" y="358" type="line"/>
    </contour>
  </outline>
</glyph>
<glyph name="question" format="1">
  <advance width="479"/>
  <unicode hex="003F"/>
  <outline>
    <contour>
      <point x="51" y="615" type="curve"/>
      <point x="78" y="588" type="line"/>
      <point x="119" y="618"/>
      <point x="159" y="635"/>
      <point x="208" y="635" type="curve" smooth="yes"/>
      <point x="276" y="635"/>
      <point x="326" y="589"/>
      <point x="326" y="523" type="curve" smooth="yes"/>
      <point x="326" y="468"/>
      <point x="306" y="434"/>
      <point x="257" y="392" type="curve" smooth="yes"/>
      <point x="202" y="344" type="line" smooth="yes"/>
      <point x="158" y="306"/>
      <point x="153" y="282"/>
      <point x="163" y="222" type="curve" smooth="yes"/>
      <point x="175" y="139" type="line"/>
      <point x="217" y="139" type="line"/>
      <point x="217" y="228" type="line" smooth="yes"/>
      <point x="217" y="270"/>
      <point x="224" y="285"/>
      <point x="257" y="307" type="curve" smooth="yes"/>
      <point x="324" y="354" type="line" smooth="yes"/>
      <point x="394" y="401"/>
      <point x="429" y="452"/>
      <point x="429" y="529" type="curve" smooth="yes"/>
      <point x="429" y="630"/>
      <point x="351" y="710"/>
      <point x="243" y="710" type="curve" smooth="yes"/>
      <point x="164" y="710"/>
      <point x="107" y="676"/>
    </contour>
    <contour>
      <point x="144" y="40" type="curve" smooth="yes"/>
      <point x="144" y="9"/>
      <point x="169" y="-16"/>
      <point x="199" y="-16" type="curve" smooth="yes"/>
      <point x="231" y="-16"/>
      <point x="256" y="9"/>
      <point x="256" y="40" type="curve" smooth="yes"/>
      <point x="256" y="70"/>
      <point x="231" y="96"/>
      <point x="199" y="96" type="curve" smooth="yes"/>
      <point x="169" y="96"/>
      <point x="144" y="70"/>
    </contour>
  </outline>
</glyph>
<glyph name="at" format="1">
  <advance width="958"/>
  <unicode hex="0040"/>
  <outline>
    <contour>
      <point x="907" y="288" type="curve" smooth="yes"/>
      <point x="902" y="109"/>
      <point x="757" y="-12"/>
      <point x="627" y="-12" type="curve" smooth="yes"/>
      <point x="566" y="-12"/>
      <point x="530" y="21"/>
      <point x="538" y="89" type="curve" smooth="yes"/>
      <point x="560" y="276" type="line" smooth="yes"/>
      <point x="566" y="326"/>
      <point x="550" y="358"/>
      <point x="505" y="358" type="curve" smooth="yes"/>
      <point x="447" y="358"/>
      <point x="394" y="302"/>
      <point x="377" y="198" type="curve" smooth="yes"/>
      <point x="359" y="86"/>
      <point x="398" y="49"/>
      <point x="440" y="49" type="curve" smooth="yes"/>
      <point x="498" y="49"/>
      <point x="535" y="115"/>
      <point x="570" y="184" type="curve"/>
      <point x="566" y="116" type="line"/>
      <point x="540" y="48"/>
      <point x="480" y="-13"/>
      <point x="407" y="-13" type="curve" smooth="yes"/>
      <point x="318" y="-13"/>
      <point x="255" y="66"/>
      <point x="276" y="191" type="curve" smooth="yes"/>
      <point x="298" y="319"/>
      <point x="400" y="417"/>
      <point x="516" y="417" type="curve" smooth="yes"/>
      <point x="614" y="417"/>
      <point x="667" y="358"/>
      <point x="655" y="261" type="curve" smooth="yes"/>
      <point x="635" y="90" type="line" smooth="yes"/>
      <point x="631" y="57"/>
      <point x="635" y="40"/>
      <point x="661" y="40" type="curve" smooth="yes"/>
      <point x="722" y="40"/>
      <point x="812" y="118"/>
      <point x="817" y="262" type="curve" smooth="yes"/>
      <point x="822" y="423"/>
      <point x="725" y="537"/>
      <point x="547" y="537" type="curve" smooth="yes"/>
      <point x="308" y="537"/>
      <point x="148" y="350"/>
      <point x="141" y="133" type="curve" smooth="yes"/>
      <point x="135" y="-46"/>
      <point x="251" y="-125"/>
      <point x="384" y="-125" type="curve" smooth="yes"/>
      <point x="455" y="-125"/>
      <point x="515" y="-115"/>
      <point x="575" y="-96" type="curve"/>
      <point x="583" y="-107"/>
      <point x="588" y="-123"/>
      <point x="587" y="-139" type="curve"/>
      <point x="518" y="-169"/>
      <point x="450" y="-186"/>
      <point x="365" y="-186" type="curve" smooth="yes"/>
      <point x="199" y="-186"/>
      <point x="44" y="-85"/>
      <point x="51" y="128" type="curve" smooth="yes"/>
      <point x="58" y="390"/>
      <point x="281" y="596"/>
      <point x="564" y="596" type="curve" smooth="yes"/>
      <point x="768" y="596"/>
      <point x="913" y="470"/>
    </contour>
  </outline>
</glyph>
<glyph name="A" format="1">
  <advance width="597"/>
  <unicode hex="0041"/>
  <outline>
    <contour>
      <point x="298" y="623" type="move" name="top"/>
    </contour>
    <contour>
      <point x="594" y="0" type="move" name="ogonek"/>
    </contour>
    <contour>
      <point x="519" y="95" type="line"/>
      <point x="532" y="53"/>
      <point x="553" y="40"/>
      <point x="599" y="37" type="curve"/>
      <point x="598" y="24"/>
      <point x="597" y="12"/>
      <point x="594" y="0" type="curve"/>
      <point x="352" y="0" type="line"/>
      <point x="352" y="13"/>
      <point x="353" y="25"/>
      <point x="356" y="37" type="curve"/>
      <point x="392" y="44"/>
      <point x="427" y="53"/>
      <point x="449" y="76" type="curve"/>
      <point x="433" y="44" type="line"/>
      <point x="257" y="600" type="line"/>
      <point x="283" y="590" type="line"/>
      <point x="265" y="505" type="line"/>
      <point x="113" y="25" type="line"/>
      <point x="95" y="70" type="line"/>
      <point x="125" y="43"/>
      <point x="158" y="38"/>
      <point x="198" y="37" type="curve"/>
      <point x="198" y="24"/>
      <point x="196" y="12"/>
      <point x="194" y="0" type="curve"/>
      <point x="-2" y="0" type="line"/>
      <point x="-2" y="13"/>
      <point x="-1" y="26"/>
      <point x="2" y="37" type="curve"/>
      <point x="47" y="45"/>
      <point x="65" y="65"/>
      <point x="76" y="96" type="curve" smooth="yes"/>
      <point x="252" y="625" type="line"/>
      <point x="275" y="632"/>
      <point x="315" y="635"/>
      <point x="344" y="636" type="curve"/>
    </contour>
    <contour>
      <point x="397" y="211" type="line"/>
      <point x="163" y="211" type="line"/>
      <point x="163" y="257" type="line"/>
      <point x="397" y="257" type="line"/>
    </contour>
  </outline>
</glyph>
<glyph name="B" format="1">
  <advance width="587"/>
  <unicode hex="0042"/>
  <outline>
    <contour>
      <point x="504" y="459" type="curve" smooth="yes"/>
      <point x="504" y="383"/>
      <point x="453" y="334"/>
      <point x="378" y="314" type="curve"/>
      <point x="369" y="332" type="line"/>
      <point x="476" y="325"/>
      <point x="532" y="253"/>
      <point x="532" y="169" type="curve" smooth="yes"/>
      <point x="532" y="76"/>
      <point x="457" y="0"/>
      <point x="292" y="0" type="curve" smooth="yes"/>
      <point x="37" y="0" type="line"/>
      <point x="36" y="12"/>
      <point x="37" y="27"/>
      <point x="40" y="37" type="curve"/>
      <point x="82" y="43"/>
      <point x="103" y="52"/>
      <point x="103" y="88" type="curve" smooth="yes"/>
      <point x="103" y="583" type="line"/>
      <point x="108" y="570" type="line"/>
      <point x="86" y="581"/>
      <point x="58" y="586"/>
      <point x="35" y="586" type="curve"/>
      <point x="34" y="597"/>
      <point x="36" y="613"/>
      <point x="38" y="623" type="curve"/>
      <point x="270" y="623" type="line" smooth="yes"/>
      <point x="444" y="623"/>
      <point x="504" y="545"/>
    </contour>
    <contour>
      <point x="189" y="581" type="line"/>
      <point x="200" y="596" type="line"/>
      <point x="200" y="27" type="line"/>
      <point x="187" y="43" type="line"/>
      <point x="289" y="43" type="line" smooth="yes"/>
      <point x="385" y="43"/>
      <point x="428" y="95"/>
      <point x="428" y="169" type="curve" smooth="yes"/>
      <point x="428" y="244"/>
      <point x="385" y="296"/>
      <point x="289" y="296" type="curve" smooth="yes"/>
      <point x="183" y="296" type="line"/>
      <point x="183" y="340" type="line"/>
      <point x="314" y="339" type="line"/>
      <point x="367" y="358"/>
      <point x="401" y="399"/>
      <point x="401" y="459" type="curve" smooth="yes"/>
      <point x="401" y="530"/>
      <point x="361" y="581"/>
      <point x="270" y="581" type="curve" smooth="yes"/>
    </contour>
  </outline>
</glyph>
<glyph name="C" format="1">
  <advance width="594"/>
  <unicode hex="0043"/>
  <outline>
    <contour>
      <point x="380" y="621" type="move" name="top"/>
    </contour>
    <contour>
      <point x="544" y="604" type="curve"/>
      <point x="543" y="560"/>
      <point x="537" y="508"/>
      <point x="526" y="459" type="curve"/>
      <point x="524" y="459"/>
      <point x="499" y="459"/>
      <point x="496" y="460" type="curve"/>
      <point x="494" y="533"/>
      <point x="447" y="579"/>
      <point x="375" y="579" type="curve" smooth="yes"/>
      <point x="250" y="579"/>
      <point x="161" y="481"/>
      <point x="161" y="313" type="curve" smooth="yes"/>
      <point x="161" y="143"/>
      <point x="256" y="55"/>
      <point x="375" y="55" type="curve" smooth="yes"/>
      <point x="433" y="55"/>
      <point x="487" y="70"/>
      <point x="536" y="103" type="curve"/>
      <point x="559" y="78" type="line"/>
      <point x="507" y="24"/>
      <point x="434" y="-12"/>
      <point x="347" y="-12" type="curve" smooth="yes"/>
      <point x="193" y="-12"/>
      <point x="53" y="102"/>
      <point x="53" y="306" type="curve" smooth="yes"/>
      <point x="53" y="505"/>
      <point x="199" y="636"/>
      <point x="378" y="636" type="curve" smooth="yes"/>
      <point x="438" y="636"/>
      <point x="505" y="623"/>
    </contour>
  </outline>
</glyph>
<glyph name="D" format="1">
  <advance width="626"/>
  <unicode hex="0044"/>
  <outline>
    <contour>
      <point x="310" y="621" type="move" name="top"/>
    </contour>
    <contour>
      <point x="280" y="623" type="line"/>
      <point x="464" y="623"/>
      <point x="599" y="513"/>
      <point x="599" y="312" type="curve" smooth="yes"/>
      <point x="599" y="110"/>
      <point x="468" y="0"/>
      <point x="288" y="0" type="curve" smooth="yes"/>
      <point x="37" y="0" type="line"/>
      <point x="36" y="12"/>
      <point x="37" y="27"/>
      <point x="41" y="37" type="curve"/>
      <point x="83" y="43"/>
      <point x="104" y="52"/>
      <point x="104" y="88" type="curve" smooth="yes"/>
      <point x="104" y="581" type="line"/>
      <point x="108" y="571" type="line"/>
      <point x="86" y="582"/>
      <point x="58" y="586"/>
      <point x="35" y="586" type="curve"/>
      <point x="34" y="597"/>
      <point x="36" y="613"/>
      <point x="38" y="623" type="curve"/>
    </contour>
    <contour>
      <point x="201" y="581" type="line"/>
      <point x="201" y="43" type="line"/>
      <point x="274" y="43" type="line" smooth="yes"/>
      <point x="418" y="43"/>
      <point x="492" y="147"/>
      <point x="492" y="312" type="curve" smooth="yes"/>
      <point x="492" y="476"/>
      <point x="418" y="581"/>
      <point x="270" y="581" type="curve" smooth="yes"/>
    </contour>
  </outline>
</glyph>
<glyph name="E" format="1">
  <advance width="541"/>
  <unicode hex="0045"/>
  <outline>
    <contour>
      <point x="290" y="623" type="move" name="top"/>
    </contour>
    <contour>
      <point x="496" y="0" type="move" name="ogonek"/>
    </contour>
    <contour>
      <point x="277" y="0" type="move" name="bottom"/>
    </contour>
    <contour>
      <point x="391" y="286" type="line"/>
      <point x="357" y="286" type="line"/>
      <point x="180" y="293" type="line"/>
      <point x="180" y="336" type="line"/>
      <point x="357" y="346" type="line"/>
      <point x="391" y="346" type="line"/>
    </contour>
    <contour>
      <point x="478" y="474" type="curve"/>
      <point x="471" y="473"/>
      <point x="450" y="472"/>
      <point x="439" y="472" type="curve"/>
      <point x="433" y="541"/>
      <point x="424" y="581"/>
      <point x="354" y="581" type="curve" smooth="yes"/>
      <point x="175" y="581" type="line"/>
      <point x="202" y="606" type="line"/>
      <point x="202" y="18" type="line"/>
      <point x="174" y="43" type="line"/>
      <point x="364" y="43" type="line" smooth="yes"/>
      <point x="434" y="43"/>
      <point x="444" y="83"/>
      <point x="451" y="155" type="curve"/>
      <point x="463" y="156"/>
      <point x="484" y="155"/>
      <point x="493" y="153" type="curve"/>
      <point x="497" y="101"/>
      <point x="498" y="52"/>
      <point x="496" y="0" type="curve"/>
      <point x="38" y="0" type="line"/>
      <point x="37" y="12"/>
      <point x="38" y="27"/>
      <point x="42" y="37" type="curve"/>
      <point x="84" y="43"/>
      <point x="105" y="52"/>
      <point x="105" y="88" type="curve" smooth="yes"/>
      <point x="105" y="585" type="line"/>
      <point x="109" y="570" type="line"/>
      <point x="87" y="581"/>
      <point x="59" y="586"/>
      <point x="35" y="586" type="curve"/>
      <point x="35" y="597"/>
      <point x="36" y="613"/>
      <point x="39" y="623" type="curve"/>
      <point x="483" y="623" type="line"/>
      <point x="485" y="573"/>
      <point x="484" y="523"/>
    </contour>
  </outline>
</glyph>
<glyph name="F" format="1">
  <advance width="512"/>
  <unicode hex="0046"/>
  <outline>
    <contour>
      <point x="385" y="266" type="line"/>
      <point x="349" y="266" type="line"/>
      <point x="180" y="273" type="line"/>
      <point x="180" y="316" type="line"/>
      <point x="349" y="326" type="line"/>
      <point x="385" y="326" type="line"/>
    </contour>
    <contour>
      <point x="105" y="585" type="line"/>
      <point x="109" y="570" type="line"/>
      <point x="88" y="581"/>
      <point x="59" y="586"/>
      <point x="35" y="586" type="curve"/>
      <point x="35" y="597"/>
      <point x="36" y="613"/>
      <point x="39" y="623" type="curve"/>
      <point x="483" y="623" type="line"/>
      <point x="485" y="573"/>
      <point x="484" y="523"/>
      <point x="478" y="474" type="curve"/>
      <point x="471" y="473"/>
      <point x="450" y="472"/>
      <point x="439" y="472" type="curve"/>
      <point x="433" y="541"/>
      <point x="424" y="581"/>
      <point x="355" y="581" type="curve" smooth="yes"/>
      <point x="190" y="581" type="line"/>
      <point x="202" y="591" type="line"/>
      <point x="202" y="30" type="line"/>
      <point x="197" y="61" type="line"/>
      <point x="230" y="48"/>
      <point x="270" y="42"/>
      <point x="305" y="38" type="curve"/>
      <point x="305" y="26"/>
      <point x="304" y="11"/>
      <point x="302" y="0" type="curve"/>
      <point x="36" y="0" type="line"/>
      <point x="35" y="12"/>
      <point x="36" y="27"/>
      <point x="40" y="38" type="curve"/>
      <point x="84" y="44"/>
      <point x="105" y="54"/>
      <point x="105" y="90" type="curve" smooth="yes"/>
    </contour>
  </outline>
</glyph>
<glyph name="G" format="1">
  <advance width="649"/>
  <unicode hex="0047"/>
  <outline>
    <contour>
      <point x="351" y="623" type="move" name="top"/>
    </contour>
    <contour>
      <point x="337" y="0" type="move" name="bottom"/>
    </contour>
    <contour>
      <point x="565" y="604" type="curve"/>
      <point x="564" y="563"/>
      <point x="557" y="511"/>
      <point x="547" y="462" type="curve"/>
      <point x="540" y="462"/>
      <point x="526" y="462"/>
      <point x="516" y="463" type="curve"/>
      <point x="508" y="538"/>
      <point x="453" y="578"/>
      <point x="381" y="578" type="curve" smooth="yes"/>
      <point x="243" y="578"/>
      <point x="161" y="477"/>
      <point x="161" y="313" type="curve" smooth="yes"/>
      <point x="161" y="132"/>
      <point x="244" y="47"/>
      <point x="357" y="47" type="curve" smooth="yes"/>
      <point x="403" y="47"/>
      <point x="449" y="61"/>
      <point x="484" y="82" type="curve"/>
      <point x="475" y="63" type="line"/>
      <point x="475" y="274" type="line"/>
      <point x="496" y="248" type="line"/>
      <point x="461" y="264"/>
      <point x="432" y="269"/>
      <point x="399" y="271" type="curve"/>
      <point x="399" y="282"/>
      <point x="400" y="299"/>
      <point x="402" y="311" type="curve"/>
      <point x="631" y="311" type="line"/>
      <point x="632" y="298"/>
      <point x="630" y="281"/>
      <point x="627" y="271" type="curve"/>
      <point x="586" y="263"/>
      <point x="562" y="256"/>
      <point x="562" y="219" type="curve" smooth="yes"/>
      <point x="562" y="0" type="line"/>
      <point x="512" y="0" type="line"/>
      <point x="484" y="45" type="line"/>
      <point x="509" y="45" type="line"/>
      <point x="464" y="12"/>
      <point x="403" y="-12"/>
      <point x="338" y="-12" type="curve" smooth="yes"/>
      <point x="188" y="-12"/>
      <point x="53" y="101"/>
      <point x="53" y="306" type="curve" smooth="yes"/>
      <point x="53" y="505"/>
      <point x="206" y="636"/>
      <point x="381" y="636" type="curve" smooth="yes"/>
      <point x="453" y="636"/>
      <point x="515" y="623"/>
    </contour>
  </outline>
</glyph>
<glyph name="H" format="1">
  <advance width="679"/>
  <unicode hex="0048"/>
  <outline>
    <contour>
      <point x="163" y="336" type="line"/>
      <point x="523" y="336" type="line"/>
      <point x="523" y="286" type="line"/>
      <point x="163" y="286" type="line"/>
    </contour>
    <contour>
      <point x="202" y="23" type="line"/>
      <point x="185" y="59" type="line"/>
      <point x="214" y="43"/>
      <point x="244" y="38"/>
      <point x="270" y="37" type="curve"/>
      <point x="271" y="25"/>
      <point x="269" y="11"/>
      <point x="267" y="0" type="curve"/>
      <point x="38" y="0" type="line"/>
      <point x="37" y="12"/>
      <point x="38" y="27"/>
      <point x="42" y="37" type="curve"/>
      <point x="84" y="43"/>
      <point x="105" y="52"/>
      <point x="105" y="88" type="curve" smooth="yes"/>
      <point x="105" y="586" type="line"/>
      <point x="120" y="565" type="line"/>
      <point x="92" y="580"/>
      <point x="63" y="585"/>
      <point x="35" y="586" type="curve"/>
      <point x="35" y="597"/>
      <point x="36" y="613"/>
      <point x="39" y="623" type="curve"/>
      <point x="268" y="623" type="line"/>
      <point x="268" y="612"/>
      <point x="268" y="597"/>
      <point x="265" y="586" type="curve"/>
      <point x="223" y="581"/>
      <point x="202" y="571"/>
      <point x="202" y="536" type="curve" smooth="yes"/>
    </contour>
    <contour>
      <point x="576" y="23" type="line"/>
      <point x="560" y="59" type="line"/>
      <point x="588" y="43"/>
      <point x="618" y="38"/>
      <point x="645" y="37" type="curve"/>
      <point x="645" y="25"/>
      <point x="644" y="11"/>
      <point x="642" y="0" type="curve"/>
      <point x="412" y="0" type="line"/>
      <point x="412" y="12"/>
      <point x="412" y="27"/>
      <point x="415" y="37" type="curve"/>
      <point x="457" y="43"/>
      <point x="478" y="52"/>
      <point x="478" y="88" type="curve" smooth="yes"/>
      <point x="478" y="586" type="line"/>
      <point x="495" y="565" type="line"/>
      <point x="466" y="580"/>
      <point x="436" y="585"/>
      <point x="410" y="586" type="curve"/>
      <point x="409" y="597"/>
      <point x="411" y="613"/>
      <point x="413" y="623" type="curve"/>
      <point x="643" y="623" type="line"/>
      <point x="644" y="612"/>
      <point x="643" y="597"/>
      <point x="639" y="586" type="curve"/>
      <point x="596" y="581"/>
      <point x="576" y="571"/>
      <point x="576" y="536" type="curve" smooth="yes"/>
    </contour>
  </outline>
</glyph>
<glyph name="J" format="1">
  <advance width="297"/>
  <unicode hex="004A"/>
  <outline>
    <contour>
      <point x="202" y="24" type="line"/>
      <point x="202" y="-111"/>
      <point x="128" y="-181"/>
      <point x="12" y="-216" type="curve"/>
      <point x="5" y="-209"/>
      <point x="-5" y="-198"/>
      <point x="-10" y="-189" type="curve"/>
      <point x="89" y="-134"/>
      <point x="105" y="-72"/>
      <point x="105" y="23" type="curve" smooth="yes"/>
      <point x="105" y="586" type="line"/>
      <point x="120" y="565" type="line"/>
      <point x="92" y="580"/>
      <point x="63" y="585"/>
      <point x="35" y="586" type="curve"/>
      <point x="35" y="597"/>
      <point x="36" y="613"/>
      <point x="39" y="623" type="curve"/>
      <point x="268" y="623" type="line"/>
      <point x="268" y="612"/>
      <point x="268" y="597"/>
      <point x="265" y="586" type="curve"/>
      <point x="223" y="581"/>
      <point x="202" y="571"/>
      <point x="202" y="536" type="curve" smooth="yes"/>
    </contour>
  </outline>
</glyph>
<glyph name="K" format="1">
  <advance width="641"/>
  <unicode hex="004B"/>
  <outline>
    <contour>
      <point x="330" y="623" type="move" name="top"/>
    </contour>
    <contour>
      <point x="330" y="0" type="move" name="bottom"/>
    </contour>
    <contour>
      <point x="265" y="586" type="curve"/>
      <point x="223" y="581"/>
      <point x="202" y="571"/>
      <point x="202" y="536" type="curve" smooth="yes"/>
      <point x="202" y="23" type="line"/>
      <point x="185" y="59" type="line"/>
      <point x="214" y="43"/>
      <point x="244" y="38"/>
      <point x="270" y="37" type="curve"/>
      <point x="271" y="25"/>
      <point x="269" y="11"/>
      <point x="267" y="0" type="curve"/>
      <point x="38" y="0" type="line"/>
      <point x="37" y="12"/>
      <point x="38" y="27"/>
      <point x="42" y="37" type="curve"/>
      <point x="84" y="43"/>
      <point x="105" y="52"/>
      <point x="105" y="88" type="curve" smooth="yes"/>
      <point x="105" y="586" type="line"/>
      <point x="120" y="565" type="line"/>
      <point x="92" y="580"/>
      <point x="63" y="585"/>
      <point x="35" y="586" type="curve"/>
      <point x="35" y="597"/>
      <point x="36" y="613"/>
      <point x="39" y="623" type="curve"/>
      <point x="268" y="623" type="line"/>
      <point x="268" y="612"/>
      <point x="268" y="597"/>
    </contour>
    <contour>
      <point x="594" y="587" type="curve"/>
      <point x="551" y="587"/>
      <point x="523" y="575"/>
      <point x="492" y="545" type="curve" smooth="yes"/>
      <point x="172" y="227" type="line"/>
      <point x="126" y="245" type="line"/>
      <point x="453" y="576" type="line"/>
      <point x="461" y="564" type="line"/>
      <point x="436" y="582"/>
      <point x="410" y="585"/>
      <point x="382" y="587" type="curve"/>
      <point x="380" y="597"/>
      <point x="382" y="613"/>
      <point x="386" y="623" type="curve"/>
      <point x="597" y="623" type="line"/>
      <point x="597" y="610"/>
      <point x="597" y="598"/>
    </contour>
    <contour>
      <point x="599" y="38" type="curve"/>
      <point x="600" y="27"/>
      <point x="598" y="13"/>
      <point x="594" y="0" type="curve"/>
      <point x="447" y="0" type="line"/>
      <point x="260" y="264" type="line" smooth="yes"/>
      <point x="249" y="280"/>
      <point x="241" y="286"/>
      <point x="221" y="285" type="curve"/>
      <point x="276" y="353" type="line"/>
      <point x="314" y="352"/>
      <point x="334" y="335"/>
      <point x="354" y="305" type="curve" smooth="yes"/>
      <point x="500" y="97" type="line" smooth="yes"/>
      <point x="533" y="50"/>
      <point x="554" y="41"/>
    </contour>
  </outline>
</glyph>
<glyph name="L" format="1">
  <advance width="523"/>
  <unicode hex="004C"/>
  <outline>
    <contour>
      <point x="317" y="623" type="move" name="commaaccent"/>
    </contour>
    <contour>
      <point x="159" y="621" type="move" name="top"/>
    </contour>
    <contour>
      <point x="262" y="0" type="move" name="bottom"/>
    </contour>
    <contour>
      <point x="263" y="586" type="curve"/>
      <point x="222" y="581"/>
      <point x="201" y="571"/>
      <point x="201" y="536" type="curve" smooth="yes"/>
      <point x="201" y="17" type="line"/>
      <point x="175" y="43" type="line"/>
      <point x="374" y="43" type="line" smooth="yes"/>
      <point x="442" y="43"/>
      <point x="452" y="82"/>
      <point x="458" y="150" type="curve"/>
      <point x="469" y="150"/>
      <point x="485" y="150"/>
      <point x="493" y="149" type="curve"/>
      <point x="498" y="99"/>
      <point x="500" y="49"/>
      <point x="497" y="0" type="curve"/>
      <point x="37" y="0" type="line"/>
      <point x="36" y="12"/>
      <point x="37" y="27"/>
      <point x="41" y="37" type="curve"/>
      <point x="83" y="43"/>
      <point x="104" y="52"/>
      <point x="104" y="88" type="curve" smooth="yes"/>
      <point x="104" y="586" type="line"/>
      <point x="119" y="565" type="line"/>
      <point x="91" y="580"/>
      <point x="62" y="585"/>
      <point x="35" y="586" type="curve"/>
      <point x="34" y="597"/>
      <point x="36" y="613"/>
      <point x="38" y="623" type="curve"/>
      <point x="267" y="623" type="line"/>
      <point x="268" y="612"/>
      <point x="267" y="597"/>
    </contour>
  </outline>
</glyph>
<glyph name="M" format="1">
  <advance width="842"/>
  <unicode hex="004D"/>
  <outline>
    <contour>
      <point x="252" y="623" type="line"/>
      <point x="426" y="131" type="line"/>
      <point x="396" y="121" type="line"/>
      <point x="594" y="623" type="line"/>
      <point x="761" y="623" type="line"/>
      <point x="764" y="611"/>
      <point x="765" y="599"/>
      <point x="764" y="586" type="curve"/>
      <point x="731" y="582"/>
      <point x="710" y="571"/>
      <point x="712" y="533" type="curve" smooth="yes"/>
      <point x="745" y="37" type="line"/>
      <point x="726" y="57" type="line"/>
      <point x="759" y="42"/>
      <point x="787" y="38"/>
      <point x="818" y="37" type="curve"/>
      <point x="819" y="26"/>
      <point x="819" y="12"/>
      <point x="818" y="0" type="curve"/>
      <point x="575" y="0" type="line"/>
      <point x="574" y="13"/>
      <point x="574" y="26"/>
      <point x="575" y="37" type="curve"/>
      <point x="616" y="43"/>
      <point x="647" y="51"/>
      <point x="646" y="88" type="curve" smooth="yes"/>
      <point x="621" y="606" type="line"/>
      <point x="641" y="582" type="line"/>
      <point x="592" y="452" type="line"/>
      <point x="412" y="0" type="line"/>
      <point x="383" y="0" type="line"/>
      <point x="220" y="452" type="line"/>
      <point x="174" y="582" type="line"/>
      <point x="190" y="578" type="line"/>
      <point x="151" y="23" type="line"/>
      <point x="131" y="60" type="line"/>
      <point x="159" y="42"/>
      <point x="195" y="38"/>
      <point x="227" y="37" type="curve"/>
      <point x="226" y="26"/>
      <point x="224" y="12"/>
      <point x="222" y="0" type="curve"/>
      <point x="19" y="0" type="line"/>
      <point x="20" y="13"/>
      <point x="21" y="26"/>
      <point x="24" y="37" type="curve"/>
      <point x="65" y="43"/>
      <point x="94" y="56"/>
      <point x="96" y="92" type="curve" smooth="yes"/>
      <point x="128" y="574" type="line"/>
      <point x="110" y="581"/>
      <point x="97" y="584"/>
      <point x="75" y="585" type="curve"/>
      <point x="74" y="599"/>
      <point x="75" y="612"/>
      <point x="79" y="623" type="curve"/>
    </contour>
  </outline>
</glyph>
<glyph name="N" format="1">
  <advance width="690"/>
  <unicode hex="004E"/>
  <outline>
    <contour>
      <point x="360" y="623" type="move" name="top"/>
    </contour>
    <contour>
      <point x="357" y="0" type="move" name="bottom"/>
    </contour>
    <contour>
      <point x="458" y="281" type="line"/>
      <point x="555" y="135" type="line"/>
      <point x="530" y="90" type="line"/>
      <point x="530" y="586" type="line"/>
      <point x="535" y="570" type="line"/>
      <point x="513" y="581"/>
      <point x="480" y="585"/>
      <point x="456" y="586" type="curve"/>
      <point x="455" y="597"/>
      <point x="457" y="613"/>
      <point x="459" y="623" type="curve"/>
      <point x="658" y="623" type="line"/>
      <point x="659" y="612"/>
      <point x="658" y="597"/>
      <point x="655" y="586" type="curve"/>
      <point x="612" y="581"/>
      <point x="587" y="566"/>
      <point x="587" y="531" type="curve" smooth="yes"/>
      <point x="587" y="0" type="line"/>
      <point x="545" y="0" type="line"/>
      <point x="224" y="438" type="line"/>
      <point x="143" y="558" type="line"/>
      <point x="169" y="572" type="line"/>
      <point x="169" y="30" type="line"/>
      <point x="164" y="53" type="line"/>
      <point x="186" y="42"/>
      <point x="220" y="38"/>
      <point x="243" y="37" type="curve"/>
      <point x="244" y="25"/>
      <point x="242" y="11"/>
      <point x="240" y="0" type="curve"/>
      <point x="42" y="0" type="line"/>
      <point x="41" y="12"/>
      <point x="42" y="27"/>
      <point x="45" y="37" type="curve"/>
      <point x="88" y="43"/>
      <point x="112" y="57"/>
      <point x="112" y="92" type="curve" smooth="yes"/>
      <point x="112" y="587" type="line"/>
      <point x="125" y="569" type="line"/>
      <point x="102" y="583"/>
      <point x="72" y="586"/>
      <point x="42" y="587" type="curve"/>
      <point x="43" y="599"/>
      <point x="44" y="612"/>
      <point x="47" y="623" type="curve"/>
      <point x="207" y="623" type="line"/>
    </contour>
  </outline>
</glyph>
<glyph name="O" format="1">
  <advance width="675"/>
  <unicode hex="004F"/>
  <outline>
    <contour>
      <point x="338" y="623" type="move" name="top"/>
    </contour>
    <contour>
      <point x="337" y="-13" type="curve" smooth="yes"/>
      <point x="165" y="-13"/>
      <point x="54" y="119"/>
      <point x="54" y="310" type="curve" smooth="yes"/>
      <point x="54" y="500"/>
      <point x="164" y="636"/>
      <point x="337" y="636" type="curve" smooth="yes"/>
      <point x="508" y="636"/>
      <point x="622" y="500"/>
      <point x="622" y="310" type="curve" smooth="yes"/>
      <point x="622" y="119"/>
      <point x="508" y="-13"/>
    </contour>
    <contour>
      <point x="507" y="311" type="curve" smooth="yes"/>
      <point x="504" y="506"/>
      <point x="433" y="589"/>
      <point x="330" y="589" type="curve" smooth="yes"/>
      <point x="226" y="589"/>
      <point x="164" y="488"/>
      <point x="168" y="310" type="curve" smooth="yes"/>
      <point x="171" y="109"/>
      <point x="239" y="34"/>
      <point x="343" y="34" type="curve" smooth="yes"/>
      <point x="448" y="34"/>
      <point x="511" y="124"/>
    </contour>
  </outline>
</glyph>
<glyph name="P" format="1">
  <advance width="546"/>
  <unicode hex="0050"/>
  <outline>
    <contour>
      <point x="527" y="441" type="curve" smooth="yes"/>
      <point x="527" y="342"/>
      <point x="436" y="262"/>
      <point x="296" y="262" type="curve" smooth="yes"/>
      <point x="185" y="262" type="line"/>
      <point x="181" y="273"/>
      <point x="180" y="291"/>
      <point x="180" y="304" type="curve"/>
      <point x="276" y="304" type="line" smooth="yes"/>
      <point x="372" y="304"/>
      <point x="419" y="363"/>
      <point x="419" y="441" type="curve" smooth="yes"/>
      <point x="419" y="523"/>
      <point x="373" y="580"/>
      <point x="276" y="580" type="curve" smooth="yes"/>
      <point x="189" y="580" type="line"/>
      <point x="201" y="590" type="line"/>
      <point x="201" y="39" type="line"/>
      <point x="195" y="59" type="line"/>
      <point x="225" y="46"/>
      <point x="262" y="39"/>
      <point x="296" y="37" type="curve"/>
      <point x="296" y="25"/>
      <point x="295" y="11"/>
      <point x="292" y="0" type="curve"/>
      <point x="37" y="0" type="line"/>
      <point x="36" y="12"/>
      <point x="37" y="27"/>
      <point x="41" y="37" type="curve"/>
      <point x="83" y="43"/>
      <point x="104" y="52"/>
      <point x="104" y="88" type="curve" smooth="yes"/>
      <point x="104" y="585" type="line"/>
      <point x="120" y="565" type="line"/>
      <point x="91" y="579"/>
      <point x="62" y="586"/>
      <point x="35" y="586" type="curve"/>
      <point x="34" y="597"/>
      <point x="36" y="613"/>
      <point x="38" y="623" type="curve"/>
      <point x="295" y="623" type="line" smooth="yes"/>
      <point x="435" y="623"/>
      <point x="527" y="542"/>
    </contour>
  </outline>
</glyph>
<glyph name="Q" format="1">
  <advance width="675"/>
  <unicode hex="0051"/>
  <outline>
    <contour>
      <point x="392" y="0" type="line"/>
      <point x="403" y="-52"/>
      <point x="428" y="-95"/>
      <point x="466" y="-95" type="curve" smooth="yes"/>
      <point x="492" y="-95"/>
      <point x="531" y="-87"/>
      <point x="561" y="-75" type="curve"/>
      <point x="576" y="-104" type="line"/>
      <point x="537" y="-132"/>
      <point x="489" y="-154"/>
      <point x="435" y="-154" type="curve" smooth="yes"/>
      <point x="368" y="-154"/>
      <point x="311" y="-82"/>
      <point x="294" y="-4" type="curve"/>
    </contour>
    <component base="O"/>
  </outline>
</glyph>
<glyph name="R" format="1">
  <advance width="606"/>
  <unicode hex="0052"/>
  <outline>
    <contour>
      <point x="309" y="621" type="move" name="top"/>
    </contour>
    <contour>
      <point x="318" y="0" type="move" name="bottom"/>
    </contour>
    <contour>
      <point x="509" y="455" type="curve" smooth="yes"/>
      <point x="509" y="355"/>
      <point x="435" y="288"/>
      <point x="296" y="288" type="curve" smooth="yes"/>
      <point x="175" y="288" type="line"/>
      <point x="172" y="299"/>
      <point x="170" y="318"/>
      <point x="170" y="331" type="curve"/>
      <point x="276" y="331" type="line" smooth="yes"/>
      <point x="364" y="331"/>
      <point x="403" y="378"/>
      <point x="403" y="455" type="curve" smooth="yes"/>
      <point x="403" y="532"/>
      <point x="364" y="580"/>
      <point x="276" y="580" type="curve" smooth="yes"/>
      <point x="185" y="580" type="line"/>
      <point x="202" y="590" type="line"/>
      <point x="202" y="30" type="line"/>
      <point x="195" y="59" type="line"/>
      <point x="223" y="47"/>
      <point x="253" y="39"/>
      <point x="285" y="37" type="curve"/>
      <point x="286" y="25"/>
      <point x="284" y="11"/>
      <point x="282" y="0" type="curve"/>
      <point x="38" y="0" type="line"/>
      <point x="37" y="12"/>
      <point x="38" y="27"/>
      <point x="42" y="37" type="curve"/>
      <point x="84" y="43"/>
      <point x="105" y="52"/>
      <point x="105" y="88" type="curve" smooth="yes"/>
      <point x="105" y="582" type="line"/>
      <point x="120" y="565" type="line"/>
      <point x="92" y="579"/>
      <point x="63" y="586"/>
      <point x="35" y="586" type="curve"/>
      <point x="35" y="597"/>
      <point x="36" y="613"/>
      <point x="39" y="623" type="curve"/>
      <point x="296" y="623" type="line" smooth="yes"/>
      <point x="435" y="623"/>
      <point x="509" y="555"/>
    </contour>
    <contour>
      <point x="326" y="243" type="line"/>
      <point x="312" y="272"/>
      <point x="300" y="288"/>
      <point x="258" y="288" type="curve"/>
      <point x="338" y="310" type="line"/>
      <point x="389" y="308"/>
      <point x="413" y="281"/>
      <point x="434" y="240" type="curve" smooth="yes"/>
      <point x="509" y="97" type="line" smooth="yes"/>
      <point x="532" y="51"/>
      <point x="551" y="39"/>
      <point x="590" y="39" type="curve"/>
      <point x="590" y="26"/>
      <point x="589" y="13"/>
      <point x="586" y="0" type="curve"/>
      <point x="447" y="0" type="line"/>
    </contour>
  </outline>
</glyph>
<glyph name="S" format="1">
  <advance width="490"/>
  <unicode hex="0053"/>
  <outline>
    <contour>
      <point x="263" y="623" type="move" name="top"/>
    </contour>
    <contour>
      <point x="247" y="0" type="move" name="bottom"/>
    </contour>
    <contour>
      <point x="422" y="604" type="curve"/>
      <point x="421" y="558"/>
      <point x="416" y="509"/>
      <point x="410" y="469" type="curve"/>
      <point x="400" y="469"/>
      <point x="388" y="469"/>
      <point x="379" y="471" type="curve"/>
      <point x="365" y="556"/>
      <point x="318" y="586"/>
      <point x="253" y="586" type="curve" smooth="yes"/>
      <point x="189" y="586"/>
      <point x="145" y="552"/>
      <point x="145" y="495" type="curve" smooth="yes"/>
      <point x="145" y="345"/>
      <point x="446" y="374"/>
      <point x="446" y="168" type="curve" smooth="yes"/>
      <point x="446" y="58"/>
      <point x="350" y="-10"/>
      <point x="232" y="-10" type="curve" smooth="yes"/>
      <point x="172" y="-10"/>
      <point x="115" y="4"/>
      <point x="54" y="28" type="curve"/>
      <point x="52" y="84"/>
      <point x="57" y="150"/>
      <point x="62" y="192" type="curve"/>
      <point x="75" y="192"/>
      <point x="86" y="191"/>
      <point x="100" y="188" type="curve"/>
      <point x="98" y="73"/>
      <point x="157" y="39"/>
      <point x="239" y="39" type="curve" smooth="yes"/>
      <point x="308" y="39"/>
      <point x="357" y="79"/>
      <point x="357" y="139" type="curve" smooth="yes"/>
      <point x="357" y="297"/>
      <point x="61" y="269"/>
      <point x="61" y="473" type="curve" smooth="yes"/>
      <point x="61" y="575"/>
      <point x="146" y="634"/>
      <point x="258" y="634" type="curve" smooth="yes"/>
      <point x="322" y="634"/>
      <point x="374" y="620"/>
    </contour>
  </outline>
</glyph>
<glyph name="T" format="1">
  <advance width="536"/>
  <unicode hex="0054"/>
  <outline>
    <contour>
      <point x="268" y="623" type="move" name="top"/>
    </contour>
    <contour>
      <point x="268" y="0" type="move" name="bottom"/>
    </contour>
    <contour>
      <point x="317" y="30" type="line"/>
      <point x="310" y="55" type="line"/>
      <point x="338" y="43"/>
      <point x="373" y="38"/>
      <point x="403" y="37" type="curve"/>
      <point x="404" y="25"/>
      <point x="403" y="11"/>
      <point x="400" y="0" type="curve"/>
      <point x="133" y="0" type="line"/>
      <point x="132" y="12"/>
      <point x="133" y="27"/>
      <point x="137" y="37" type="curve"/>
      <point x="197" y="43"/>
      <point x="219" y="52"/>
      <point x="219" y="88" type="curve" smooth="yes"/>
      <point x="219" y="606" type="line"/>
      <point x="317" y="606" type="line"/>
    </contour>
    <contour>
      <point x="517" y="623" type="line"/>
      <point x="522" y="578"/>
      <point x="521" y="522"/>
      <point x="518" y="480" type="curve"/>
      <point x="509" y="477"/>
      <point x="492" y="476"/>
      <point x="484" y="477" type="curve"/>
      <point x="477" y="555"/>
      <point x="455" y="580"/>
      <point x="395" y="580" type="curve" smooth="yes"/>
      <point x="141" y="580" type="line" smooth="yes"/>
      <point x="81" y="580"/>
      <point x="58" y="555"/>
      <point x="52" y="477" type="curve"/>
      <point x="44" y="476"/>
      <point x="26" y="477"/>
      <point x="18" y="480" type="curve"/>
      <point x="14" y="522"/>
      <point x="14" y="578"/>
      <point x="19" y="623" type="curve"/>
    </contour>
  </outline>
</glyph>
<glyph name="U" format="1">
  <advance width="675"/>
  <unicode hex="0055"/>
  <outline>
    <contour>
      <point x="340" y="623" type="move" name="top"/>
    </contour>
    <contour>
      <point x="435" y="0" type="move" name="ogonek"/>
    </contour>
    <contour>
      <point x="577" y="205" type="line"/>
      <point x="577" y="49"/>
      <point x="476" y="-12"/>
      <point x="340" y="-12" type="curve" smooth="yes"/>
      <point x="204" y="-12"/>
      <point x="102" y="49"/>
      <point x="102" y="205" type="curve" smooth="yes"/>
      <point x="102" y="586" type="line"/>
      <point x="118" y="565" type="line"/>
      <point x="89" y="580"/>
      <point x="60" y="585"/>
      <point x="33" y="586" type="curve"/>
      <point x="32" y="597"/>
      <point x="34" y="613"/>
      <point x="36" y="623" type="curve"/>
      <point x="265" y="623" type="line"/>
      <point x="266" y="612"/>
      <point x="265" y="597"/>
      <point x="262" y="586" type="curve"/>
      <point x="220" y="581"/>
      <point x="199" y="571"/>
      <point x="199" y="536" type="curve"/>
      <point x="199" y="201" type="line" smooth="yes"/>
      <point x="199" y="85"/>
      <point x="257" y="40"/>
      <point x="340" y="40" type="curve" smooth="yes"/>
      <point x="422" y="40"/>
      <point x="479" y="86"/>
      <point x="479" y="201" type="curve" smooth="yes"/>
      <point x="479" y="586" type="line"/>
      <point x="496" y="565" type="line"/>
      <point x="467" y="580"/>
      <point x="438" y="585"/>
      <point x="411" y="586" type="curve"/>
      <point x="410" y="597"/>
      <point x="412" y="613"/>
      <point x="414" y="623" type="curve"/>
      <point x="644" y="623" type="line"/>
      <point x="645" y="612"/>
      <point x="644" y="597"/>
      <point x="640" y="586" type="curve"/>
      <point x="597" y="581"/>
      <point x="577" y="571"/>
      <point x="577" y="536" type="curve"/>
    </contour>
  </outline>
</glyph>
<glyph name="V" format="1">
  <advance width="614"/>
  <unicode hex="0056"/>
  <outline>
    <contour>
      <point x="233" y="586" type="curve"/>
      <point x="176" y="581"/>
      <point x="163" y="569"/>
      <point x="178" y="531" type="curve" smooth="yes"/>
      <point x="312" y="186" type="line" smooth="yes"/>
      <point x="320" y="166"/>
      <point x="327" y="146"/>
      <point x="331" y="123" type="curve"/>
      <point x="335" y="123" type="line"/>
      <point x="515" y="602" type="line"/>
      <point x="509" y="569" type="line"/>
      <point x="484" y="579"/>
      <point x="463" y="584"/>
      <point x="433" y="586" type="curve"/>
      <point x="433" y="599"/>
      <point x="433" y="611"/>
      <point x="436" y="623" type="curve"/>
      <point x="613" y="623" type="line"/>
      <point x="612" y="610"/>
      <point x="611" y="599"/>
      <point x="607" y="586" type="curve"/>
      <point x="574" y="580"/>
      <point x="552" y="569"/>
      <point x="538" y="533" type="curve" smooth="yes"/>
      <point x="327" y="-6" type="line"/>
      <point x="290" y="-6" type="line"/>
      <point x="47" y="603" type="line"/>
      <point x="86" y="564" type="line"/>
      <point x="59" y="577"/>
      <point x="32" y="583"/>
      <point x="4" y="586" type="curve"/>
      <point x="2" y="600"/>
      <point x="0" y="610"/>
      <point x="2" y="623" type="curve"/>
      <point x="230" y="623" type="line"/>
      <point x="233" y="612"/>
      <point x="233" y="599"/>
    </contour>
  </outline>
</glyph>
<glyph name="W" format="1">
  <advance width="906"/>
  <unicode hex="0057"/>
  <outline>
    <contour>
      <point x="244" y="586" type="curve"/>
      <point x="183" y="581"/>
      <point x="171" y="568"/>
      <point x="183" y="531" type="curve" smooth="yes"/>
      <point x="283" y="207" type="line" smooth="yes"/>
      <point x="289" y="187"/>
      <point x="294" y="166"/>
      <point x="296" y="143" type="curve"/>
      <point x="299" y="143" type="line"/>
      <point x="477" y="591" type="line"/>
      <point x="513" y="591" type="line"/>
      <point x="652" y="202" type="line" smooth="yes"/>
      <point x="659" y="183"/>
      <point x="664" y="163"/>
      <point x="666" y="140" type="curve"/>
      <point x="668" y="140" type="line"/>
      <point x="809" y="603" type="line"/>
      <point x="816" y="563" type="line"/>
      <point x="791" y="575"/>
      <point x="770" y="583"/>
      <point x="742" y="586" type="curve"/>
      <point x="743" y="599"/>
      <point x="745" y="611"/>
      <point x="748" y="623" type="curve"/>
      <point x="901" y="623" type="line"/>
      <point x="902" y="610"/>
      <point x="901" y="599"/>
      <point x="899" y="586" type="curve"/>
      <point x="863" y="579"/>
      <point x="846" y="569"/>
      <point x="834" y="530" type="curve" smooth="yes"/>
      <point x="661" y="-6" type="line"/>
      <point x="625" y="-6" type="line"/>
      <point x="455" y="462" type="line"/>
      <point x="473" y="467" type="line"/>
      <point x="282" y="-6" type="line"/>
      <point x="245" y="-6" type="line"/>
      <point x="53" y="604" type="line"/>
      <point x="93" y="561" type="line"/>
      <point x="63" y="577"/>
      <point x="34" y="584"/>
      <point x="7" y="586" type="curve"/>
      <point x="5" y="600"/>
      <point x="4" y="610"/>
      <point x="5" y="623" type="curve"/>
      <point x="239" y="623" type="line"/>
      <point x="243" y="609"/>
      <point x="244" y="599"/>
    </contour>
  </outline>
</glyph>
<glyph name="X" format="1">
  <advance width="612"/>
  <unicode hex="0058"/>
  <outline>
    <contour>
      <point x="315" y="353" type="line"/>
      <point x="497" y="601" type="line"/>
      <point x="494" y="568" type="line"/>
      <point x="469" y="578"/>
      <point x="445" y="585"/>
      <point x="417" y="586" type="curve"/>
      <point x="415" y="598"/>
      <point x="415" y="612"/>
      <point x="417" y="623" type="curve"/>
      <point x="589" y="623" type="line"/>
      <point x="590" y="609"/>
      <point x="588" y="597"/>
      <point x="583" y="586" type="curve"/>
      <point x="551" y="583"/>
      <point x="532" y="572"/>
      <point x="508" y="539" type="curve" smooth="yes"/>
      <point x="344" y="315" type="line"/>
    </contour>
    <contour>
      <point x="297" y="275" type="line"/>
      <point x="120" y="26" type="line"/>
      <point x="120" y="55" type="line"/>
      <point x="145" y="44"/>
      <point x="170" y="38"/>
      <point x="197" y="37" type="curve"/>
      <point x="198" y="25"/>
      <point x="199" y="12"/>
      <point x="197" y="0" type="curve"/>
      <point x="25" y="0" type="line"/>
      <point x="24" y="13"/>
      <point x="26" y="26"/>
      <point x="30" y="37" type="curve"/>
      <point x="63" y="40"/>
      <point x="81" y="52"/>
      <point x="107" y="84" type="curve"/>
      <point x="266" y="310" type="line"/>
    </contour>
    <contour>
      <point x="239" y="587" type="curve"/>
      <point x="188" y="581"/>
      <point x="183" y="568"/>
      <point x="198" y="547" type="curve" smooth="yes"/>
      <point x="557" y="32" type="line"/>
      <point x="518" y="56" type="line"/>
      <point x="539" y="47"/>
      <point x="565" y="40"/>
      <point x="587" y="37" type="curve"/>
      <point x="589" y="28"/>
      <point x="591" y="12"/>
      <point x="590" y="0" type="curve"/>
      <point x="377" y="0" type="line"/>
      <point x="372" y="11"/>
      <point x="373" y="26"/>
      <point x="373" y="37" type="curve"/>
      <point x="423" y="43"/>
      <point x="429" y="54"/>
      <point x="414" y="76" type="curve" smooth="yes"/>
      <point x="51" y="595" type="line"/>
      <point x="93" y="567" type="line"/>
      <point x="71" y="577"/>
      <point x="45" y="584"/>
      <point x="24" y="586" type="curve"/>
      <point x="21" y="598"/>
      <point x="19" y="612"/>
      <point x="22" y="623" type="curve"/>
      <point x="235" y="623" type="line"/>
      <point x="239" y="612"/>
      <point x="239" y="598"/>
    </contour>
  </outline>
</glyph>
<glyph name="Y" format="1">
  <advance width="597"/>
  <unicode hex="0059"/>
  <outline>
    <contour>
      <point x="313" y="623" type="move" name="top"/>
    </contour>
    <contour>
      <point x="241" y="586" type="curve"/>
      <point x="181" y="581"/>
      <point x="171" y="564"/>
      <point x="191" y="528" type="curve" smooth="yes"/>
      <point x="318" y="297" type="line"/>
      <point x="321" y="297" type="line"/>
      <point x="327" y="318"/>
      <point x="338" y="340"/>
      <point x="349" y="358" type="curve" smooth="yes"/>
      <point x="498" y="600" type="line"/>
      <point x="505" y="567" type="line"/>
      <point x="474" y="578"/>
      <point x="459" y="584"/>
      <point x="424" y="586" type="curve"/>
      <point x="424" y="599"/>
      <point x="426" y="611"/>
      <point x="428" y="623" type="curve"/>
      <point x="597" y="623" type="line"/>
      <point x="597" y="610"/>
      <point x="596" y="599"/>
      <point x="593" y="586" type="curve"/>
      <point x="552" y="580"/>
      <point x="539" y="567"/>
      <point x="518" y="533" type="curve" smooth="yes"/>
      <point x="349" y="260" type="line"/>
      <point x="349" y="49" type="line"/>
      <point x="372" y="41"/>
      <point x="396" y="38"/>
      <point x="421" y="37" type="curve"/>
      <point x="421" y="26"/>
      <point x="420" y="12"/>
      <point x="418" y="0" type="curve"/>
      <point x="175" y="0" type="line"/>
      <point x="174" y="13"/>
      <point x="175" y="26"/>
      <point x="178" y="37" type="curve"/>
      <point x="219" y="43"/>
      <point x="244" y="51"/>
      <point x="244" y="88" type="curve" smooth="yes"/>
      <point x="244" y="253" type="line"/>
      <point x="38" y="608" type="line"/>
      <point x="89" y="563" type="line"/>
      <point x="60" y="577"/>
      <point x="30" y="585"/>
      <point x="3" y="586" type="curve"/>
      <point x="1" y="599"/>
      <point x="-1" y="611"/>
      <point x="-1" y="623" type="curve"/>
      <point x="235" y="623" type="line"/>
      <point x="239" y="610"/>
      <point x="241" y="599"/>
    </contour>
  </outline>
</glyph>
<glyph name="Z" format="1">
  <advance width="547"/>
  <unicode hex="005A"/>
  <outline>
    <contour>
      <point x="305" y="623" type="move" name="top"/>
    </contour>
    <contour>
      <point x="487" y="623" type="line"/>
      <point x="491" y="611"/>
      <point x="494" y="595"/>
      <point x="493" y="577" type="curve"/>
      <point x="149" y="29" type="line"/>
      <point x="145" y="51" type="line"/>
      <point x="378" y="51" type="line" smooth="yes"/>
      <point x="437" y="51"/>
      <point x="458" y="73"/>
      <point x="470" y="142" type="curve"/>
      <point x="478" y="142"/>
      <point x="488" y="140"/>
      <point x="495" y="136" type="curve"/>
      <point x="495" y="95"/>
      <point x="493" y="46"/>
      <point x="486" y="0" type="curve"/>
      <point x="58" y="0" type="line"/>
      <point x="52" y="12"/>
      <point x="49" y="27"/>
      <point x="49" y="45" type="curve"/>
      <point x="394" y="594" type="line"/>
      <point x="411" y="573" type="line"/>
      <point x="180" y="573" type="line" smooth="yes"/>
      <point x="122" y="573"/>
      <point x="100" y="549"/>
      <point x="88" y="480" type="curve"/>
      <point x="80" y="480"/>
      <point x="71" y="482"/>
      <point x="62" y="486" type="curve"/>
      <point x="62" y="529"/>
      <point x="65" y="578"/>
      <point x="72" y="623" type="curve"/>
    </contour>
  </outline>
</glyph>
<glyph name="bracketleft" format="1">
  <advance width="347"/>
  <unicode hex="005B"/>
  <outline>
    <contour>
      <point x="196" y="730" type="line"/>
      <point x="317" y="730" type="line"/>
      <point x="317" y="778" type="line"/>
      <point x="100" y="778" type="line"/>
      <point x="100" y="-133" type="line"/>
      <point x="317" y="-133" type="line"/>
      <point x="317" y="-85" type="line"/>
      <point x="196" y="-85" type="line"/>
    </contour>
  </outline>
</glyph>
<glyph name="backslash" format="1">
  <advance width="456"/>
  <unicode hex="005C"/>
  <outline>
    <contour>
      <point x="168" y="714" type="line"/>
      <point x="360" y="-50" type="line"/>
      <point x="282" y="-50" type="line"/>
      <point x="88" y="714" type="line"/>
    </contour>
  </outline>
</glyph>
<glyph name="bracketright" format="1">
  <advance width="347"/>
  <unicode hex="005D"/>
  <outline>
    <contour>
      <point x="30" y="-85" type="line"/>
      <point x="30" y="-133" type="line"/>
      <point x="247" y="-133" type="line"/>
      <point x="247" y="778" type="line"/>
      <point x="30" y="778" type="line"/>
      <point x="30" y="730" type="line"/>
      <point x="151" y="730" type="line"/>
      <point x="151" y="-85" type="line"/>
    </contour>
  </outline>
</glyph>
<glyph name="asciicircum" format="1">
  <advance width="490"/>
  <unicode hex="005E"/>
  <outline>
    <contour>
      <point x="34" y="220" type="line"/>
      <point x="108" y="220" type="line"/>
      <point x="245" y="530" type="line"/>
      <point x="383" y="220" type="line"/>
      <point x="456" y="220" type="line"/>
      <point x="277" y="600" type="line"/>
      <point x="213" y="600" type="line"/>
    </contour>
  </outline>
</glyph>
<glyph name="grave" format="1">
  <advance width="202"/>
  <unicode hex="0060"/>
  <outline>
    <contour>
      <point x="159" y="457" type="move" name="_top"/>
    </contour>
    <contour>
      <point x="192" y="518" type="line"/>
      <point x="165" y="502" type="line"/>
      <point x="10" y="639" type="line"/>
      <point x="10" y="653" type="line"/>
      <point x="25" y="667"/>
      <point x="60" y="687"/>
      <point x="86" y="690" type="curve"/>
    </contour>
  </outline>
</glyph>
<glyph name="a" format="1">
  <advance width="478"/>
  <unicode hex="0061"/>
  <outline>
    <contour>
      <point x="238" y="457" type="move" name="top"/>
    </contour>
    <contour>
      <point x="419" y="0" type="move" name="ogonek"/>
    </contour>
    <contour>
      <point x="301" y="239" type="line"/>
      <point x="230" y="220" type="line" smooth="yes"/>
      <point x="168" y="203"/>
      <point x="141" y="169"/>
      <point x="141" y="122" type="curve" smooth="yes"/>
      <point x="141" y="78"/>
      <point x="168" y="53"/>
      <point x="209" y="53" type="curve" smooth="yes"/>
      <point x="246" y="53"/>
      <point x="278" y="67"/>
      <point x="306" y="109" type="curve"/>
      <point x="309" y="66" type="line"/>
      <point x="280" y="22"/>
      <point x="235" y="-12"/>
      <point x="174" y="-12" type="curve" smooth="yes"/>
      <point x="91" y="-12"/>
      <point x="39" y="43"/>
      <point x="39" y="113" type="curve" smooth="yes"/>
      <point x="39" y="191"/>
      <point x="88" y="234"/>
      <point x="188" y="255" type="curve" smooth="yes"/>
      <point x="300" y="279" type="line"/>
    </contour>
    <contour>
      <point x="385" y="323" type="curve" smooth="yes"/>
      <point x="385" y="104" type="line" smooth="yes"/>
      <point x="385" y="65"/>
      <point x="397" y="52"/>
      <point x="417" y="52" type="curve" smooth="yes"/>
      <point x="428" y="52"/>
      <point x="439" y="54"/>
      <point x="454" y="57" type="curve"/>
      <point x="462" y="38" type="line"/>
      <point x="441" y="11"/>
      <point x="413" y="-12"/>
      <point x="375" y="-12" type="curve" smooth="yes"/>
      <point x="330" y="-12"/>
      <point x="289" y="15"/>
      <point x="289" y="67" type="curve" smooth="yes"/>
      <point x="289" y="317" type="line" smooth="yes"/>
      <point x="289" y="371"/>
      <point x="266" y="398"/>
      <point x="210" y="398" type="curve" smooth="yes"/>
      <point x="168" y="398"/>
      <point x="127" y="389"/>
      <point x="86" y="374" type="curve"/>
      <point x="67" y="402" type="line"/>
      <point x="118" y="446"/>
      <point x="179" y="469"/>
      <point x="247" y="469" type="curve" smooth="yes"/>
      <point x="337" y="469"/>
      <point x="385" y="414"/>
    </contour>
  </outline>
</glyph>
<glyph name="b" format="1">
  <advance width="528"/>
  <unicode hex="0062"/>
  <outline>
    <contour>
      <point x="140" y="54" type="line"/>
      <point x="123" y="24"/>
      <point x="97" y="2"/>
      <point x="66" y="-11" type="curve"/>
      <point x="51" y="4" type="line"/>
      <point x="66" y="38"/>
      <point x="72" y="77"/>
      <point x="72" y="115" type="curve"/>
      <point x="72" y="659" type="line"/>
      <point x="78" y="642" type="line"/>
      <point x="55" y="645"/>
      <point x="30" y="644"/>
      <point x="2" y="643" type="curve"/>
      <point x="3" y="655"/>
      <point x="5" y="669"/>
      <point x="9" y="679" type="curve"/>
      <point x="59" y="699"/>
      <point x="106" y="711"/>
      <point x="168" y="717" type="curve"/>
      <point x="168" y="47" type="line"/>
    </contour>
    <contour>
      <point x="491" y="236" type="curve" smooth="yes"/>
      <point x="491" y="77"/>
      <point x="377" y="-12"/>
      <point x="249" y="-12" type="curve" smooth="yes"/>
      <point x="198" y="-12"/>
      <point x="149" y="6"/>
      <point x="108" y="40" type="curve"/>
      <point x="147" y="75" type="line"/>
      <point x="181" y="50"/>
      <point x="217" y="40"/>
      <point x="257" y="40" type="curve" smooth="yes"/>
      <point x="326" y="40"/>
      <point x="385" y="100"/>
      <point x="385" y="236" type="curve" smooth="yes"/>
      <point x="385" y="370"/>
      <point x="328" y="410"/>
      <point x="276" y="410" type="curve" smooth="yes"/>
      <point x="228" y="410"/>
      <point x="178" y="374"/>
      <point x="168" y="291" type="curve"/>
      <point x="161" y="347" type="line"/>
      <point x="179" y="424"/>
      <point x="235" y="469"/>
      <point x="300" y="469" type="curve" smooth="yes"/>
      <point x="396" y="469"/>
      <point x="491" y="392"/>
    </contour>
  </outline>
</glyph>
<glyph name="c" format="1">
  <advance width="451"/>
  <unicode hex="0063"/>
  <outline>
    <contour>
      <point x="266" y="463" type="move" name="top"/>
    </contour>
    <contour>
      <point x="236" y="0" type="move" name="bottom"/>
    </contour>
    <contour>
      <point x="411" y="433" type="curve"/>
      <point x="410" y="399"/>
      <point x="405" y="347"/>
      <point x="399" y="314" type="curve"/>
      <point x="391" y="315"/>
      <point x="382" y="316"/>
      <point x="374" y="318" type="curve"/>
      <point x="372" y="381"/>
      <point x="328" y="418"/>
      <point x="272" y="418" type="curve" smooth="yes"/>
      <point x="194" y="418"/>
      <point x="139" y="355"/>
      <point x="139" y="227" type="curve" smooth="yes"/>
      <point x="139" y="111"/>
      <point x="195" y="49"/>
      <point x="270" y="49" type="curve" smooth="yes"/>
      <point x="320" y="49"/>
      <point x="364" y="63"/>
      <point x="408" y="86" type="curve"/>
      <point x="424" y="65" type="line"/>
      <point x="375" y="17"/>
      <point x="319" y="-12"/>
      <point x="245" y="-12" type="curve" smooth="yes"/>
      <point x="138" y="-12"/>
      <point x="36" y="71"/>
      <point x="36" y="219" type="curve" smooth="yes"/>
      <point x="36" y="372"/>
      <point x="141" y="469"/>
      <point x="276" y="469" type="curve" smooth="yes"/>
      <point x="326" y="469"/>
      <point x="374" y="456"/>
    </contour>
  </outline>
</glyph>
<glyph name="d" format="1">
  <advance width="549"/>
  <unicode hex="0064"/>
  <outline>
    <contour>
      <point x="492" y="678" type="move" name="commaaccent"/>
    </contour>
    <contour>
      <point x="388" y="395" type="line"/>
      <point x="354" y="406"/>
      <point x="326" y="412"/>
      <point x="287" y="412" type="curve" smooth="yes"/>
      <point x="194" y="412"/>
      <point x="139" y="365"/>
      <point x="139" y="232" type="curve" smooth="yes"/>
      <point x="139" y="101"/>
      <point x="188" y="52"/>
      <point x="260" y="52" type="curve" smooth="yes"/>
      <point x="307" y="52"/>
      <point x="341" y="70"/>
      <point x="375" y="107" type="curve"/>
      <point x="378" y="64" type="line"/>
      <point x="344" y="23"/>
      <point x="296" y="-12"/>
      <point x="227" y="-12" type="curve" smooth="yes"/>
      <point x="131" y="-12"/>
      <point x="37" y="63"/>
      <point x="37" y="217" type="curve" smooth="yes"/>
      <point x="37" y="381"/>
      <point x="160" y="469"/>
      <point x="311" y="469" type="curve" smooth="yes"/>
      <point x="337" y="469"/>
      <point x="362" y="466"/>
      <point x="386" y="461" type="curve"/>
    </contour>
    <contour>
      <point x="444" y="104" type="line"/>
      <point x="444" y="65"/>
      <point x="455" y="52"/>
      <point x="474" y="52" type="curve" smooth="yes"/>
      <point x="485" y="52"/>
      <point x="496" y="54"/>
      <point x="511" y="57" type="curve"/>
      <point x="520" y="38" type="line"/>
      <point x="498" y="11"/>
      <point x="472" y="-12"/>
      <point x="433" y="-12" type="curve" smooth="yes"/>
      <point x="389" y="-12"/>
      <point x="355" y="14"/>
      <point x="347" y="58" type="curve" smooth="yes"/>
      <point x="347" y="659" type="line"/>
      <point x="354" y="642" type="line"/>
      <point x="331" y="645"/>
      <point x="305" y="644"/>
      <point x="278" y="643" type="curve"/>
      <point x="279" y="655"/>
      <point x="280" y="669"/>
      <point x="284" y="679" type="curve"/>
      <point x="335" y="699"/>
      <point x="382" y="711"/>
      <point x="444" y="717" type="curve"/>
    </contour>
  </outline>
</glyph>
<glyph name="e" format="1">
  <advance width="481"/>
  <unicode hex="0065"/>
  <outline>
    <contour>
      <point x="265" y="457" type="move" name="top"/>
    </contour>
    <contour>
      <point x="327" y="0" type="move" name="ogonek"/>
    </contour>
    <contour>
      <point x="245" y="0" type="move" name="bottom"/>
    </contour>
    <contour>
      <point x="442" y="276" type="curve"/>
      <point x="439" y="268"/>
      <point x="434" y="259"/>
      <point x="429" y="252" type="curve"/>
      <point x="121" y="252" type="line"/>
      <point x="121" y="289" type="line"/>
      <point x="249" y="298" type="line"/>
      <point x="396" y="300" type="line"/>
      <point x="342" y="289" type="line"/>
      <point x="344" y="385"/>
      <point x="303" y="419"/>
      <point x="257" y="419" type="curve" smooth="yes"/>
      <point x="204" y="419"/>
      <point x="139" y="371"/>
      <point x="139" y="235" type="curve" smooth="yes"/>
      <point x="139" y="111"/>
      <point x="193" y="53"/>
      <point x="278" y="53" type="curve" smooth="yes"/>
      <point x="327" y="53"/>
      <point x="376" y="67"/>
      <point x="424" y="95" type="curve"/>
      <point x="437" y="72" type="line"/>
      <point x="392" y="23"/>
      <point x="330" y="-12"/>
      <point x="250" y="-12" type="curve" smooth="yes"/>
      <point x="154" y="-12"/>
      <point x="37" y="60"/>
      <point x="37" y="219" type="curve" smooth="yes"/>
      <point x="37" y="385"/>
      <point x="158" y="469"/>
      <point x="266" y="469" type="curve" smooth="yes"/>
      <point x="359" y="469"/>
      <point x="442" y="412"/>
    </contour>
  </outline>
</glyph>
<glyph name="f" format="1">
  <advance width="321"/>
  <unicode hex="0066"/>
  <outline>
    <contour>
      <point x="191" y="30" type="line"/>
      <point x="185" y="60" type="line"/>
      <point x="218" y="47"/>
      <point x="255" y="40"/>
      <point x="290" y="38" type="curve"/>
      <point x="291" y="26"/>
      <point x="290" y="11"/>
      <point x="287" y="0" type="curve"/>
      <point x="27" y="0" type="line"/>
      <point x="26" y="12"/>
      <point x="27" y="27"/>
      <point x="30" y="38" type="curve"/>
      <point x="74" y="44"/>
      <point x="95" y="54"/>
      <point x="95" y="90" type="curve" smooth="yes"/>
      <point x="95" y="427" type="line"/>
      <point x="118" y="396" type="line"/>
      <point x="91" y="403"/>
      <point x="61" y="405"/>
      <point x="33" y="405" type="curve"/>
      <point x="33" y="414"/>
      <point x="34" y="427"/>
      <point x="35" y="434" type="curve"/>
      <point x="54" y="442"/>
      <point x="74" y="448"/>
      <point x="95" y="450" type="curve"/>
      <point x="95" y="514" type="line"/>
      <point x="95" y="650"/>
      <point x="177" y="712"/>
      <point x="264" y="712" type="curve" smooth="yes"/>
      <point x="304" y="712"/>
      <point x="348" y="691"/>
      <point x="375" y="667" type="curve"/>
      <point x="373" y="632"/>
      <point x="368" y="603"/>
      <point x="359" y="570" type="curve"/>
      <point x="351" y="570"/>
      <point x="332" y="572"/>
      <point x="324" y="574" type="curve"/>
      <point x="328" y="631"/>
      <point x="305" y="661"/>
      <point x="265" y="661" type="curve" smooth="yes"/>
      <point x="218" y="661"/>
      <point x="191" y="631"/>
      <point x="191" y="557" type="curve"/>
    </contour>
    <contour>
      <point x="169" y="452" type="line"/>
      <point x="219" y="452"/>
      <point x="270" y="454"/>
      <point x="326" y="460" type="curve"/>
      <point x="326" y="436"/>
      <point x="324" y="421"/>
      <point x="317" y="404" type="curve"/>
      <point x="169" y="404" type="line"/>
    </contour>
  </outline>
</glyph>
<glyph name="g" format="1">
  <advance width="512"/>
  <unicode hex="0067"/>
  <outline>
    <contour>
      <point x="256" y="457" type="move" name="top"/>
    </contour>
    <contour>
      <point x="251" y="187" type="curve" smooth="yes"/>
      <point x="300" y="187"/>
      <point x="340" y="224"/>
      <point x="337" y="310" type="curve" smooth="yes"/>
      <point x="333" y="396"/>
      <point x="292" y="432"/>
      <point x="242" y="432" type="curve" smooth="yes"/>
      <point x="191" y="432"/>
      <point x="152" y="395"/>
      <point x="155" y="310" type="curve" smooth="yes"/>
      <point x="158" y="225"/>
      <point x="200" y="187"/>
    </contour>
    <contour>
      <point x="438" y="310" type="curve" smooth="yes"/>
      <point x="438" y="210"/>
      <point x="353" y="150"/>
      <point x="246" y="150" type="curve" smooth="yes"/>
      <point x="139" y="150"/>
      <point x="53" y="210"/>
      <point x="53" y="310" type="curve" smooth="yes"/>
      <point x="53" y="410"/>
      <point x="139" y="469"/>
      <point x="246" y="469" type="curve" smooth="yes"/>
      <point x="353" y="469"/>
      <point x="438" y="410"/>
    </contour>
    <contour>
      <point x="361" y="428" type="line"/>
      <point x="403" y="465"/>
      <point x="468" y="479"/>
      <point x="513" y="479" type="curve"/>
      <point x="515" y="466"/>
      <point x="512" y="437"/>
      <point x="509" y="418" type="curve"/>
      <point x="383" y="405" type="line"/>
    </contour>
    <contour>
      <point x="158" y="9" type="line"/>
      <point x="118" y="-11"/>
      <point x="96" y="-47"/>
      <point x="96" y="-81" type="curve" smooth="yes"/>
      <point x="96" y="-133"/>
      <point x="148" y="-168"/>
      <point x="244" y="-168" type="curve" smooth="yes"/>
      <point x="357" y="-168"/>
      <point x="427" y="-107"/>
      <point x="427" y="-58" type="curve" smooth="yes"/>
      <point x="427" y="-28"/>
      <point x="410" y="-8"/>
      <point x="371" y="-8" type="curve" smooth="yes"/>
      <point x="171" y="-9" type="line" smooth="yes"/>
      <point x="89" y="-9"/>
      <point x="53" y="32"/>
      <point x="53" y="84" type="curve" smooth="yes"/>
      <point x="53" y="136"/>
      <point x="100" y="174"/>
      <point x="153" y="189" type="curve"/>
      <point x="174" y="169" type="line"/>
      <point x="138" y="154"/>
      <point x="120" y="135"/>
      <point x="120" y="111" type="curve" smooth="yes"/>
      <point x="120" y="87"/>
      <point x="138" y="68"/>
      <point x="179" y="68" type="curve" smooth="yes"/>
      <point x="374" y="69" type="line" smooth="yes"/>
      <point x="460" y="69"/>
      <point x="498" y="30"/>
      <point x="498" y="-28" type="curve" smooth="yes"/>
      <point x="497" y="-131"/>
      <point x="374" y="-241"/>
      <point x="218" y="-241" type="curve" smooth="yes"/>
      <point x="106" y="-241"/>
      <point x="29" y="-190"/>
      <point x="29" y="-107" type="curve" smooth="yes"/>
      <point x="29" y="-42"/>
      <point x="75" y="1"/>
      <point x="146" y="26" type="curve"/>
    </contour>
  </outline>
</glyph>
<glyph name="h" format="1">
  <advance width="583"/>
  <unicode hex="0068"/>
  <outline>
    <contour>
      <point x="489" y="317" type="curve" smooth="yes"/>
      <point x="489" y="30" type="line"/>
      <point x="482" y="54" type="line"/>
      <point x="514" y="43"/>
      <point x="532" y="39"/>
      <point x="558" y="38" type="curve"/>
      <point x="558" y="26"/>
      <point x="557" y="11"/>
      <point x="554" y="0" type="curve"/>
      <point x="331" y="0" type="line"/>
      <point x="330" y="12"/>
      <point x="331" y="27"/>
      <point x="333" y="38" type="curve"/>
      <point x="376" y="43"/>
      <point x="392" y="53"/>
      <point x="392" y="90" type="curve" smooth="yes"/>
      <point x="392" y="307" type="line" smooth="yes"/>
      <point x="392" y="371"/>
      <point x="360" y="401"/>
      <point x="312" y="401" type="curve" smooth="yes"/>
      <point x="259" y="401"/>
      <point x="218" y="366"/>
      <point x="193" y="300" type="curve"/>
      <point x="178" y="332" type="line"/>
      <point x="206" y="418"/>
      <point x="268" y="469"/>
      <point x="348" y="469" type="curve" smooth="yes"/>
      <point x="427" y="469"/>
      <point x="489" y="418"/>
    </contour>
    <contour>
      <point x="194" y="30" type="line"/>
      <point x="187" y="54" type="line"/>
      <point x="212" y="43"/>
      <point x="234" y="39"/>
      <point x="258" y="38" type="curve"/>
      <point x="259" y="26"/>
      <point x="257" y="11"/>
      <point x="255" y="0" type="curve"/>
      <point x="29" y="0" type="line"/>
      <point x="28" y="12"/>
      <point x="29" y="27"/>
      <point x="32" y="38" type="curve"/>
      <point x="76" y="43"/>
      <point x="97" y="53"/>
      <point x="97" y="90" type="curve" smooth="yes"/>
      <point x="97" y="656" type="line"/>
      <point x="103" y="641" type="line"/>
      <point x="81" y="643"/>
      <point x="55" y="643"/>
      <point x="28" y="642" type="curve"/>
      <point x="29" y="653"/>
      <point x="31" y="667"/>
      <point x="34" y="677" type="curve"/>
      <point x="88" y="697"/>
      <point x="125" y="707"/>
      <point x="194" y="714" type="curve"/>
    </contour>
  </outline>
</glyph>
<glyph name="i" format="1">
  <advance width="295"/>
  <unicode hex="0069"/>
  <outline>
    <contour>
      <point x="255" y="0" type="move" name="ogonek"/>
    </contour>
    <contour>
      <point x="208" y="602" type="curve" smooth="yes"/>
      <point x="208" y="638"/>
      <point x="180" y="666"/>
      <point x="144" y="666" type="curve" smooth="yes"/>
      <point x="110" y="666"/>
      <point x="81" y="638"/>
      <point x="81" y="602" type="curve" smooth="yes"/>
      <point x="81" y="568"/>
      <point x="110" y="539"/>
      <point x="144" y="539" type="curve" smooth="yes"/>
      <point x="180" y="539"/>
      <point x="208" y="568"/>
    </contour>
    <contour>
      <point x="194" y="30" type="line"/>
      <point x="187" y="54" type="line"/>
      <point x="212" y="43"/>
      <point x="234" y="39"/>
      <point x="258" y="38" type="curve"/>
      <point x="259" y="26"/>
      <point x="257" y="11"/>
      <point x="255" y="0" type="curve"/>
      <point x="29" y="0" type="line"/>
      <point x="28" y="12"/>
      <point x="29" y="27"/>
      <point x="32" y="38" type="curve"/>
      <point x="76" y="43"/>
      <point x="97" y="53"/>
      <point x="97" y="90" type="curve" smooth="yes"/>
      <point x="97" y="405" type="line"/>
      <point x="103" y="390" type="line"/>
      <point x="81" y="391"/>
      <point x="55" y="392"/>
      <point x="28" y="391" type="curve"/>
      <point x="29" y="401"/>
      <point x="31" y="415"/>
      <point x="34" y="426" type="curve"/>
      <point x="83" y="444"/>
      <point x="132" y="456"/>
      <point x="194" y="464" type="curve"/>
    </contour>
  </outline>
</glyph>
<glyph name="j" format="1">
  <advance width="275"/>
  <unicode hex="006A"/>
  <outline>
    <contour>
      <point x="144" y="539" type="curve" smooth="yes"/>
      <point x="110" y="539"/>
      <point x="81" y="568"/>
      <point x="81" y="602" type="curve" smooth="yes"/>
      <point x="81" y="638"/>
      <point x="110" y="666"/>
      <point x="144" y="666" type="curve" smooth="yes"/>
      <point x="180" y="666"/>
      <point x="208" y="638"/>
      <point x="208" y="602" type="curve" smooth="yes"/>
      <point x="208" y="568"/>
      <point x="180" y="539"/>
    </contour>
    <contour>
      <point x="194" y="16" type="line"/>
      <point x="194" y="-106"/>
      <point x="131" y="-188"/>
      <point x="5" y="-230" type="curve"/>
      <point x="-14" y="-200" type="line"/>
      <point x="74" y="-150"/>
      <point x="97" y="-93"/>
      <point x="97" y="5" type="curve" smooth="yes"/>
      <point x="97" y="405" type="line"/>
      <point x="103" y="390" type="line"/>
      <point x="81" y="391"/>
      <point x="55" y="392"/>
      <point x="28" y="391" type="curve"/>
      <point x="29" y="401"/>
      <point x="31" y="415"/>
      <point x="34" y="426" type="curve"/>
      <point x="83" y="444"/>
      <point x="132" y="456"/>
      <point x="194" y="464" type="curve"/>
    </contour>
  </outline>
</glyph>
<glyph name="k" format="1">
  <advance width="561"/>
  <unicode hex="006B"/>
  <outline>
    <contour>
      <point x="303" y="0" type="move" name="bottom"/>
    </contour>
    <contour>
      <point x="194" y="30" type="line"/>
      <point x="187" y="54" type="line"/>
      <point x="212" y="43"/>
      <point x="234" y="39"/>
      <point x="258" y="38" type="curve"/>
      <point x="259" y="26"/>
      <point x="257" y="11"/>
      <point x="255" y="0" type="curve"/>
      <point x="29" y="0" type="line"/>
      <point x="28" y="12"/>
      <point x="29" y="27"/>
      <point x="32" y="38" type="curve"/>
      <point x="76" y="43"/>
      <point x="97" y="53"/>
      <point x="97" y="90" type="curve" smooth="yes"/>
      <point x="97" y="659" type="line"/>
      <point x="103" y="642" type="line"/>
      <point x="81" y="645"/>
      <point x="55" y="644"/>
      <point x="28" y="643" type="curve"/>
      <point x="29" y="655"/>
      <point x="31" y="669"/>
      <point x="34" y="679" type="curve"/>
      <point x="84" y="699"/>
      <point x="132" y="711"/>
      <point x="194" y="717" type="curve"/>
    </contour>
    <contour>
      <point x="523" y="419" type="curve"/>
      <point x="480" y="419"/>
      <point x="450" y="408"/>
      <point x="419" y="378" type="curve" smooth="yes"/>
      <point x="177" y="145" type="line"/>
      <point x="131" y="162" type="line"/>
      <point x="384" y="410" type="line"/>
      <point x="395" y="401" type="line"/>
      <point x="366" y="406"/>
      <point x="336" y="415"/>
      <point x="311" y="427" type="curve"/>
      <point x="311" y="438"/>
      <point x="313" y="449"/>
      <point x="316" y="457" type="curve"/>
      <point x="526" y="457" type="line"/>
      <point x="526" y="444"/>
      <point x="526" y="431"/>
    </contour>
    <contour>
      <point x="551" y="38" type="curve"/>
      <point x="551" y="27"/>
      <point x="550" y="13"/>
      <point x="546" y="0" type="curve"/>
      <point x="407" y="0" type="line"/>
      <point x="265" y="198" type="line" smooth="yes"/>
      <point x="253" y="214"/>
      <point x="246" y="219"/>
      <point x="226" y="219" type="curve"/>
      <point x="275" y="282" type="line"/>
      <point x="312" y="281"/>
      <point x="333" y="264"/>
      <point x="354" y="233" type="curve" smooth="yes"/>
      <point x="452" y="98" type="line" smooth="yes"/>
      <point x="485" y="52"/>
      <point x="506" y="41"/>
    </contour>
  </outline>
</glyph>
<glyph name="l" format="1">
  <advance width="295"/>
  <unicode hex="006C"/>
  <outline>
    <contour>
      <point x="242" y="678" type="move" name="commaaccent"/>
    </contour>
    <contour>
      <point x="153" y="695" type="move" name="top"/>
    </contour>
    <contour>
      <point x="148" y="0" type="move" name="bottom"/>
    </contour>
    <contour>
      <point x="194" y="30" type="line"/>
      <point x="187" y="54" type="line"/>
      <point x="212" y="43"/>
      <point x="234" y="39"/>
      <point x="258" y="38" type="curve"/>
      <point x="259" y="26"/>
      <point x="257" y="11"/>
      <point x="255" y="0" type="curve"/>
      <point x="29" y="0" type="line"/>
      <point x="28" y="12"/>
      <point x="29" y="27"/>
      <point x="32" y="38" type="curve"/>
      <point x="76" y="43"/>
      <point x="97" y="53"/>
      <point x="97" y="90" type="curve" smooth="yes"/>
      <point x="97" y="659" type="line"/>
      <point x="103" y="642" type="line"/>
      <point x="81" y="645"/>
      <point x="55" y="644"/>
      <point x="28" y="643" type="curve"/>
      <point x="29" y="655"/>
      <point x="31" y="669"/>
      <point x="34" y="679" type="curve"/>
      <point x="84" y="699"/>
      <point x="132" y="711"/>
      <point x="194" y="717" type="curve"/>
    </contour>
  </outline>
</glyph>
<glyph name="m" format="1">
  <advance width="878"/>
  <unicode hex="006D"/>
  <outline>
    <contour>
      <point x="194" y="327" type="curve" smooth="yes"/>
      <point x="194" y="30" type="line"/>
      <point x="187" y="54" type="line"/>
      <point x="212" y="43"/>
      <point x="234" y="39"/>
      <point x="258" y="38" type="curve"/>
      <point x="259" y="26"/>
      <point x="257" y="11"/>
      <point x="255" y="0" type="curve"/>
      <point x="29" y="0" type="line"/>
      <point x="28" y="12"/>
      <point x="29" y="27"/>
      <point x="32" y="38" type="curve"/>
      <point x="76" y="43"/>
      <point x="97" y="53"/>
      <point x="97" y="90" type="curve" smooth="yes"/>
      <point x="97" y="406" type="line"/>
      <point x="103" y="390" type="line"/>
      <point x="81" y="392"/>
      <point x="55" y="392"/>
      <point x="28" y="391" type="curve"/>
      <point x="29" y="402"/>
      <point x="31" y="416"/>
      <point x="34" y="426" type="curve"/>
      <point x="82" y="444"/>
      <point x="130" y="457"/>
      <point x="184" y="463" type="curve"/>
      <point x="191" y="419"/>
      <point x="194" y="376"/>
    </contour>
    <contour>
      <point x="489" y="317" type="curve" smooth="yes"/>
      <point x="489" y="30" type="line"/>
      <point x="482" y="54" type="line"/>
      <point x="507" y="43"/>
      <point x="529" y="39"/>
      <point x="553" y="38" type="curve"/>
      <point x="554" y="26"/>
      <point x="552" y="11"/>
      <point x="550" y="0" type="curve"/>
      <point x="331" y="0" type="line"/>
      <point x="330" y="12"/>
      <point x="331" y="27"/>
      <point x="333" y="38" type="curve"/>
      <point x="376" y="43"/>
      <point x="392" y="53"/>
      <point x="392" y="90" type="curve" smooth="yes"/>
      <point x="392" y="307" type="line" smooth="yes"/>
      <point x="392" y="371"/>
      <point x="360" y="401"/>
      <point x="312" y="401" type="curve" smooth="yes"/>
      <point x="259" y="401"/>
      <point x="218" y="366"/>
      <point x="193" y="300" type="curve"/>
      <point x="178" y="332" type="line"/>
      <point x="206" y="418"/>
      <point x="268" y="469"/>
      <point x="348" y="469" type="curve" smooth="yes"/>
      <point x="427" y="469"/>
      <point x="489" y="418"/>
    </contour>
    <contour>
      <point x="784" y="317" type="curve" smooth="yes"/>
      <point x="784" y="30" type="line"/>
      <point x="778" y="54" type="line"/>
      <point x="809" y="43"/>
      <point x="828" y="39"/>
      <point x="853" y="38" type="curve"/>
      <point x="854" y="26"/>
      <point x="852" y="11"/>
      <point x="850" y="0" type="curve"/>
      <point x="627" y="0" type="line"/>
      <point x="625" y="12"/>
      <point x="627" y="27"/>
      <point x="629" y="38" type="curve"/>
      <point x="671" y="43"/>
      <point x="688" y="53"/>
      <point x="688" y="90" type="curve" smooth="yes"/>
      <point x="688" y="307" type="line" smooth="yes"/>
      <point x="688" y="371"/>
      <point x="656" y="401"/>
      <point x="608" y="401" type="curve" smooth="yes"/>
      <point x="555" y="401"/>
      <point x="514" y="366"/>
      <point x="488" y="300" type="curve"/>
      <point x="473" y="332" type="line"/>
      <point x="501" y="418"/>
      <point x="564" y="469"/>
      <point x="644" y="469" type="curve" smooth="yes"/>
      <point x="723" y="469"/>
      <point x="784" y="418"/>
    </contour>
  </outline>
</glyph>
<glyph name="o" format="1">
  <advance width="522"/>
  <unicode hex="006F"/>
  <outline>
    <contour>
      <point x="266" y="457" type="move" name="top"/>
    </contour>
    <contour>
      <point x="484" y="228" type="curve" smooth="yes"/>
      <point x="484" y="79"/>
      <point x="391" y="-12"/>
      <point x="260" y="-12" type="curve" smooth="yes"/>
      <point x="123" y="-12"/>
      <point x="37" y="79"/>
      <point x="37" y="228" type="curve" smooth="yes"/>
      <point x="37" y="379"/>
      <point x="130" y="469"/>
      <point x="261" y="469" type="curve" smooth="yes"/>
      <point x="394" y="469"/>
      <point x="484" y="380"/>
    </contour>
    <contour>
      <point x="139" y="228" type="curve" smooth="yes"/>
      <point x="143" y="108"/>
      <point x="184" y="38"/>
      <point x="266" y="38" type="curve" smooth="yes"/>
      <point x="347" y="38"/>
      <point x="384" y="108"/>
      <point x="381" y="228" type="curve" smooth="yes"/>
      <point x="378" y="349"/>
      <point x="337" y="422"/>
      <point x="256" y="422" type="curve" smooth="yes"/>
      <point x="174" y="422"/>
      <point x="137" y="349"/>
    </contour>
  </outline>
</glyph>
<glyph name="p" format="1">
  <advance width="548"/>
  <unicode hex="0070"/>
  <outline>
    <contour>
      <point x="192" y="327" type="curve" smooth="yes"/>
      <point x="192" y="-200" type="line"/>
      <point x="186" y="-166" type="line"/>
      <point x="219" y="-182"/>
      <point x="252" y="-189"/>
      <point x="285" y="-191" type="curve"/>
      <point x="285" y="-203"/>
      <point x="284" y="-218"/>
      <point x="282" y="-229" type="curve"/>
      <point x="26" y="-229" type="line"/>
      <point x="25" y="-217"/>
      <point x="26" y="-202"/>
      <point x="30" y="-191" type="curve"/>
      <point x="74" y="-185"/>
      <point x="95" y="-175"/>
      <point x="95" y="-139" type="curve" smooth="yes"/>
      <point x="95" y="406" type="line"/>
      <point x="101" y="390" type="line"/>
      <point x="78" y="392"/>
      <point x="53" y="392"/>
      <point x="26" y="391" type="curve"/>
      <point x="27" y="402"/>
      <point x="29" y="416"/>
      <point x="32" y="426" type="curve"/>
      <point x="80" y="444"/>
      <point x="127" y="457"/>
      <point x="180" y="462" type="curve"/>
      <point x="189" y="419"/>
      <point x="192" y="376"/>
    </contour>
    <contour>
      <point x="510" y="236" type="curve" smooth="yes"/>
      <point x="510" y="77"/>
      <point x="387" y="-12"/>
      <point x="257" y="-12" type="curve" smooth="yes"/>
      <point x="211" y="-12"/>
      <point x="170" y="3"/>
      <point x="123" y="36" type="curve"/>
      <point x="158" y="75" type="line"/>
      <point x="192" y="51"/>
      <point x="228" y="40"/>
      <point x="268" y="40" type="curve" smooth="yes"/>
      <point x="337" y="40"/>
      <point x="405" y="100"/>
      <point x="405" y="236" type="curve" smooth="yes"/>
      <point x="405" y="370"/>
      <point x="348" y="410"/>
      <point x="297" y="410" type="curve" smooth="yes"/>
      <point x="247" y="410"/>
      <point x="198" y="369"/>
      <point x="188" y="285" type="curve"/>
      <point x="178" y="341" type="line"/>
      <point x="198" y="430"/>
      <point x="255" y="469"/>
      <point x="319" y="469" type="curve" smooth="yes"/>
      <point x="415" y="469"/>
      <point x="510" y="392"/>
    </contour>
  </outline>
</glyph>
<glyph name="q" format="1">
  <advance width="526"/>
  <unicode hex="0071"/>
  <outline>
    <contour>
      <point x="376" y="380" type="line"/>
      <point x="352" y="397"/>
      <point x="324" y="412"/>
      <point x="284" y="412" type="curve" smooth="yes"/>
      <point x="202" y="412"/>
      <point x="139" y="365"/>
      <point x="139" y="232" type="curve" smooth="yes"/>
      <point x="139" y="101"/>
      <point x="188" y="52"/>
      <point x="260" y="52" type="curve" smooth="yes"/>
      <point x="307" y="52"/>
      <point x="341" y="70"/>
      <point x="375" y="107" type="curve"/>
      <point x="378" y="64" type="line"/>
      <point x="344" y="23"/>
      <point x="296" y="-12"/>
      <point x="227" y="-12" type="curve" smooth="yes"/>
      <point x="131" y="-12"/>
      <point x="37" y="63"/>
      <point x="37" y="217" type="curve" smooth="yes"/>
      <point x="37" y="381"/>
      <point x="160" y="469"/>
      <point x="303" y="469" type="curve" smooth="yes"/>
      <point x="351" y="469"/>
      <point x="391" y="453"/>
      <point x="427" y="426" type="curve"/>
    </contour>
    <contour>
      <point x="347" y="404" type="line"/>
      <point x="368" y="403" type="line"/>
      <point x="382" y="433"/>
      <point x="408" y="460"/>
      <point x="428" y="475" type="curve"/>
      <point x="444" y="475" type="line"/>
      <point x="444" y="-199" type="line"/>
      <point x="428" y="-170" type="line"/>
      <point x="455" y="-183"/>
      <point x="484" y="-189"/>
      <point x="513" y="-191" type="curve"/>
      <point x="514" y="-203"/>
      <point x="512" y="-219"/>
      <point x="510" y="-229" type="curve"/>
      <point x="254" y="-229" type="line"/>
      <point x="253" y="-218"/>
      <point x="253" y="-202"/>
      <point x="257" y="-191" type="curve"/>
      <point x="327" y="-185"/>
      <point x="347" y="-172"/>
      <point x="347" y="-134" type="curve" smooth="yes"/>
    </contour>
  </outline>
</glyph>
<glyph name="r" format="1">
  <advance width="372"/>
  <unicode hex="0072"/>
  <outline>
    <contour>
      <point x="213" y="463" type="move" name="top"/>
    </contour>
    <contour>
      <point x="143" y="0" type="move" name="bottom"/>
    </contour>
    <contour>
      <point x="365" y="377" type="curve"/>
      <point x="295" y="377"/>
      <point x="208" y="350"/>
      <point x="194" y="249" type="curve"/>
      <point x="175" y="249" type="line"/>
      <point x="186" y="372"/>
      <point x="270" y="469"/>
      <point x="369" y="469" type="curve"/>
      <point x="375" y="450"/>
      <point x="374" y="411"/>
    </contour>
    <contour>
      <point x="97" y="406" type="line"/>
      <point x="103" y="390" type="line"/>
      <point x="81" y="392"/>
      <point x="55" y="392"/>
      <point x="28" y="391" type="curve"/>
      <point x="29" y="402"/>
      <point x="31" y="416"/>
      <point x="34" y="426" type="curve"/>
      <point x="82" y="444"/>
      <point x="130" y="457"/>
      <point x="184" y="462" type="curve"/>
      <point x="191" y="419"/>
      <point x="194" y="376"/>
      <point x="194" y="327" type="curve"/>
      <point x="194" y="30" type="line"/>
      <point x="187" y="60" type="line"/>
      <point x="219" y="47"/>
      <point x="257" y="40"/>
      <point x="293" y="38" type="curve"/>
      <point x="293" y="26"/>
      <point x="292" y="11"/>
      <point x="289" y="0" type="curve"/>
      <point x="29" y="0" type="line"/>
      <point x="28" y="12"/>
      <point x="29" y="27"/>
      <point x="32" y="38" type="curve"/>
      <point x="76" y="44"/>
      <point x="97" y="54"/>
      <point x="97" y="90" type="curve"/>
    </contour>
  </outline>
</glyph>
<glyph name="s" format="1">
  <advance width="418"/>
  <unicode hex="0073"/>
  <outline>
    <contour>
      <point x="233" y="457" type="move" name="top"/>
    </contour>
    <contour>
      <point x="207" y="0" type="move" name="bottom"/>
    </contour>
    <contour>
      <point x="288" y="105" type="curve" smooth="yes"/>
      <point x="288" y="198"/>
      <point x="63" y="195"/>
      <point x="63" y="337" type="curve" smooth="yes"/>
      <point x="63" y="428"/>
      <point x="137" y="469"/>
      <point x="232" y="469" type="curve" smooth="yes"/>
      <point x="282" y="469"/>
      <point x="313" y="461"/>
      <point x="350" y="449" type="curve"/>
      <point x="352" y="402"/>
      <point x="349" y="362"/>
      <point x="345" y="331" type="curve"/>
      <point x="336" y="331"/>
      <point x="322" y="332"/>
      <point x="314" y="334" type="curve"/>
      <point x="323" y="411"/>
      <point x="278" y="425"/>
      <point x="232" y="425" type="curve" smooth="yes"/>
      <point x="186" y="425"/>
      <point x="152" y="399"/>
      <point x="152" y="356" type="curve" smooth="yes"/>
      <point x="152" y="259"/>
      <point x="382" y="269"/>
      <point x="382" y="127" type="curve" smooth="yes"/>
      <point x="382" y="41"/>
      <point x="300" y="-12"/>
      <point x="192" y="-12" type="curve" smooth="yes"/>
      <point x="143" y="-12"/>
      <point x="93" y="-5"/>
      <point x="52" y="8" type="curve"/>
      <point x="48" y="51"/>
      <point x="51" y="100"/>
      <point x="56" y="135" type="curve"/>
      <point x="64" y="135"/>
      <point x="78" y="134"/>
      <point x="88" y="133" type="curve"/>
      <point x="82" y="47"/>
      <point x="145" y="35"/>
      <point x="194" y="35" type="curve" smooth="yes"/>
      <point x="251" y="35"/>
      <point x="288" y="64"/>
    </contour>
  </outline>
</glyph>
<glyph name="t" format="1">
  <advance width="356"/>
  <unicode hex="0074"/>
  <outline>
    <contour>
      <point x="236" y="623" type="move" name="commaaccent"/>
    </contour>
    <contour>
      <point x="194" y="0" type="move" name="bottom"/>
    </contour>
    <contour>
      <point x="186" y="580" type="line"/>
      <point x="186" y="123" type="line"/>
      <point x="186" y="74"/>
      <point x="208" y="58"/>
      <point x="239" y="58" type="curve" smooth="yes"/>
      <point x="270" y="58"/>
      <point x="298" y="70"/>
      <point x="325" y="92" type="curve"/>
      <point x="340" y="72" type="line"/>
      <point x="308" y="24"/>
      <point x="262" y="-12"/>
      <point x="208" y="-12" type="curve" smooth="yes"/>
      <point x="143" y="-12"/>
      <point x="89" y="26"/>
      <point x="89" y="115" type="curve" smooth="yes"/>
      <point x="89" y="424" type="line"/>
      <point x="112" y="396" type="line"/>
      <point x="85" y="403"/>
      <point x="53" y="405"/>
      <point x="25" y="405" type="curve"/>
      <point x="25" y="414"/>
      <point x="26" y="427"/>
      <point x="27" y="434" type="curve"/>
      <point x="47" y="442"/>
      <point x="68" y="448"/>
      <point x="89" y="450" type="curve"/>
      <point x="166" y="585" type="line"/>
    </contour>
    <contour>
      <point x="163" y="452" type="line"/>
      <point x="213" y="452"/>
      <point x="264" y="454"/>
      <point x="320" y="460" type="curve"/>
      <point x="320" y="436"/>
      <point x="318" y="421"/>
      <point x="312" y="404" type="curve"/>
      <point x="163" y="404" type="line"/>
    </contour>
  </outline>
</glyph>
<glyph name="u" format="1">
  <advance width="568"/>
  <unicode hex="0075"/>
  <outline>
    <contour>
      <point x="270" y="457" type="move" name="top"/>
    </contour>
    <contour>
      <point x="482" y="15" type="move" name="ogonek"/>
    </contour>
    <contour>
      <point x="465" y="372" type="curve" smooth="yes"/>
      <point x="465" y="53" type="line"/>
      <point x="460" y="69" type="line"/>
      <point x="482" y="67"/>
      <point x="502" y="65"/>
      <point x="528" y="65" type="curve"/>
      <point x="530" y="54"/>
      <point x="530" y="44"/>
      <point x="529" y="31" type="curve"/>
      <point x="493" y="15"/>
      <point x="434" y="-1"/>
      <point x="380" y="-5" type="curve"/>
      <point x="372" y="38"/>
      <point x="369" y="83"/>
      <point x="369" y="131" type="curve"/>
      <point x="369" y="355" type="line" smooth="yes"/>
      <point x="369" y="391"/>
      <point x="360" y="414"/>
      <point x="335" y="426" type="curve"/>
      <point x="336" y="434"/>
      <point x="339" y="442"/>
      <point x="342" y="448" type="curve"/>
      <point x="380" y="463"/>
      <point x="429" y="468"/>
      <point x="469" y="465" type="curve"/>
      <point x="466" y="438"/>
      <point x="465" y="411"/>
    </contour>
    <contour>
      <point x="170" y="154" type="line"/>
      <point x="170" y="91"/>
      <point x="203" y="57"/>
      <point x="251" y="57" type="curve" smooth="yes"/>
      <point x="296" y="57"/>
      <point x="340" y="92"/>
      <point x="370" y="158" type="curve"/>
      <point x="386" y="125" type="line"/>
      <point x="345" y="31"/>
      <point x="286" y="-12"/>
      <point x="215" y="-12" type="curve" smooth="yes"/>
      <point x="137" y="-12"/>
      <point x="74" y="42"/>
      <point x="74" y="144" type="curve" smooth="yes"/>
      <point x="74" y="402" type="line"/>
      <point x="81" y="392" type="line"/>
      <point x="61" y="394"/>
      <point x="43" y="394"/>
      <point x="16" y="393" type="curve"/>
      <point x="16" y="404"/>
      <point x="18" y="418"/>
      <point x="21" y="428" type="curve"/>
      <point x="71" y="448"/>
      <point x="109" y="460"/>
      <point x="170" y="466" type="curve"/>
    </contour>
  </outline>
</glyph>
<glyph name="v" format="1">
  <advance width="511"/>
  <unicode hex="0076"/>
  <outline>
    <contour>
      <point x="224" y="419" type="curve"/>
      <point x="199" y="418"/>
      <point x="172" y="416"/>
      <point x="149" y="404" type="curve"/>
      <point x="151" y="427" type="line"/>
      <point x="285" y="31" type="line"/>
      <point x="275" y="31" type="line"/>
      <point x="275" y="58"/>
      <point x="283" y="89"/>
      <point x="294" y="119" type="curve" smooth="yes"/>
      <point x="382" y="357" type="line" smooth="yes"/>
      <point x="396" y="396"/>
      <point x="391" y="414"/>
      <point x="328" y="419" type="curve"/>
      <point x="325" y="431"/>
      <point x="323" y="445"/>
      <point x="325" y="457" type="curve"/>
      <point x="527" y="457" type="line"/>
      <point x="528" y="444"/>
      <point x="524" y="431"/>
      <point x="520" y="419" type="curve"/>
      <point x="495" y="418"/>
      <point x="473" y="413"/>
      <point x="449" y="401" type="curve"/>
      <point x="465" y="421" type="line"/>
      <point x="296" y="-6" type="line"/>
      <point x="216" y="-6" type="line"/>
      <point x="68" y="363" type="line" smooth="yes"/>
      <point x="54" y="400"/>
      <point x="41" y="413"/>
      <point x="-4" y="419" type="curve"/>
      <point x="-7" y="431"/>
      <point x="-8" y="445"/>
      <point x="-7" y="457" type="curve"/>
      <point x="220" y="457" type="line"/>
      <point x="223" y="446"/>
      <point x="224" y="431"/>
    </contour>
  </outline>
</glyph>
<glyph name="w" format="1">
  <advance width="756"/>
  <unicode hex="0077"/>
  <outline>
    <contour>
      <point x="230" y="419" type="curve"/>
      <point x="177" y="414"/>
      <point x="168" y="398"/>
      <point x="178" y="369" type="curve" smooth="yes"/>
      <point x="247" y="164" type="line" smooth="yes"/>
      <point x="253" y="147"/>
      <point x="256" y="133"/>
      <point x="258" y="119" type="curve"/>
      <point x="261" y="119" type="line"/>
      <point x="384" y="437" type="line"/>
      <point x="423" y="437" type="line"/>
      <point x="520" y="164" type="line" smooth="yes"/>
      <point x="526" y="148"/>
      <point x="530" y="134"/>
      <point x="533" y="120" type="curve"/>
      <point x="535" y="120" type="line"/>
      <point x="623" y="363" type="line" smooth="yes"/>
      <point x="639" y="405"/>
      <point x="625" y="417"/>
      <point x="570" y="419" type="curve"/>
      <point x="569" y="430"/>
      <point x="569" y="446"/>
      <point x="571" y="457" type="curve"/>
      <point x="741" y="457" type="line"/>
      <point x="743" y="446"/>
      <point x="741" y="431"/>
      <point x="737" y="419" type="curve"/>
      <point x="714" y="416"/>
      <point x="696" y="411"/>
      <point x="671" y="399" type="curve"/>
      <point x="706" y="436" type="line"/>
      <point x="530" y="-6" type="line"/>
      <point x="492" y="-6" type="line"/>
      <point x="365" y="333" type="line"/>
      <point x="396" y="342" type="line"/>
      <point x="250" y="-6" type="line"/>
      <point x="211" y="-6" type="line"/>
      <point x="52" y="437" type="line"/>
      <point x="77" y="402" type="line"/>
      <point x="59" y="412"/>
      <point x="41" y="418"/>
      <point x="20" y="419" type="curve"/>
      <point x="18" y="430"/>
      <point x="16" y="445"/>
      <point x="18" y="457" type="curve"/>
      <point x="227" y="457" type="line"/>
      <point x="229" y="445"/>
      <point x="230" y="430"/>
    </contour>
  </outline>
</glyph>
<glyph name="x" format="1">
  <advance width="515"/>
  <unicode hex="0078"/>
  <outline>
    <contour>
      <point x="231" y="419" type="curve"/>
      <point x="206" y="418"/>
      <point x="183" y="418"/>
      <point x="157" y="404" type="curve"/>
      <point x="162" y="428" type="line"/>
      <point x="417" y="99" type="line" smooth="yes"/>
      <point x="450" y="57"/>
      <point x="466" y="42"/>
      <point x="509" y="38" type="curve"/>
      <point x="512" y="26"/>
      <point x="514" y="12"/>
      <point x="512" y="0" type="curve"/>
      <point x="290" y="0" type="line"/>
      <point x="287" y="11"/>
      <point x="287" y="26"/>
      <point x="287" y="38" type="curve"/>
      <point x="315" y="39"/>
      <point x="338" y="41"/>
      <point x="359" y="53" type="curve"/>
      <point x="361" y="25" type="line"/>
      <point x="96" y="364" type="line" smooth="yes"/>
      <point x="74" y="394"/>
      <point x="50" y="416"/>
      <point x="5" y="419" type="curve"/>
      <point x="1" y="431"/>
      <point x="0" y="445"/>
      <point x="1" y="457" type="curve"/>
      <point x="228" y="457" type="line"/>
      <point x="231" y="446"/>
      <point x="231" y="431"/>
    </contour>
    <contour>
      <point x="504" y="419" type="curve"/>
      <point x="467" y="417"/>
      <point x="446" y="402"/>
      <point x="420" y="371" type="curve" smooth="yes"/>
      <point x="304" y="234" type="line"/>
      <point x="276" y="267" type="line"/>
      <point x="404" y="426" type="line"/>
      <point x="403" y="406" type="line"/>
      <point x="385" y="414"/>
      <point x="364" y="418"/>
      <point x="338" y="419" type="curve"/>
      <point x="336" y="431"/>
      <point x="336" y="446"/>
      <point x="338" y="457" type="curve"/>
      <point x="511" y="457" type="line"/>
      <point x="512" y="443"/>
      <point x="510" y="430"/>
    </contour>
    <contour>
      <point x="242" y="198" type="line"/>
      <point x="108" y="32" type="line"/>
      <point x="112" y="49" type="line"/>
      <point x="133" y="42"/>
      <point x="152" y="40"/>
      <point x="175" y="38" type="curve"/>
      <point x="176" y="26"/>
      <point x="176" y="12"/>
      <point x="175" y="0" type="curve"/>
      <point x="1" y="0" type="line"/>
      <point x="2" y="14"/>
      <point x="4" y="27"/>
      <point x="7" y="38" type="curve"/>
      <point x="45" y="40"/>
      <point x="66" y="55"/>
      <point x="93" y="85" type="curve" smooth="yes"/>
      <point x="214" y="231" type="line"/>
    </contour>
  </outline>
</glyph>
<glyph name="y" format="1">
  <advance width="516"/>
  <unicode hex="0079"/>
  <outline>
    <contour>
      <point x="284" y="457" type="move" name="top"/>
    </contour>
    <contour>
      <point x="229" y="419" type="curve"/>
      <point x="201" y="418"/>
      <point x="169" y="414"/>
      <point x="147" y="400" type="curve"/>
      <point x="154" y="434" type="line"/>
      <point x="291" y="32" type="line"/>
      <point x="272" y="36" type="line"/>
      <point x="274" y="62"/>
      <point x="281" y="91"/>
      <point x="292" y="119" type="curve" smooth="yes"/>
      <point x="386" y="357" type="line" smooth="yes"/>
      <point x="403" y="397"/>
      <point x="391" y="414"/>
      <point x="333" y="419" type="curve"/>
      <point x="330" y="431"/>
      <point x="329" y="446"/>
      <point x="330" y="457" type="curve"/>
      <point x="519" y="457" type="line"/>
      <point x="520" y="444"/>
      <point x="517" y="431"/>
      <point x="512" y="419" type="curve"/>
      <point x="487" y="417"/>
      <point x="457" y="408"/>
      <point x="436" y="396" type="curve"/>
      <point x="480" y="438" type="line"/>
      <point x="247" y="-100" type="line" smooth="yes"/>
      <point x="212" y="-184"/>
      <point x="174" y="-229"/>
      <point x="113" y="-229" type="curve" smooth="yes"/>
      <point x="97" y="-229" type="line"/>
      <point x="88" y="-202"/>
      <point x="84" y="-169"/>
      <point x="88" y="-139" type="curve"/>
      <point x="112" y="-139" type="line" smooth="yes"/>
      <point x="162" y="-139"/>
      <point x="185" y="-124"/>
      <point x="211" y="-69" type="curve" smooth="yes"/>
      <point x="247" y="9" type="line"/>
      <point x="241" y="-47" type="line"/>
      <point x="74" y="363" type="line" smooth="yes"/>
      <point x="59" y="400"/>
      <point x="46" y="413"/>
      <point x="1" y="419" type="curve"/>
      <point x="-1" y="431"/>
      <point x="-3" y="445"/>
      <point x="-1" y="457" type="curve"/>
      <point x="225" y="457" type="line"/>
      <point x="228" y="446"/>
      <point x="229" y="431"/>
    </contour>
  </outline>
</glyph>
<glyph name="z" format="1">
  <advance width="459"/>
  <unicode hex="007A"/>
  <outline>
    <contour>
      <point x="242" y="457" type="move" name="top"/>
    </contour>
    <contour>
      <point x="142" y="29" type="line"/>
      <point x="126" y="44" type="line"/>
      <point x="289" y="44" type="line" smooth="yes"/>
      <point x="350" y="44"/>
      <point x="373" y="67"/>
      <point x="386" y="139" type="curve"/>
      <point x="393" y="139"/>
      <point x="403" y="137"/>
      <point x="411" y="133" type="curve"/>
      <point x="412" y="89"/>
      <point x="408" y="47"/>
      <point x="401" y="0" type="curve"/>
      <point x="43" y="0" type="line"/>
      <point x="39" y="15"/>
      <point x="39" y="37"/>
      <point x="43" y="54" type="curve"/>
      <point x="313" y="427" type="line"/>
      <point x="331" y="413" type="line"/>
      <point x="175" y="413" type="line" smooth="yes"/>
      <point x="115" y="413"/>
      <point x="92" y="389"/>
      <point x="79" y="318" type="curve"/>
      <point x="71" y="318"/>
      <point x="62" y="319"/>
      <point x="53" y="324" type="curve"/>
      <point x="53" y="368"/>
      <point x="56" y="411"/>
      <point x="63" y="457" type="curve"/>
      <point x="409" y="457" type="line"/>
      <point x="413" y="443"/>
      <point x="415" y="419"/>
      <point x="409" y="402" type="curve" smooth="yes"/>
    </contour>
  </outline>
</glyph>
<glyph name="braceleft" format="1">
  <advance width="420"/>
  <unicode hex="007B"/>
  <outline>
    <contour>
      <point x="88" y="298" type="line"/>
      <point x="153" y="292"/>
      <point x="172" y="259"/>
      <point x="172" y="210" type="curve" smooth="yes"/>
      <point x="172" y="151"/>
      <point x="137" y="96"/>
      <point x="137" y="22" type="curve" smooth="yes"/>
      <point x="137" y="-75"/>
      <point x="215" y="-144"/>
      <point x="386" y="-139" type="curve"/>
      <point x="386" y="-105" type="line"/>
      <point x="269" y="-102"/>
      <point x="231" y="-47"/>
      <point x="231" y="19" type="curve" smooth="yes"/>
      <point x="231" y="91"/>
      <point x="264" y="140"/>
      <point x="264" y="210" type="curve" smooth="yes"/>
      <point x="264" y="273"/>
      <point x="234" y="311"/>
      <point x="168" y="326" type="curve"/>
      <point x="234" y="342"/>
      <point x="264" y="379"/>
      <point x="264" y="443" type="curve" smooth="yes"/>
      <point x="264" y="512"/>
      <point x="231" y="561"/>
      <point x="231" y="633" type="curve" smooth="yes"/>
      <point x="231" y="699"/>
      <point x="269" y="754"/>
      <point x="386" y="758" type="curve"/>
      <point x="386" y="791" type="line"/>
      <point x="215" y="797"/>
      <point x="137" y="727"/>
      <point x="137" y="630" type="curve" smooth="yes"/>
      <point x="137" y="556"/>
      <point x="172" y="501"/>
      <point x="172" y="442" type="curve" smooth="yes"/>
      <point x="172" y="393"/>
      <point x="153" y="360"/>
      <point x="88" y="354" type="curve"/>
    </contour>
  </outline>
</glyph>
<glyph name="bar" format="1">
  <advance width="317"/>
  <unicode hex="007C"/>
  <outline>
    <contour>
      <point x="119" y="714" type="line"/>
      <point x="119" y="-50" type="line"/>
      <point x="197" y="-50" type="line"/>
      <point x="197" y="714" type="line"/>
    </contour>
  </outline>
</glyph>
<glyph name="braceright" format="1">
  <advance width="420"/>
  <unicode hex="007D"/>
  <outline>
    <contour>
      <point x="249" y="442" type="curve" smooth="yes"/>
      <point x="249" y="501"/>
      <point x="283" y="556"/>
      <point x="283" y="630" type="curve" smooth="yes"/>
      <point x="283" y="727"/>
      <point x="205" y="797"/>
      <point x="34" y="791" type="curve"/>
      <point x="34" y="758" type="line"/>
      <point x="151" y="754"/>
      <point x="190" y="699"/>
      <point x="190" y="633" type="curve" smooth="yes"/>
      <point x="190" y="561"/>
      <point x="156" y="512"/>
      <point x="156" y="443" type="curve" smooth="yes"/>
      <point x="156" y="379"/>
      <point x="186" y="342"/>
      <point x="252" y="326" type="curve"/>
      <point x="186" y="311"/>
      <point x="156" y="273"/>
      <point x="156" y="210" type="curve" smooth="yes"/>
      <point x="156" y="140"/>
      <point x="190" y="91"/>
      <point x="190" y="19" type="curve" smooth="yes"/>
      <point x="190" y="-47"/>
      <point x="151" y="-102"/>
      <point x="34" y="-105" type="curve"/>
      <point x="34" y="-139" type="line"/>
      <point x="205" y="-144"/>
      <point x="283" y="-75"/>
      <point x="283" y="22" type="curve" smooth="yes"/>
      <point x="283" y="96"/>
      <point x="249" y="151"/>
      <point x="249" y="210" type="curve" smooth="yes"/>
      <point x="249" y="259"/>
      <point x="268" y="292"/>
      <point x="332" y="298" type="curve"/>
      <point x="332" y="354" type="line"/>
      <point x="268" y="360"/>
      <point x="249" y="393"/>
    </contour>
  </outline>
</glyph>
<glyph name="asciitilde" format="1">
  <advance width="643"/>
  <unicode hex="007E"/>
  <outline>
    <contour>
      <point x="462" y="320" type="curve" smooth="yes"/>
      <point x="511" y="320"/>
      <point x="544" y="349"/>
      <point x="554" y="399" type="curve"/>
      <point x="593" y="399" type="line"/>
      <point x="583" y="293"/>
      <point x="522" y="237"/>
      <point x="440" y="237" type="curve" smooth="yes"/>
      <point x="338" y="237"/>
      <point x="259" y="322"/>
      <point x="181" y="322" type="curve" smooth="yes"/>
      <point x="132" y="322"/>
      <point x="99" y="292"/>
      <point x="89" y="242" type="curve"/>
      <point x="50" y="242" type="line"/>
      <point x="60" y="348"/>
      <point x="121" y="404"/>
      <point x="203" y="404" type="curve" smooth="yes"/>
      <point x="296" y="404"/>
      <point x="382" y="320"/>
    </contour>
  </outline>
</glyph>
<glyph name="cent" format="1">
  <advance width="434"/>
  <unicode hex="00A2"/>
  <outline>
    <contour>
      <point x="234" y="541" type="line"/>
      <point x="286" y="541" type="line"/>
      <point x="286" y="448" type="line"/>
      <point x="234" y="448" type="line"/>
    </contour>
    <contour>
      <point x="232" y="18" type="line"/>
      <point x="284" y="18" type="line"/>
      <point x="284" y="-84" type="line"/>
      <point x="232" y="-84" type="line"/>
    </contour>
    <contour>
      <point x="411" y="433" type="curve"/>
      <point x="410" y="399"/>
      <point x="405" y="347"/>
      <point x="399" y="314" type="curve"/>
      <point x="391" y="315"/>
      <point x="382" y="316"/>
      <point x="374" y="318" type="curve"/>
      <point x="372" y="381"/>
      <point x="328" y="418"/>
      <point x="272" y="418" type="curve" smooth="yes"/>
      <point x="194" y="418"/>
      <point x="139" y="355"/>
      <point x="139" y="227" type="curve" smooth="yes"/>
      <point x="139" y="111"/>
      <point x="195" y="49"/>
      <point x="270" y="49" type="curve" smooth="yes"/>
      <point x="320" y="49"/>
      <point x="364" y="63"/>
      <point x="408" y="86" type="curve"/>
      <point x="424" y="65" type="line"/>
      <point x="375" y="17"/>
      <point x="319" y="-12"/>
      <point x="245" y="-12" type="curve" smooth="yes"/>
      <point x="138" y="-12"/>
      <point x="36" y="71"/>
      <point x="36" y="219" type="curve" smooth="yes"/>
      <point x="36" y="372"/>
      <point x="141" y="469"/>
      <point x="276" y="469" type="curve" smooth="yes"/>
      <point x="326" y="469"/>
      <point x="374" y="456"/>
    </contour>
  </outline>
</glyph>
<glyph name="sterling" format="1">
  <advance width="524"/>
  <unicode hex="00A3"/>
  <outline>
    <contour>
      <point x="442" y="586" type="curve"/>
      <point x="443" y="561"/>
      <point x="440" y="495"/>
      <point x="435" y="469" type="curve"/>
      <point x="404" y="469" type="line"/>
      <point x="396" y="524"/>
      <point x="363" y="569"/>
      <point x="299" y="569" type="curve" smooth="yes"/>
      <point x="236" y="569"/>
      <point x="193" y="523"/>
      <point x="193" y="437" type="curve" smooth="yes"/>
      <point x="193" y="376"/>
      <point x="221" y="309"/>
      <point x="221" y="240" type="curve" smooth="yes"/>
      <point x="221" y="170"/>
      <point x="194" y="105"/>
      <point x="151" y="63" type="curve"/>
      <point x="189" y="81"/>
      <point x="226" y="88"/>
      <point x="261" y="88" type="curve" smooth="yes"/>
      <point x="313" y="88"/>
      <point x="352" y="63"/>
      <point x="398" y="63" type="curve" smooth="yes"/>
      <point x="438" y="63"/>
      <point x="460" y="91"/>
      <point x="460" y="139" type="curve"/>
      <point x="469" y="140"/>
      <point x="481" y="138"/>
      <point x="488" y="134" type="curve"/>
      <point x="488" y="132"/>
      <point x="491" y="117"/>
      <point x="491" y="101" type="curve" smooth="yes"/>
      <point x="491" y="35"/>
      <point x="456" y="-13"/>
      <point x="378" y="-13" type="curve" smooth="yes"/>
      <point x="292" y="-13"/>
      <point x="273" y="11"/>
      <point x="210" y="11" type="curve" smooth="yes"/>
      <point x="172" y="11"/>
      <point x="104" y="3"/>
      <point x="67" y="-11" type="curve"/>
      <point x="58" y="-5"/>
      <point x="52" y="3"/>
      <point x="49" y="14" type="curve"/>
      <point x="108" y="63"/>
      <point x="133" y="133"/>
      <point x="133" y="209" type="curve" smooth="yes"/>
      <point x="133" y="287"/>
      <point x="101" y="355"/>
      <point x="101" y="436" type="curve" smooth="yes"/>
      <point x="101" y="557"/>
      <point x="186" y="635"/>
      <point x="300" y="635" type="curve" smooth="yes"/>
      <point x="361" y="635"/>
      <point x="411" y="612"/>
    </contour>
    <contour>
      <point x="393" y="340" type="line"/>
      <point x="376" y="297" type="line"/>
      <point x="50" y="297" type="line"/>
      <point x="67" y="340" type="line"/>
    </contour>
  </outline>
</glyph>
<glyph name="currency" format="1">
  <advance width="478"/>
  <unicode hex="00A4"/>
  <outline>
    <contour>
      <point x="238" y="173" type="curve" smooth="yes"/>
      <point x="320" y="173"/>
      <point x="395" y="230"/>
      <point x="395" y="328" type="curve" smooth="yes"/>
      <point x="395" y="425"/>
      <point x="320" y="484"/>
      <point x="238" y="484" type="curve" smooth="yes"/>
      <point x="156" y="484"/>
      <point x="83" y="425"/>
      <point x="83" y="328" type="curve" smooth="yes"/>
      <point x="83" y="230"/>
      <point x="156" y="173"/>
    </contour>
    <contour>
      <point x="238" y="443" type="curve" smooth="yes"/>
      <point x="278" y="443"/>
      <point x="315" y="412"/>
      <point x="315" y="329" type="curve" smooth="yes"/>
      <point x="315" y="246"/>
      <point x="278" y="214"/>
      <point x="238" y="214" type="curve" smooth="yes"/>
      <point x="199" y="214"/>
      <point x="163" y="246"/>
      <point x="163" y="329" type="curve" smooth="yes"/>
      <point x="163" y="412"/>
      <point x="199" y="443"/>
    </contour>
    <contour>
      <point x="154" y="421" type="line"/>
      <point x="63" y="494" type="line"/>
      <point x="28" y="447" type="line"/>
      <point x="118" y="383" type="line"/>
    </contour>
    <contour>
      <point x="449" y="447" type="line"/>
      <point x="414" y="494" type="line"/>
      <point x="323" y="421" type="line"/>
      <point x="359" y="383" type="line"/>
    </contour>
    <contour>
      <point x="28" y="210" type="line"/>
      <point x="63" y="163" type="line"/>
      <point x="154" y="236" type="line"/>
      <point x="118" y="274" type="line"/>
    </contour>
    <contour>
      <point x="323" y="236" type="line"/>
      <point x="414" y="163" type="line"/>
      <point x="449" y="210" type="line"/>
      <point x="359" y="274" type="line"/>
    </contour>
  </outline>
</glyph>
<glyph name="brokenbar" format="1">
  <advance width="316"/>
  <unicode hex="00A6"/>
  <outline>
    <contour>
      <point x="119" y="255" type="line"/>
      <point x="119" y="-50" type="line"/>
      <point x="197" y="-50" type="line"/>
      <point x="197" y="255" type="line"/>
    </contour>
    <contour>
      <point x="197" y="409" type="line"/>
      <point x="197" y="714" type="line"/>
      <point x="119" y="714" type="line"/>
      <point x="119" y="409" type="line"/>
    </contour>
  </outline>
</glyph>
<glyph name="section" format="1">
  <advance width="524"/>
  <unicode hex="00A7"/>
  <outline>
    <contour>
      <point x="256" y="360" type="line"/>
      <point x="183" y="346"/>
      <point x="134" y="309"/>
      <point x="134" y="242" type="curve" smooth="yes"/>
      <point x="134" y="190"/>
      <point x="170" y="165"/>
      <point x="250" y="115" type="curve" smooth="yes"/>
      <point x="343" y="58"/>
      <point x="404" y="23"/>
      <point x="404" y="-50" type="curve" smooth="yes"/>
      <point x="404" y="-136"/>
      <point x="333" y="-188"/>
      <point x="243" y="-188" type="curve" smooth="yes"/>
      <point x="199" y="-188"/>
      <point x="161" y="-178"/>
      <point x="120" y="-161" type="curve"/>
      <point x="118" y="-128"/>
      <point x="120" y="-86"/>
      <point x="126" y="-55" type="curve"/>
      <point x="138" y="-55"/>
      <point x="146" y="-55"/>
      <point x="159" y="-58" type="curve"/>
      <point x="158" y="-110"/>
      <point x="199" y="-140"/>
      <point x="244" y="-140" type="curve" smooth="yes"/>
      <point x="289" y="-141"/>
      <point x="315" y="-115"/>
      <point x="315" y="-77" type="curve" smooth="yes"/>
      <point x="315" y="-21"/>
      <point x="248" y="7"/>
      <point x="170" y="57" type="curve" smooth="yes"/>
      <point x="103" y="99"/>
      <point x="49" y="138"/>
      <point x="49" y="222" type="curve" smooth="yes"/>
      <point x="49" y="314"/>
      <point x="131" y="364"/>
      <point x="215" y="383" type="curve"/>
    </contour>
    <contour>
      <point x="398" y="608" type="curve"/>
      <point x="400" y="575"/>
      <point x="398" y="533"/>
      <point x="391" y="502" type="curve"/>
      <point x="379" y="502"/>
      <point x="372" y="503"/>
      <point x="358" y="505" type="curve"/>
      <point x="359" y="557"/>
      <point x="321" y="587"/>
      <point x="278" y="588" type="curve" smooth="yes"/>
      <point x="233" y="588"/>
      <point x="209" y="562"/>
      <point x="209" y="524" type="curve" smooth="yes"/>
      <point x="209" y="468"/>
      <point x="277" y="441"/>
      <point x="355" y="390" type="curve" smooth="yes"/>
      <point x="421" y="348"/>
      <point x="475" y="309"/>
      <point x="475" y="226" type="curve" smooth="yes"/>
      <point x="475" y="134"/>
      <point x="393" y="83"/>
      <point x="309" y="64" type="curve"/>
      <point x="268" y="87" type="line"/>
      <point x="340" y="101"/>
      <point x="389" y="139"/>
      <point x="389" y="205" type="curve" smooth="yes"/>
      <point x="389" y="258"/>
      <point x="352" y="284"/>
      <point x="271" y="334" type="curve" smooth="yes"/>
      <point x="178" y="390"/>
      <point x="120" y="426"/>
      <point x="120" y="498" type="curve" smooth="yes"/>
      <point x="120" y="579"/>
      <point x="192" y="635"/>
      <point x="280" y="635" type="curve" smooth="yes"/>
      <point x="324" y="635"/>
      <point x="358" y="626"/>
    </contour>
  </outline>
</glyph>
<glyph name="dieresis" format="1">
  <advance width="263"/>
  <unicode hex="00A8"/>
  <outline>
    <contour>
      <point x="132" y="457" type="move" name="_top"/>
    </contour>
    <contour>
      <point x="107" y="566" type="curve" smooth="yes"/>
      <point x="107" y="539"/>
      <point x="85" y="516"/>
      <point x="58" y="516" type="curve" smooth="yes"/>
      <point x="32" y="516"/>
      <point x="10" y="539"/>
      <point x="10" y="566" type="curve" smooth="yes"/>
      <point x="10" y="594"/>
      <point x="32" y="617"/>
      <point x="58" y="617" type="curve" smooth="yes"/>
      <point x="85" y="617"/>
      <point x="107" y="594"/>
    </contour>
    <contour>
      <point x="253" y="566" type="curve" smooth="yes"/>
      <point x="253" y="539"/>
      <point x="231" y="516"/>
      <point x="204" y="516" type="curve" smooth="yes"/>
      <point x="178" y="516"/>
      <point x="156" y="539"/>
      <point x="156" y="566" type="curve" smooth="yes"/>
      <point x="156" y="594"/>
      <point x="178" y="617"/>
      <point x="204" y="617" type="curve" smooth="yes"/>
      <point x="231" y="617"/>
      <point x="253" y="594"/>
    </contour>
  </outline>
</glyph>
<glyph name="copyright" format="1">
  <advance width="785"/>
  <unicode hex="00A9"/>
  <outline>
    <contour>
      <point x="353" y="599" type="move" name="top"/>
    </contour>
    <contour>
      <point x="308" y="0" type="move" name="bottom"/>
    </contour>
    <contour>
      <point x="104" y="319" type="curve" smooth="yes"/>
      <point x="104" y="127"/>
      <point x="234" y="22"/>
      <point x="393" y="22" type="curve" smooth="yes"/>
      <point x="552" y="22"/>
      <point x="681" y="127"/>
      <point x="681" y="319" type="curve" smooth="yes"/>
      <point x="681" y="510"/>
      <point x="552" y="615"/>
      <point x="393" y="615" type="curve" smooth="yes"/>
      <point x="234" y="615"/>
      <point x="104" y="510"/>
    </contour>
    <contour>
      <point x="731" y="319" type="curve" smooth="yes"/>
      <point x="731" y="109"/>
      <point x="584" y="-19"/>
      <point x="393" y="-19" type="curve" smooth="yes"/>
      <point x="202" y="-19"/>
      <point x="54" y="109"/>
      <point x="54" y="319" type="curve" smooth="yes"/>
      <point x="54" y="528"/>
      <point x="202" y="656"/>
      <point x="393" y="656" type="curve" smooth="yes"/>
      <point x="584" y="656"/>
      <point x="731" y="528"/>
    </contour>
    <contour>
      <point x="525" y="509" type="curve"/>
      <point x="523" y="478"/>
      <point x="516" y="440"/>
      <point x="507" y="410" type="curve"/>
      <point x="498" y="408"/>
      <point x="488" y="408"/>
      <point x="479" y="409" type="curve"/>
      <point x="478" y="458"/>
      <point x="457" y="483"/>
      <point x="412" y="483" type="curve" smooth="yes"/>
      <point x="338" y="483"/>
      <point x="291" y="417"/>
      <point x="291" y="322" type="curve" smooth="yes"/>
      <point x="291" y="220"/>
      <point x="341" y="168"/>
      <point x="414" y="168" type="curve" smooth="yes"/>
      <point x="451" y="168"/>
      <point x="479" y="178"/>
      <point x="512" y="200" type="curve"/>
      <point x="536" y="176" type="line"/>
      <point x="503" y="138"/>
      <point x="457" y="111"/>
      <point x="396" y="111" type="curve" smooth="yes"/>
      <point x="295" y="111"/>
      <point x="208" y="187"/>
      <point x="208" y="318" type="curve" smooth="yes"/>
      <point x="208" y="447"/>
      <point x="298" y="533"/>
      <point x="415" y="533" type="curve" smooth="yes"/>
      <point x="457" y="533"/>
      <point x="498" y="521"/>
    </contour>
  </outline>
</glyph>
<glyph name="ordfeminine" format="1">
  <advance width="340"/>
  <unicode hex="00AA"/>
  <outline>
    <contour>
      <point x="215" y="451" type="line"/>
      <point x="152" y="456"/>
      <point x="98" y="436"/>
      <point x="98" y="384" type="curve" smooth="yes"/>
      <point x="98" y="359"/>
      <point x="114" y="339"/>
      <point x="144" y="339" type="curve" smooth="yes"/>
      <point x="172" y="339"/>
      <point x="196" y="349"/>
      <point x="219" y="378" type="curve"/>
      <point x="221" y="348" type="line"/>
      <point x="194" y="315"/>
      <point x="164" y="293"/>
      <point x="117" y="293" type="curve" smooth="yes"/>
      <point x="66" y="293"/>
      <point x="27" y="325"/>
      <point x="27" y="377" type="curve" smooth="yes"/>
      <point x="27" y="461"/>
      <point x="125" y="489"/>
      <point x="215" y="479" type="curve"/>
    </contour>
    <contour>
      <point x="275" y="528" type="curve" smooth="yes"/>
      <point x="275" y="375" type="line" smooth="yes"/>
      <point x="275" y="347"/>
      <point x="283" y="338"/>
      <point x="297" y="338" type="curve" smooth="yes"/>
      <point x="305" y="338"/>
      <point x="312" y="339"/>
      <point x="323" y="342" type="curve"/>
      <point x="328" y="329" type="line"/>
      <point x="314" y="309"/>
      <point x="294" y="293"/>
      <point x="268" y="293" type="curve" smooth="yes"/>
      <point x="236" y="293"/>
      <point x="208" y="312"/>
      <point x="208" y="348" type="curve"/>
      <point x="208" y="523" type="line" smooth="yes"/>
      <point x="208" y="561"/>
      <point x="191" y="580"/>
      <point x="148" y="580" type="curve" smooth="yes"/>
      <point x="118" y="580"/>
      <point x="90" y="574"/>
      <point x="61" y="560" type="curve"/>
      <point x="49" y="580" type="line"/>
      <point x="85" y="614"/>
      <point x="126" y="630"/>
      <point x="173" y="630" type="curve" smooth="yes"/>
      <point x="240" y="630"/>
      <point x="275" y="592"/>
    </contour>
  </outline>
</glyph>
<glyph name="guillemotleft" format="1">
  <advance width="636"/>
  <unicode hex="00AB"/>
  <outline>
    <contour>
      <point x="120" y="320" type="line"/>
      <point x="287" y="129" type="line"/>
      <point x="328" y="151" type="line"/>
      <point x="205" y="320" type="line"/>
      <point x="328" y="489" type="line"/>
      <point x="287" y="510" type="line"/>
    </contour>
    <contour>
      <point x="305" y="320" type="line"/>
      <point x="472" y="129" type="line"/>
      <point x="512" y="151" type="line"/>
      <point x="390" y="320" type="line"/>
      <point x="512" y="489" type="line"/>
      <point x="472" y="510" type="line"/>
    </contour>
  </outline>
</glyph>
<glyph name="logicalnot" format="1">
  <advance width="627"/>
  <unicode hex="00AC"/>
  <outline>
    <contour>
      <point x="542" y="220" type="line"/>
      <point x="488" y="220" type="line"/>
      <point x="488" y="341" type="line"/>
      <point x="75" y="341" type="line"/>
      <point x="75" y="416" type="line"/>
      <point x="542" y="416" type="line"/>
    </contour>
  </outline>
</glyph>
<glyph name="registered" format="1">
  <advance width="779"/>
  <unicode hex="00AE"/>
  <outline>
    <contour>
      <point x="378" y="505" type="move" name="top"/>
    </contour>
    <contour>
      <point x="380" y="131" type="move" name="bottom"/>
    </contour>
    <contour>
      <point x="109" y="319" type="curve" smooth="yes"/>
      <point x="109" y="127"/>
      <point x="235" y="22"/>
      <point x="390" y="22" type="curve" smooth="yes"/>
      <point x="544" y="22"/>
      <point x="670" y="127"/>
      <point x="670" y="319" type="curve" smooth="yes"/>
      <point x="670" y="510"/>
      <point x="544" y="615"/>
      <point x="390" y="615" type="curve" smooth="yes"/>
      <point x="235" y="615"/>
      <point x="109" y="510"/>
    </contour>
    <contour>
      <point x="719" y="319" type="curve" smooth="yes"/>
      <point x="719" y="109"/>
      <point x="575" y="-19"/>
      <point x="390" y="-19" type="curve" smooth="yes"/>
      <point x="204" y="-19"/>
      <point x="60" y="109"/>
      <point x="60" y="319" type="curve" smooth="yes"/>
      <point x="60" y="528"/>
      <point x="204" y="656"/>
      <point x="390" y="656" type="curve" smooth="yes"/>
      <point x="575" y="656"/>
      <point x="719" y="528"/>
    </contour>
    <contour>
      <point x="526" y="410" type="curve" smooth="yes"/>
      <point x="526" y="349"/>
      <point x="477" y="298"/>
      <point x="392" y="298" type="curve" smooth="yes"/>
      <point x="318" y="298" type="line"/>
      <point x="316" y="305"/>
      <point x="315" y="324"/>
      <point x="315" y="333" type="curve"/>
      <point x="380" y="333" type="line" smooth="yes"/>
      <point x="437" y="333"/>
      <point x="464" y="360"/>
      <point x="464" y="410" type="curve" smooth="yes"/>
      <point x="464" y="460"/>
      <point x="440" y="487"/>
      <point x="380" y="487" type="curve" smooth="yes"/>
      <point x="324" y="487" type="line"/>
      <point x="335" y="503" type="line"/>
      <point x="335" y="157" type="line"/>
      <point x="330" y="175" type="line"/>
      <point x="350" y="167"/>
      <point x="372" y="163"/>
      <point x="393" y="162" type="curve"/>
      <point x="394" y="154"/>
      <point x="392" y="141"/>
      <point x="391" y="135" type="curve"/>
      <point x="237" y="135" type="line"/>
      <point x="236" y="142"/>
      <point x="237" y="156"/>
      <point x="239" y="162" type="curve"/>
      <point x="266" y="165"/>
      <point x="278" y="171"/>
      <point x="278" y="193" type="curve" smooth="yes"/>
      <point x="278" y="493" type="line"/>
      <point x="287" y="482" type="line"/>
      <point x="270" y="492"/>
      <point x="252" y="495"/>
      <point x="235" y="496" type="curve"/>
      <point x="235" y="503"/>
      <point x="235" y="517"/>
      <point x="237" y="522" type="curve"/>
      <point x="392" y="522" type="line" smooth="yes"/>
      <point x="477" y="522"/>
      <point x="526" y="471"/>
    </contour>
    <contour>
      <point x="399" y="275" type="line"/>
      <point x="392" y="288"/>
      <point x="385" y="298"/>
      <point x="366" y="298" type="curve"/>
      <point x="407" y="311" type="line"/>
      <point x="438" y="310"/>
      <point x="449" y="293"/>
      <point x="462" y="272" type="curve" smooth="yes"/>
      <point x="509" y="197" type="line" smooth="yes"/>
      <point x="527" y="167"/>
      <point x="542" y="161"/>
      <point x="566" y="161" type="curve"/>
      <point x="566" y="154"/>
      <point x="565" y="142"/>
      <point x="564" y="135" type="curve"/>
      <point x="480" y="135" type="line"/>
    </contour>
  </outline>
</glyph>
<glyph name="macron" format="1">
  <advance width="254"/>
  <unicode hex="00AF"/>
  <outline>
    <contour>
      <point x="128" y="457" type="move" name="_top"/>
    </contour>
    <contour>
      <point x="10" y="522" type="line"/>
      <point x="244" y="522" type="line"/>
      <point x="244" y="563" type="line"/>
      <point x="10" y="563" type="line"/>
    </contour>
  </outline>
</glyph>
<glyph name="degree" format="1">
  <advance width="317"/>
  <unicode hex="00B0"/>
  <outline>
    <contour>
      <point x="158" y="400" type="curve" smooth="yes"/>
      <point x="229" y="400"/>
      <point x="287" y="444"/>
      <point x="287" y="528" type="curve" smooth="yes"/>
      <point x="287" y="613"/>
      <point x="229" y="658"/>
      <point x="158" y="658" type="curve" smooth="yes"/>
      <point x="88" y="658"/>
      <point x="30" y="613"/>
      <point x="30" y="528" type="curve" smooth="yes"/>
      <point x="30" y="444"/>
      <point x="88" y="400"/>
    </contour>
    <contour>
      <point x="158" y="616" type="curve" smooth="yes"/>
      <point x="190" y="616"/>
      <point x="218" y="592"/>
      <point x="218" y="529" type="curve" smooth="yes"/>
      <point x="218" y="466"/>
      <point x="190" y="442"/>
      <point x="158" y="442" type="curve" smooth="yes"/>
      <point x="126" y="442"/>
      <point x="100" y="466"/>
      <point x="100" y="529" type="curve" smooth="yes"/>
      <point x="100" y="592"/>
      <point x="126" y="616"/>
    </contour>
  </outline>
</glyph>
<glyph name="plusminus" format="1">
  <advance width="578"/>
  <unicode hex="00B1"/>
  <outline>
    <contour>
      <point x="504" y="140" type="line"/>
      <point x="504" y="76" type="line"/>
      <point x="49" y="76" type="line"/>
      <point x="49" y="140" type="line"/>
    </contour>
    <contour>
      <point x="504" y="416" type="line"/>
      <point x="309" y="416" type="line"/>
      <point x="309" y="571" type="line"/>
      <point x="245" y="571" type="line"/>
      <point x="245" y="416" type="line"/>
      <point x="49" y="416" type="line"/>
      <point x="49" y="352" type="line"/>
      <point x="245" y="352" type="line"/>
      <point x="245" y="197" type="line"/>
      <point x="309" y="197" type="line"/>
      <point x="309" y="352" type="line"/>
      <point x="504" y="352" type="line"/>
    </contour>
  </outline>
</glyph>
<glyph name="twosuperior" format="1">
  <advance width="283"/>
  <unicode hex="00B2"/>
  <outline>
    <contour>
      <point x="55" y="595" type="curve"/>
      <point x="52" y="575"/>
      <point x="51" y="551"/>
      <point x="51" y="531" type="curve"/>
      <point x="56" y="530"/>
      <point x="66" y="529"/>
      <point x="71" y="529" type="curve"/>
      <point x="79" y="563"/>
      <point x="103" y="578"/>
      <point x="129" y="578" type="curve" smooth="yes"/>
      <point x="158" y="578"/>
      <point x="178" y="556"/>
      <point x="178" y="524" type="curve" smooth="yes"/>
      <point x="178" y="477"/>
      <point x="154" y="446"/>
      <point x="40" y="327" type="curve"/>
      <point x="40" y="320"/>
      <point x="42" y="301"/>
      <point x="45" y="288" type="curve"/>
      <point x="230" y="288" type="line"/>
      <point x="237" y="317"/>
      <point x="239" y="355"/>
      <point x="239" y="381" type="curve"/>
      <point x="234" y="384"/>
      <point x="226" y="384"/>
      <point x="222" y="384" type="curve"/>
      <point x="215" y="346"/>
      <point x="204" y="334"/>
      <point x="172" y="334" type="curve" smooth="yes"/>
      <point x="64" y="334" type="line"/>
      <point x="76" y="322" type="line"/>
      <point x="203" y="440"/>
      <point x="238" y="473"/>
      <point x="238" y="530" type="curve" smooth="yes"/>
      <point x="238" y="584"/>
      <point x="197" y="621"/>
      <point x="139" y="621" type="curve" smooth="yes"/>
      <point x="109" y="621"/>
      <point x="78" y="612"/>
    </contour>
  </outline>
</glyph>
<glyph name="threesuperior" format="1">
  <advance width="250"/>
  <unicode hex="00B3"/>
  <outline>
    <contour>
      <point x="217" y="544" type="curve" smooth="yes"/>
      <point x="217" y="505"/>
      <point x="182" y="469"/>
      <point x="134" y="455" type="curve"/>
      <point x="134" y="464" type="line"/>
      <point x="196" y="453"/>
      <point x="225" y="420"/>
      <point x="225" y="375" type="curve" smooth="yes"/>
      <point x="225" y="321"/>
      <point x="171" y="284"/>
      <point x="115" y="284" type="curve" smooth="yes"/>
      <point x="77" y="284"/>
      <point x="49" y="293"/>
      <point x="22" y="315" type="curve"/>
      <point x="25" y="326"/>
      <point x="32" y="339"/>
      <point x="38" y="345" type="curve"/>
      <point x="56" y="331"/>
      <point x="79" y="322"/>
      <point x="107" y="322" type="curve" smooth="yes"/>
      <point x="143" y="322"/>
      <point x="169" y="341"/>
      <point x="169" y="374" type="curve" smooth="yes"/>
      <point x="169" y="414"/>
      <point x="139" y="434"/>
      <point x="85" y="437" type="curve"/>
      <point x="85" y="468" type="line"/>
      <point x="129" y="471"/>
      <point x="157" y="496"/>
      <point x="157" y="530" type="curve" smooth="yes"/>
      <point x="157" y="562"/>
      <point x="136" y="581"/>
      <point x="112" y="581" type="curve" smooth="yes"/>
      <point x="85" y="581"/>
      <point x="64" y="565"/>
      <point x="56" y="533" type="curve"/>
      <point x="52" y="533"/>
      <point x="39" y="533"/>
      <point x="36" y="534" type="curve"/>
      <point x="35" y="555"/>
      <point x="36" y="577"/>
      <point x="38" y="597" type="curve"/>
      <point x="64" y="612"/>
      <point x="92" y="621"/>
      <point x="128" y="621" type="curve" smooth="yes"/>
      <point x="174" y="621"/>
      <point x="217" y="591"/>
    </contour>
  </outline>
</glyph>
<glyph name="acute" format="1">
  <advance width="201"/>
  <unicode hex="00B4"/>
  <outline>
    <contour>
      <point x="26" y="458" type="move" name="_top"/>
    </contour>
    <contour>
      <point x="191" y="648" type="curve"/>
      <point x="191" y="634" type="line"/>
      <point x="36" y="497" type="line"/>
      <point x="10" y="513" type="line"/>
      <point x="115" y="684" type="line"/>
      <point x="141" y="682"/>
      <point x="175" y="663"/>
    </contour>
  </outline>
</glyph>
<glyph name="paragraph" format="1">
  <advance width="511"/>
  <unicode hex="00B6"/>
  <outline>
    <contour>
      <point x="476" y="623" type="line"/>
      <point x="476" y="611"/>
      <point x="475" y="597"/>
      <point x="473" y="586" type="curve"/>
      <point x="424" y="580"/>
      <point x="405" y="561"/>
      <point x="405" y="515" type="curve" smooth="yes"/>
      <point x="405" y="17" type="line" smooth="yes"/>
      <point x="405" y="-109"/>
      <point x="332" y="-185"/>
      <point x="214" y="-230" type="curve"/>
      <point x="186" y="-203" type="line"/>
      <point x="242" y="-143"/>
      <point x="253" y="-81"/>
      <point x="253" y="17" type="curve" smooth="yes"/>
      <point x="253" y="222" type="line"/>
      <point x="226" y="222" type="line" smooth="yes"/>
      <point x="106" y="222"/>
      <point x="21" y="295"/>
      <point x="21" y="421" type="curve" smooth="yes"/>
      <point x="21" y="548"/>
      <point x="107" y="623"/>
      <point x="226" y="623" type="curve" smooth="yes"/>
    </contour>
    <contour>
      <point x="311" y="17" type="line"/>
      <point x="311" y="-64"/>
      <point x="297" y="-115"/>
      <point x="264" y="-163" type="curve"/>
      <point x="323" y="-115"/>
      <point x="347" y="-69"/>
      <point x="347" y="17" type="curve" smooth="yes"/>
      <point x="347" y="507" type="line" smooth="yes"/>
      <point x="347" y="539"/>
      <point x="357" y="562"/>
      <point x="373" y="577" type="curve"/>
      <point x="311" y="577" type="line"/>
    </contour>
  </outline>
</glyph>
<glyph name="cedilla" format="1">
  <advance width="270"/>
  <unicode hex="00B8"/>
  <outline>
    <contour>
      <point x="155" y="0" type="move" name="_bottom"/>
    </contour>
    <contour>
      <point x="188" y="15" type="line"/>
      <point x="169" y="-79" type="line"/>
      <point x="156" y="-67" type="line"/>
      <point x="172" y="-67" type="line" smooth="yes"/>
      <point x="235" y="-67"/>
      <point x="260" y="-98"/>
      <point x="260" y="-131" type="curve" smooth="yes"/>
      <point x="260" y="-180"/>
      <point x="208" y="-219"/>
      <point x="133" y="-219" type="curve" smooth="yes"/>
      <point x="80" y="-219"/>
      <point x="49" y="-207"/>
      <point x="10" y="-186" type="curve"/>
      <point x="27" y="-164" type="line"/>
      <point x="61" y="-180"/>
      <point x="89" y="-186"/>
      <point x="120" y="-186" type="curve" smooth="yes"/>
      <point x="166" y="-186"/>
      <point x="193" y="-168"/>
      <point x="193" y="-137" type="curve" smooth="yes"/>
      <point x="193" y="-113"/>
      <point x="173" y="-100"/>
      <point x="138" y="-100" type="curve" smooth="yes"/>
      <point x="127" y="-100"/>
      <point x="112" y="-101"/>
      <point x="97" y="-104" type="curve"/>
      <point x="121" y="15" type="line"/>
    </contour>
  </outline>
</glyph>
<glyph name="onesuperior" format="1">
  <advance width="218"/>
  <unicode hex="00B9"/>
  <outline>
    <contour>
      <point x="142" y="313" type="line"/>
      <point x="127" y="332" type="line"/>
      <point x="150" y="324"/>
      <point x="165" y="318"/>
      <point x="187" y="317" type="curve"/>
      <point x="187" y="310"/>
      <point x="187" y="294"/>
      <point x="185" y="288" type="curve"/>
      <point x="36" y="288" type="line"/>
      <point x="35" y="295"/>
      <point x="36" y="311"/>
      <point x="38" y="317" type="curve"/>
      <point x="68" y="320"/>
      <point x="85" y="324"/>
      <point x="85" y="342" type="curve" smooth="yes"/>
      <point x="85" y="584" type="line"/>
      <point x="105" y="562" type="line"/>
      <point x="38" y="552" type="line"/>
      <point x="37" y="559"/>
      <point x="37" y="572"/>
      <point x="38" y="576" type="curve"/>
      <point x="69" y="595"/>
      <point x="100" y="611"/>
      <point x="127" y="623" type="curve"/>
      <point x="142" y="618" type="line"/>
    </contour>
  </outline>
</glyph>
<glyph name="ordmasculine" format="1">
  <advance width="373"/>
  <unicode hex="00BA"/>
  <outline>
    <contour>
      <point x="347" y="461" type="curve" smooth="yes"/>
      <point x="347" y="357"/>
      <point x="278" y="294"/>
      <point x="186" y="294" type="curve" smooth="yes"/>
      <point x="91" y="294"/>
      <point x="26" y="357"/>
      <point x="26" y="461" type="curve" smooth="yes"/>
      <point x="26" y="567"/>
      <point x="95" y="630"/>
      <point x="186" y="630" type="curve" smooth="yes"/>
      <point x="280" y="630"/>
      <point x="347" y="568"/>
    </contour>
    <contour>
      <point x="98" y="461" type="curve" smooth="yes"/>
      <point x="100" y="377"/>
      <point x="131" y="328"/>
      <point x="190" y="328" type="curve" smooth="yes"/>
      <point x="249" y="328"/>
      <point x="277" y="377"/>
      <point x="275" y="461" type="curve" smooth="yes"/>
      <point x="273" y="546"/>
      <point x="242" y="597"/>
      <point x="183" y="597" type="curve" smooth="yes"/>
      <point x="124" y="597"/>
      <point x="96" y="546"/>
    </contour>
  </outline>
</glyph>
<glyph name="guillemotright" format="1">
  <advance width="646"/>
  <unicode hex="00BB"/>
  <outline>
    <contour>
      <point x="126" y="489" type="line"/>
      <point x="247" y="320" type="line"/>
      <point x="126" y="151" type="line"/>
      <point x="165" y="129" type="line"/>
      <point x="332" y="320" type="line"/>
      <point x="165" y="510" type="line"/>
    </contour>
    <contour>
      <point x="318" y="489" type="line"/>
      <point x="440" y="320" type="line"/>
      <point x="318" y="151" type="line"/>
      <point x="358" y="129" type="line"/>
      <point x="525" y="320" type="line"/>
      <point x="358" y="510" type="line"/>
    </contour>
  </outline>
</glyph>
<glyph name="onequarter" format="1">
  <advance width="719"/>
  <unicode hex="00BC"/>
  <outline>
    <contour>
      <point x="190" y="249" type="line"/>
      <point x="178" y="273" type="line"/>
      <point x="200" y="263"/>
      <point x="219" y="256"/>
      <point x="246" y="255" type="curve"/>
      <point x="247" y="247"/>
      <point x="245" y="233"/>
      <point x="243" y="225" type="curve"/>
      <point x="60" y="225" type="line"/>
      <point x="59" y="234"/>
      <point x="60" y="247"/>
      <point x="64" y="255" type="curve"/>
      <point x="101" y="259"/>
      <point x="121" y="264"/>
      <point x="121" y="287" type="curve" smooth="yes"/>
      <point x="121" y="592" type="line"/>
      <point x="146" y="571" type="line"/>
      <point x="63" y="558" type="line"/>
      <point x="62" y="565"/>
      <point x="62" y="576"/>
      <point x="64" y="582" type="curve"/>
      <point x="103" y="604"/>
      <point x="140" y="625"/>
      <point x="174" y="641" type="curve"/>
      <point x="190" y="635" type="line"/>
    </contour>
    <contour>
      <point x="511" y="663" type="line"/>
      <point x="168" y="-38" type="line"/>
      <point x="212" y="-38" type="line"/>
      <point x="555" y="663" type="line"/>
    </contour>
    <contour>
      <point x="573" y="330" type="line"/>
      <point x="426" y="126" type="line"/>
      <point x="410" y="142" type="line"/>
      <point x="550" y="142" type="line"/>
      <point x="550" y="334" type="line"/>
    </contour>
    <contour>
      <point x="613" y="142" type="line"/>
      <point x="671" y="142" type="line"/>
      <point x="674" y="127"/>
      <point x="675" y="114"/>
      <point x="673" y="102" type="curve"/>
      <point x="613" y="102" type="line"/>
      <point x="613" y="19" type="line"/>
      <point x="602" y="46" type="line"/>
      <point x="620" y="35"/>
      <point x="637" y="32"/>
      <point x="655" y="31" type="curve"/>
      <point x="655" y="24"/>
      <point x="654" y="7"/>
      <point x="653" y="0" type="curve"/>
      <point x="507" y="0" type="line"/>
      <point x="506" y="8"/>
      <point x="507" y="25"/>
      <point x="509" y="31" type="curve"/>
      <point x="537" y="35"/>
      <point x="550" y="38"/>
      <point x="550" y="62" type="curve"/>
      <point x="550" y="102" type="line"/>
      <point x="398" y="102" type="line"/>
      <point x="391" y="111"/>
      <point x="385" y="122"/>
      <point x="382" y="134" type="curve"/>
      <point x="574" y="407" type="line"/>
      <point x="613" y="407" type="line"/>
    </contour>
  </outline>
</glyph>
<glyph name="onehalf" format="1">
  <advance width="776"/>
  <unicode hex="00BD"/>
  <outline>
    <contour>
      <point x="190" y="249" type="line"/>
      <point x="178" y="273" type="line"/>
      <point x="200" y="263"/>
      <point x="219" y="256"/>
      <point x="246" y="255" type="curve"/>
      <point x="247" y="247"/>
      <point x="245" y="233"/>
      <point x="243" y="225" type="curve"/>
      <point x="60" y="225" type="line"/>
      <point x="59" y="234"/>
      <point x="60" y="247"/>
      <point x="64" y="255" type="curve"/>
      <point x="101" y="259"/>
      <point x="121" y="264"/>
      <point x="121" y="287" type="curve" smooth="yes"/>
      <point x="121" y="592" type="line"/>
      <point x="146" y="571" type="line"/>
      <point x="63" y="558" type="line"/>
      <point x="62" y="565"/>
      <point x="62" y="576"/>
      <point x="64" y="582" type="curve"/>
      <point x="103" y="604"/>
      <point x="140" y="625"/>
      <point x="174" y="641" type="curve"/>
      <point x="190" y="635" type="line"/>
    </contour>
    <contour>
      <point x="511" y="663" type="line"/>
      <point x="168" y="-38" type="line"/>
      <point x="212" y="-38" type="line"/>
      <point x="555" y="663" type="line"/>
    </contour>
    <contour>
      <point x="477" y="381" type="curve"/>
      <point x="473" y="357"/>
      <point x="472" y="326"/>
      <point x="472" y="301" type="curve"/>
      <point x="478" y="300"/>
      <point x="489" y="300"/>
      <point x="495" y="300" type="curve"/>
      <point x="505" y="341"/>
      <point x="535" y="360"/>
      <point x="567" y="360" type="curve" smooth="yes"/>
      <point x="602" y="360"/>
      <point x="628" y="333"/>
      <point x="628" y="293" type="curve" smooth="yes"/>
      <point x="628" y="235"/>
      <point x="597" y="196"/>
      <point x="456" y="49" type="curve"/>
      <point x="456" y="39"/>
      <point x="459" y="16"/>
      <point x="463" y="-1" type="curve"/>
      <point x="692" y="-1" type="line"/>
      <point x="702" y="34"/>
      <point x="704" y="82"/>
      <point x="704" y="115" type="curve"/>
      <point x="698" y="118"/>
      <point x="690" y="118"/>
      <point x="684" y="118" type="curve"/>
      <point x="676" y="72"/>
      <point x="663" y="57"/>
      <point x="623" y="57" type="curve" smooth="yes"/>
      <point x="486" y="57" type="line"/>
      <point x="500" y="42" type="line"/>
      <point x="657" y="189"/>
      <point x="702" y="228"/>
      <point x="702" y="300" type="curve" smooth="yes"/>
      <point x="702" y="367"/>
      <point x="652" y="414"/>
      <point x="580" y="414" type="curve" smooth="yes"/>
      <point x="542" y="414"/>
      <point x="506" y="403"/>
    </contour>
  </outline>
</glyph>
<glyph name="threequarters" format="1">
  <advance width="749"/>
  <unicode hex="00BE"/>
  <outline>
    <contour>
      <point x="539" y="663" type="line"/>
      <point x="202" y="-38" type="line"/>
      <point x="246" y="-38" type="line"/>
      <point x="583" y="663" type="line"/>
    </contour>
    <contour>
      <point x="641" y="142" type="line"/>
      <point x="699" y="142" type="line"/>
      <point x="702" y="127"/>
      <point x="703" y="114"/>
      <point x="701" y="102" type="curve"/>
      <point x="641" y="102" type="line"/>
      <point x="641" y="19" type="line"/>
      <point x="630" y="46" type="line"/>
      <point x="648" y="35"/>
      <point x="665" y="32"/>
      <point x="683" y="31" type="curve"/>
      <point x="683" y="24"/>
      <point x="682" y="7"/>
      <point x="681" y="0" type="curve"/>
      <point x="535" y="0" type="line"/>
      <point x="534" y="8"/>
      <point x="535" y="25"/>
      <point x="537" y="31" type="curve"/>
      <point x="565" y="35"/>
      <point x="578" y="38"/>
      <point x="578" y="62" type="curve"/>
      <point x="578" y="102" type="line"/>
      <point x="426" y="102" type="line"/>
      <point x="419" y="111"/>
      <point x="413" y="122"/>
      <point x="410" y="134" type="curve"/>
      <point x="602" y="407" type="line"/>
      <point x="641" y="407" type="line"/>
    </contour>
    <contour>
      <point x="601" y="330" type="line"/>
      <point x="454" y="126" type="line"/>
      <point x="438" y="142" type="line"/>
      <point x="578" y="142" type="line"/>
      <point x="578" y="334" type="line"/>
    </contour>
    <contour>
      <point x="302" y="550" type="curve" smooth="yes"/>
      <point x="302" y="500"/>
      <point x="257" y="455"/>
      <point x="198" y="438" type="curve"/>
      <point x="198" y="449" type="line"/>
      <point x="274" y="435"/>
      <point x="312" y="393"/>
      <point x="312" y="337" type="curve" smooth="yes"/>
      <point x="312" y="271"/>
      <point x="245" y="224"/>
      <point x="176" y="224" type="curve" smooth="yes"/>
      <point x="130" y="224"/>
      <point x="95" y="236"/>
      <point x="62" y="264" type="curve"/>
      <point x="67" y="277"/>
      <point x="72" y="291"/>
      <point x="80" y="298" type="curve"/>
      <point x="102" y="281"/>
      <point x="130" y="270"/>
      <point x="165" y="270" type="curve" smooth="yes"/>
      <point x="209" y="270"/>
      <point x="242" y="296"/>
      <point x="242" y="336" type="curve" smooth="yes"/>
      <point x="242" y="388"/>
      <point x="206" y="411"/>
      <point x="140" y="415" type="curve"/>
      <point x="140" y="453" type="line"/>
      <point x="193" y="456"/>
      <point x="228" y="489"/>
      <point x="228" y="532" type="curve" smooth="yes"/>
      <point x="228" y="571"/>
      <point x="202" y="594"/>
      <point x="171" y="594" type="curve" smooth="yes"/>
      <point x="138" y="594"/>
      <point x="110" y="575"/>
      <point x="100" y="536" type="curve"/>
      <point x="94" y="536"/>
      <point x="83" y="536"/>
      <point x="78" y="537" type="curve"/>
      <point x="78" y="562"/>
      <point x="78" y="590"/>
      <point x="81" y="614" type="curve"/>
      <point x="113" y="633"/>
      <point x="149" y="645"/>
      <point x="193" y="645" type="curve" smooth="yes"/>
      <point x="250" y="645"/>
      <point x="302" y="607"/>
    </contour>
  </outline>
</glyph>
<glyph name="AE" format="1">
  <advance width="847"/>
  <unicode hex="00C6"/>
  <outline>
    <contour>
      <point x="427" y="535" type="line"/>
      <point x="377" y="444" type="line"/>
      <point x="117" y="32" type="line"/>
      <point x="117" y="71" type="line"/>
      <point x="144" y="52"/>
      <point x="167" y="41"/>
      <point x="198" y="39" type="curve"/>
      <point x="198" y="26"/>
      <point x="197" y="12"/>
      <point x="194" y="0" type="curve"/>
      <point x="4" y="0" type="line"/>
      <point x="3" y="13"/>
      <point x="5" y="28"/>
      <point x="8" y="39" type="curve"/>
      <point x="57" y="45"/>
      <point x="78" y="66"/>
      <point x="99" y="98" type="curve" smooth="yes"/>
      <point x="414" y="595" type="line"/>
    </contour>
    <contour>
      <point x="435" y="211" type="line"/>
      <point x="196" y="211" type="line"/>
      <point x="221" y="257" type="line"/>
      <point x="449" y="257" type="line"/>
    </contour>
    <contour>
      <point x="680" y="286" type="line"/>
      <point x="646" y="286" type="line"/>
      <point x="486" y="293" type="line"/>
      <point x="486" y="336" type="line"/>
      <point x="646" y="346" type="line"/>
      <point x="680" y="346" type="line"/>
    </contour>
    <contour>
      <point x="784" y="474" type="curve"/>
      <point x="777" y="473"/>
      <point x="756" y="472"/>
      <point x="745" y="472" type="curve"/>
      <point x="739" y="541"/>
      <point x="730" y="581"/>
      <point x="660" y="581" type="curve" smooth="yes"/>
      <point x="480" y="581" type="line"/>
      <point x="508" y="606" type="line"/>
      <point x="508" y="18" type="line"/>
      <point x="480" y="43" type="line"/>
      <point x="670" y="43" type="line" smooth="yes"/>
      <point x="740" y="43"/>
      <point x="750" y="83"/>
      <point x="757" y="155" type="curve"/>
      <point x="769" y="156"/>
      <point x="790" y="155"/>
      <point x="799" y="153" type="curve"/>
      <point x="803" y="101"/>
      <point x="804" y="52"/>
      <point x="802" y="0" type="curve"/>
      <point x="343" y="0" type="line"/>
      <point x="342" y="12"/>
      <point x="343" y="27"/>
      <point x="348" y="37" type="curve"/>
      <point x="390" y="43"/>
      <point x="411" y="52"/>
      <point x="411" y="88" type="curve" smooth="yes"/>
      <point x="411" y="585" type="line"/>
      <point x="415" y="570" type="line"/>
      <point x="393" y="581"/>
      <point x="365" y="586"/>
      <point x="341" y="586" type="curve"/>
      <point x="340" y="597"/>
      <point x="342" y="613"/>
      <point x="345" y="623" type="curve"/>
      <point x="789" y="623" type="line"/>
      <point x="791" y="573"/>
      <point x="790" y="523"/>
    </contour>
  </outline>
</glyph>
<glyph name="Eth" format="1">
  <advance width="626"/>
  <unicode hex="00D0"/>
  <outline>
    <contour>
      <point x="322" y="337" type="line"/>
      <point x="326" y="322"/>
      <point x="326" y="306"/>
      <point x="322" y="291" type="curve"/>
      <point x="28" y="291" type="line"/>
      <point x="25" y="306"/>
      <point x="25" y="322"/>
      <point x="28" y="337" type="curve"/>
    </contour>
    <component base="D"/>
  </outline>
</glyph>
<glyph name="multiply" format="1">
  <advance width="527"/>
  <unicode hex="00D7"/>
  <outline>
    <contour>
      <point x="459" y="334" type="line"/>
      <point x="472" y="291" type="line"/>
      <point x="76" y="344" type="line"/>
      <point x="64" y="387" type="line"/>
    </contour>
    <contour>
      <point x="244" y="106" type="line"/>
      <point x="50" y="307" type="line"/>
      <point x="296" y="572" type="line"/>
      <point x="488" y="371" type="line"/>
    </contour>
  </outline>
</glyph>
<glyph name="Oslash" format="1">
  <advance width="674"/>
  <unicode hex="00D8"/>
  <outline>
    <contour>
      <point x="338" y="623" type="move" name="top"/>
    </contour>
    <contour>
      <point x="337" y="-13" type="curve" smooth="yes"/>
      <point x="149" y="-13"/>
      <point x="54" y="119"/>
      <point x="54" y="310" type="curve" smooth="yes"/>
      <point x="54" y="500"/>
      <point x="164" y="636"/>
      <point x="337" y="636" type="curve" smooth="yes"/>
      <point x="508" y="636"/>
      <point x="622" y="500"/>
      <point x="622" y="310" type="curve" smooth="yes"/>
      <point x="622" y="119"/>
      <point x="508" y="-13"/>
    </contour>
    <contour>
      <point x="507" y="311" type="curve" smooth="yes"/>
      <point x="499" y="483"/>
      <point x="439" y="585"/>
      <point x="324" y="585" type="curve" smooth="yes"/>
      <point x="210" y="585"/>
      <point x="160" y="466"/>
      <point x="168" y="310" type="curve" smooth="yes"/>
      <point x="176" y="134"/>
      <point x="234" y="37"/>
      <point x="349" y="37" type="curve" smooth="yes"/>
      <point x="463" y="37"/>
      <point x="514" y="148"/>
    </contour>
    <contour>
      <point x="117" y="-13" type="line"/>
      <point x="53" y="-13" type="line"/>
      <point x="566" y="635" type="line"/>
      <point x="630" y="635" type="line"/>
    </contour>
  </outline>
</glyph>
<glyph name="Thorn" format="1">
  <advance width="559"/>
  <unicode hex="00DE"/>
  <outline>
    <contour>
      <point x="202" y="29" type="line"/>
      <point x="185" y="59" type="line"/>
      <point x="214" y="43"/>
      <point x="244" y="38"/>
      <point x="270" y="37" type="curve"/>
      <point x="271" y="25"/>
      <point x="269" y="11"/>
      <point x="267" y="0" type="curve"/>
      <point x="38" y="0" type="line"/>
      <point x="37" y="12"/>
      <point x="38" y="27"/>
      <point x="42" y="37" type="curve"/>
      <point x="84" y="43"/>
      <point x="105" y="52"/>
      <point x="105" y="88" type="curve" smooth="yes"/>
      <point x="105" y="586" type="line"/>
      <point x="120" y="565" type="line"/>
      <point x="92" y="580"/>
      <point x="63" y="585"/>
      <point x="35" y="586" type="curve"/>
      <point x="35" y="597"/>
      <point x="36" y="613"/>
      <point x="39" y="623" type="curve"/>
      <point x="268" y="623" type="line"/>
      <point x="268" y="612"/>
      <point x="268" y="597"/>
      <point x="265" y="586" type="curve"/>
      <point x="223" y="581"/>
      <point x="202" y="571"/>
      <point x="202" y="536" type="curve" smooth="yes"/>
    </contour>
    <contour>
      <point x="313" y="479" type="line"/>
      <point x="447" y="479"/>
      <point x="529" y="416"/>
      <point x="529" y="317" type="curve" smooth="yes"/>
      <point x="529" y="220"/>
      <point x="447" y="158"/>
      <point x="313" y="158" type="curve" smooth="yes"/>
      <point x="172" y="158" type="line"/>
      <point x="172" y="200" type="line"/>
      <point x="292" y="200" type="line" smooth="yes"/>
      <point x="372" y="200"/>
      <point x="421" y="242"/>
      <point x="421" y="317" type="curve" smooth="yes"/>
      <point x="421" y="393"/>
      <point x="377" y="435"/>
      <point x="292" y="435" type="curve" smooth="yes"/>
      <point x="172" y="435" type="line"/>
      <point x="172" y="479" type="line"/>
    </contour>
  </outline>
</glyph>
<glyph name="germandbls" format="1">
  <advance width="597"/>
  <unicode hex="00DF"/>
  <outline>
    <contour>
      <point x="382" y="671" type="move" name="top"/>
    </contour>
    <contour>
      <point x="520" y="459" type="curve" smooth="yes"/>
      <point x="520" y="383"/>
      <point x="466" y="334"/>
      <point x="390" y="319" type="curve"/>
      <point x="382" y="332" type="line"/>
      <point x="488" y="325"/>
      <point x="547" y="253"/>
      <point x="547" y="169" type="curve" smooth="yes"/>
      <point x="547" y="85"/>
      <point x="486" y="0"/>
      <point x="343" y="0" type="curve" smooth="yes"/>
      <point x="315" y="0"/>
      <point x="286" y="5"/>
      <point x="264" y="13" type="curve"/>
      <point x="260" y="27"/>
      <point x="260" y="40"/>
      <point x="263" y="55" type="curve"/>
      <point x="283" y="48"/>
      <point x="305" y="43"/>
      <point x="325" y="43" type="curve" smooth="yes"/>
      <point x="402" y="43"/>
      <point x="441" y="95"/>
      <point x="441" y="169" type="curve" smooth="yes"/>
      <point x="441" y="244"/>
      <point x="402" y="296"/>
      <point x="314" y="296" type="curve" smooth="yes"/>
      <point x="279" y="296" type="line"/>
      <point x="275" y="310"/>
      <point x="273" y="326"/>
      <point x="276" y="339" type="curve"/>
      <point x="332" y="339" type="line"/>
      <point x="384" y="360"/>
      <point x="414" y="399"/>
      <point x="414" y="459" type="curve" smooth="yes"/>
      <point x="414" y="536"/>
      <point x="376" y="581"/>
      <point x="305" y="581" type="curve" smooth="yes"/>
      <point x="234" y="581"/>
      <point x="202" y="526"/>
      <point x="202" y="448" type="curve" smooth="yes"/>
      <point x="202" y="0" type="line"/>
      <point x="35" y="0" type="line"/>
      <point x="34" y="12"/>
      <point x="35" y="27"/>
      <point x="38" y="38" type="curve"/>
      <point x="82" y="43"/>
      <point x="103" y="53"/>
      <point x="103" y="90" type="curve" smooth="yes"/>
      <point x="103" y="428" type="line" smooth="yes"/>
      <point x="103" y="551"/>
      <point x="184" y="623"/>
      <point x="321" y="623" type="curve" smooth="yes"/>
      <point x="447" y="623"/>
      <point x="520" y="546"/>
    </contour>
  </outline>
</glyph>
<glyph name="ae" format="1">
  <advance width="731"/>
  <unicode hex="00E6"/>
  <outline>
    <contour>
      <point x="301" y="239" type="line"/>
      <point x="230" y="220" type="line" smooth="yes"/>
      <point x="168" y="203"/>
      <point x="141" y="169"/>
      <point x="141" y="122" type="curve" smooth="yes"/>
      <point x="141" y="78"/>
      <point x="168" y="53"/>
      <point x="209" y="53" type="curve" smooth="yes"/>
      <point x="256" y="53"/>
      <point x="290" y="80"/>
      <point x="318" y="125" type="curve"/>
      <point x="340" y="93" type="line"/>
      <point x="305" y="35"/>
      <point x="249" y="-12"/>
      <point x="176" y="-12" type="curve" smooth="yes"/>
      <point x="91" y="-12"/>
      <point x="39" y="43"/>
      <point x="39" y="113" type="curve" smooth="yes"/>
      <point x="39" y="191"/>
      <point x="88" y="234"/>
      <point x="188" y="255" type="curve" smooth="yes"/>
      <point x="300" y="279" type="line"/>
    </contour>
    <contour>
      <point x="364" y="401" type="curve"/>
      <point x="407" y="447"/>
      <point x="466" y="469"/>
      <point x="518" y="469" type="curve" smooth="yes"/>
      <point x="611" y="469"/>
      <point x="694" y="412"/>
      <point x="694" y="276" type="curve"/>
      <point x="691" y="268"/>
      <point x="686" y="259"/>
      <point x="681" y="252" type="curve"/>
      <point x="373" y="252" type="line"/>
      <point x="373" y="289" type="line"/>
      <point x="501" y="298" type="line"/>
      <point x="595" y="299" type="line"/>
      <point x="594" y="387"/>
      <point x="554" y="419"/>
      <point x="509" y="419" type="curve" smooth="yes"/>
      <point x="456" y="419"/>
      <point x="391" y="371"/>
      <point x="391" y="235" type="curve" smooth="yes"/>
      <point x="391" y="111"/>
      <point x="445" y="53"/>
      <point x="530" y="53" type="curve" smooth="yes"/>
      <point x="579" y="53"/>
      <point x="628" y="67"/>
      <point x="676" y="95" type="curve"/>
      <point x="689" y="72" type="line"/>
      <point x="644" y="23"/>
      <point x="582" y="-12"/>
      <point x="502" y="-12" type="curve" smooth="yes"/>
      <point x="407" y="-12"/>
      <point x="289" y="60"/>
      <point x="289" y="219" type="curve" smooth="yes"/>
      <point x="289" y="317" type="line" smooth="yes"/>
      <point x="289" y="371"/>
      <point x="266" y="398"/>
      <point x="210" y="398" type="curve" smooth="yes"/>
      <point x="168" y="398"/>
      <point x="127" y="389"/>
      <point x="86" y="374" type="curve"/>
      <point x="67" y="402" type="line"/>
      <point x="118" y="446"/>
      <point x="179" y="469"/>
      <point x="247" y="469" type="curve" smooth="yes"/>
      <point x="304" y="469"/>
      <point x="344" y="444"/>
    </contour>
  </outline>
</glyph>
<glyph name="eth" format="1">
  <advance width="512"/>
  <unicode hex="00F0"/>
  <outline>
    <contour>
      <point x="465" y="274" type="curve" smooth="yes"/>
      <point x="465" y="107"/>
      <point x="371" y="-12"/>
      <point x="245" y="-12" type="curve" smooth="yes"/>
      <point x="128" y="-12"/>
      <point x="37" y="69"/>
      <point x="37" y="218" type="curve" smooth="yes"/>
      <point x="37" y="365"/>
      <point x="155" y="469"/>
      <point x="299" y="469" type="curve" smooth="yes"/>
      <point x="333" y="469"/>
      <point x="357" y="467"/>
      <point x="382" y="462" type="curve"/>
      <point x="380" y="395" type="line"/>
      <point x="351" y="408"/>
      <point x="323" y="415"/>
      <point x="290" y="415" type="curve" smooth="yes"/>
      <point x="194" y="415"/>
      <point x="137" y="351"/>
      <point x="139" y="218" type="curve" smooth="yes"/>
      <point x="141" y="108"/>
      <point x="183" y="38"/>
      <point x="250" y="38" type="curve" smooth="yes"/>
      <point x="329" y="38"/>
      <point x="362" y="139"/>
      <point x="362" y="269" type="curve" smooth="yes"/>
      <point x="362" y="427"/>
      <point x="330" y="550"/>
      <point x="196" y="691" type="curve"/>
      <point x="228" y="720" type="line"/>
      <point x="367" y="600"/>
      <point x="465" y="447"/>
    </contour>
    <contour>
      <point x="450" y="641" type="curve"/>
      <point x="181" y="519" type="line"/>
      <point x="169" y="529"/>
      <point x="161" y="543"/>
      <point x="158" y="560" type="curve"/>
      <point x="426" y="681" type="line"/>
      <point x="438" y="671"/>
      <point x="446" y="658"/>
    </contour>
  </outline>
</glyph>
<glyph name="divide" format="1">
  <advance width="620"/>
  <unicode hex="00F7"/>
  <outline>
    <contour>
      <point x="575" y="362" type="line"/>
      <point x="575" y="296" type="line"/>
      <point x="44" y="296" type="line"/>
      <point x="44" y="362" type="line"/>
    </contour>
    <contour>
      <point x="370" y="146" type="curve" smooth="yes"/>
      <point x="370" y="113"/>
      <point x="343" y="87"/>
      <point x="309" y="87" type="curve" smooth="yes"/>
      <point x="277" y="87"/>
      <point x="251" y="113"/>
      <point x="251" y="146" type="curve" smooth="yes"/>
      <point x="251" y="180"/>
      <point x="277" y="206"/>
      <point x="309" y="206" type="curve" smooth="yes"/>
      <point x="343" y="206"/>
      <point x="370" y="180"/>
    </contour>
    <contour>
      <point x="370" y="510" type="curve" smooth="yes"/>
      <point x="370" y="478"/>
      <point x="343" y="451"/>
      <point x="309" y="451" type="curve" smooth="yes"/>
      <point x="277" y="451"/>
      <point x="251" y="478"/>
      <point x="251" y="510" type="curve" smooth="yes"/>
      <point x="251" y="543"/>
      <point x="277" y="570"/>
      <point x="309" y="570" type="curve" smooth="yes"/>
      <point x="343" y="570"/>
      <point x="370" y="543"/>
    </contour>
  </outline>
</glyph>
<glyph name="oslash" format="1">
  <advance width="533"/>
  <unicode hex="00F8"/>
  <outline>
    <contour>
      <point x="266" y="457" type="move" name="top"/>
    </contour>
    <contour>
      <point x="496" y="228" type="curve" smooth="yes"/>
      <point x="496" y="79"/>
      <point x="397" y="-12"/>
      <point x="266" y="-12" type="curve" smooth="yes"/>
      <point x="129" y="-12"/>
      <point x="37" y="79"/>
      <point x="37" y="228" type="curve" smooth="yes"/>
      <point x="37" y="379"/>
      <point x="136" y="469"/>
      <point x="266" y="469" type="curve" smooth="yes"/>
      <point x="400" y="469"/>
      <point x="496" y="380"/>
    </contour>
    <contour>
      <point x="139" y="228" type="curve" smooth="yes"/>
      <point x="143" y="108"/>
      <point x="186" y="38"/>
      <point x="271" y="38" type="curve" smooth="yes"/>
      <point x="355" y="38"/>
      <point x="395" y="108"/>
      <point x="392" y="228" type="curve" smooth="yes"/>
      <point x="389" y="349"/>
      <point x="345" y="421"/>
      <point x="262" y="421" type="curve" smooth="yes"/>
      <point x="178" y="421"/>
      <point x="137" y="349"/>
    </contour>
    <contour>
      <point x="91" y="-11" type="line"/>
      <point x="37" y="-11" type="line"/>
      <point x="441" y="469" type="line"/>
      <point x="496" y="469" type="line"/>
    </contour>
  </outline>
</glyph>
<glyph name="thorn" format="1">
  <advance width="548"/>
  <unicode hex="00FE"/>
  <outline>
    <contour>
      <point x="188" y="-170" type="line"/>
      <point x="216" y="-184"/>
      <point x="245" y="-189"/>
      <point x="273" y="-191" type="curve"/>
      <point x="273" y="-203"/>
      <point x="272" y="-218"/>
      <point x="270" y="-229" type="curve"/>
      <point x="29" y="-229" type="line"/>
      <point x="28" y="-217"/>
      <point x="29" y="-202"/>
      <point x="33" y="-191" type="curve"/>
      <point x="77" y="-186"/>
      <point x="97" y="-176"/>
      <point x="97" y="-139" type="curve" smooth="yes"/>
      <point x="97" y="659" type="line"/>
      <point x="103" y="642" type="line"/>
      <point x="81" y="645"/>
      <point x="55" y="644"/>
      <point x="28" y="643" type="curve"/>
      <point x="29" y="655"/>
      <point x="31" y="669"/>
      <point x="34" y="679" type="curve"/>
      <point x="84" y="699"/>
      <point x="132" y="711"/>
      <point x="194" y="717" type="curve"/>
      <point x="194" y="-189" type="line"/>
    </contour>
    <contour>
      <point x="319" y="-13" type="curve" smooth="yes"/>
      <point x="254" y="-13"/>
      <point x="198" y="26"/>
      <point x="178" y="116" type="curve"/>
      <point x="188" y="171" type="line"/>
      <point x="198" y="88"/>
      <point x="247" y="46"/>
      <point x="297" y="46" type="curve" smooth="yes"/>
      <point x="347" y="46"/>
      <point x="405" y="83"/>
      <point x="405" y="228" type="curve" smooth="yes"/>
      <point x="405" y="373"/>
      <point x="347" y="410"/>
      <point x="297" y="410" type="curve" smooth="yes"/>
      <point x="247" y="410"/>
      <point x="198" y="369"/>
      <point x="188" y="285" type="curve"/>
      <point x="178" y="341" type="line"/>
      <point x="198" y="430"/>
      <point x="254" y="469"/>
      <point x="319" y="469" type="curve" smooth="yes"/>
      <point x="415" y="469"/>
      <point x="510" y="396"/>
      <point x="510" y="228" type="curve" smooth="yes"/>
      <point x="510" y="61"/>
      <point x="415" y="-12"/>
    </contour>
  </outline>
</glyph>
<glyph name="dcroat" format="1">
  <advance width="551"/>
  <unicode hex="0111"/>
  <outline>
    <contour>
      <point x="516" y="622" type="line"/>
      <point x="523" y="610"/>
      <point x="526" y="596"/>
      <point x="525" y="581" type="curve"/>
      <point x="252" y="515" type="line"/>
      <point x="244" y="527"/>
      <point x="241" y="540"/>
      <point x="243" y="556" type="curve"/>
    </contour>
    <component base="d"/>
  </outline>
</glyph>
<glyph name="dotlessi" format="1">
  <advance width="295"/>
  <unicode hex="0131"/>
  <outline>
    <contour>
      <point x="148" y="457" type="move" name="top"/>
    </contour>
    <contour>
      <point x="280" y="10" type="move" name="ogonek"/>
    </contour>
    <contour>
      <point x="194" y="30" type="line"/>
      <point x="187" y="54" type="line"/>
      <point x="212" y="43"/>
      <point x="234" y="39"/>
      <point x="258" y="38" type="curve"/>
      <point x="259" y="26"/>
      <point x="257" y="11"/>
      <point x="255" y="0" type="curve"/>
      <point x="29" y="0" type="line"/>
      <point x="28" y="12"/>
      <point x="29" y="27"/>
      <point x="32" y="38" type="curve"/>
      <point x="76" y="43"/>
      <point x="97" y="53"/>
      <point x="97" y="90" type="curve" smooth="yes"/>
      <point x="97" y="405" type="line"/>
      <point x="103" y="390" type="line"/>
      <point x="81" y="391"/>
      <point x="55" y="392"/>
      <point x="28" y="391" type="curve"/>
      <point x="29" y="401"/>
      <point x="31" y="415"/>
      <point x="34" y="426" type="curve"/>
      <point x="84" y="445"/>
      <point x="132" y="457"/>
      <point x="194" y="464" type="curve"/>
    </contour>
  </outline>
</glyph>
